<?xml version="1.0" encoding="utf-8"?>
<!DOCTYPE svg PUBLIC "-//W3C//DTD SVG 1.0//EN' 'http://www.w3.org/TR/2001/REC-SVG-20010904/DTD/svg10.dtd'" "">
<svg xmlns:xlink="http://www.w3.org/1999/xlink" xmlns="http://www.w3.org/2000/svg" fill-opacity="0" color-rendering="auto" color-interpolation="auto" stroke="rgb(0,0,0)" text-rendering="auto" stroke-linecap="square" width="746" stroke-miterlimit="10" stroke-opacity="0" shape-rendering="auto" fill="rgb(0,0,0)" stroke-dasharray="none" font-weight="normal" stroke-width="1" height="504" font-family="'Dialog'" font-style="normal" stroke-linejoin="miter" font-size="12" stroke-dashoffset="0" image-rendering="auto">
  <!--Generated by the Batik Graphics2D SVG Generator-->
  <defs id="genericDefs"/>
  <g>
    <defs id="defs1">
      <clipPath clipPathUnits="userSpaceOnUse" id="clipPath1">
        <path d="M-7 -7 L91 -7 L91 51 L-7 51 L-7 -7 Z"/>
      </clipPath>
      <clipPath clipPathUnits="userSpaceOnUse" id="clipPath2">
        <path d="M0 0 L0 26 L80 26 L80 0 Z"/>
      </clipPath>
      <clipPath clipPathUnits="userSpaceOnUse" id="clipPath3">
        <path d="M0 0 L80 0 L80 14 L0 14 L0 0 Z"/>
      </clipPath>
      <clipPath clipPathUnits="userSpaceOnUse" id="clipPath4">
        <path d="M-7 -7 L151 -7 L151 111 L-7 111 L-7 -7 Z"/>
      </clipPath>
      <clipPath clipPathUnits="userSpaceOnUse" id="clipPath5">
        <path d="M0 0 L0 86 L140 86 L140 0 Z"/>
      </clipPath>
      <clipPath clipPathUnits="userSpaceOnUse" id="clipPath6">
        <path d="M0 0 L140 0 L140 14 L0 14 L0 0 Z"/>
      </clipPath>
      <clipPath clipPathUnits="userSpaceOnUse" id="clipPath7">
        <path d="M-7 -7 L91 -7 L91 161 L-7 161 L-7 -7 Z"/>
      </clipPath>
      <clipPath clipPathUnits="userSpaceOnUse" id="clipPath8">
        <path d="M0 0 L0 136 L80 136 L80 0 Z"/>
      </clipPath>
      <clipPath clipPathUnits="userSpaceOnUse" id="clipPath9">
        <path d="M-7 -7 L161 -7 L161 51 L-7 51 L-7 -7 Z"/>
      </clipPath>
      <clipPath clipPathUnits="userSpaceOnUse" id="clipPath10">
        <path d="M0 0 L0 26 L150 26 L150 0 Z"/>
      </clipPath>
      <clipPath clipPathUnits="userSpaceOnUse" id="clipPath11">
        <path d="M0 0 L150 0 L150 14 L0 14 L0 0 Z"/>
      </clipPath>
      <clipPath clipPathUnits="userSpaceOnUse" id="clipPath12">
        <path d="M-7 -7 L50 -7 L50 25 L-7 25 L-7 -7 Z"/>
      </clipPath>
      <clipPath clipPathUnits="userSpaceOnUse" id="clipPath13">
        <path d="M0 0 L39 0 L39 14 L0 14 L0 0 Z"/>
      </clipPath>
      <clipPath clipPathUnits="userSpaceOnUse" id="clipPath14">
        <path d="M-7 -7 L59 -7 L59 25 L-7 25 L-7 -7 Z"/>
      </clipPath>
      <clipPath clipPathUnits="userSpaceOnUse" id="clipPath15">
        <path d="M0 0 L48 0 L48 14 L0 14 L0 0 Z"/>
      </clipPath>
      <clipPath clipPathUnits="userSpaceOnUse" id="clipPath16">
        <path d="M-7 -7 L51 -7 L51 25 L-7 25 L-7 -7 Z"/>
      </clipPath>
      <clipPath clipPathUnits="userSpaceOnUse" id="clipPath17">
        <path d="M0 0 L40 0 L40 14 L0 14 L0 0 Z"/>
      </clipPath>
      <clipPath clipPathUnits="userSpaceOnUse" id="clipPath18">
        <path d="M-7 -7 L67 -7 L67 25 L-7 25 L-7 -7 Z"/>
      </clipPath>
      <clipPath clipPathUnits="userSpaceOnUse" id="clipPath19">
        <path d="M0 0 L56 0 L56 14 L0 14 L0 0 Z"/>
      </clipPath>
      <clipPath clipPathUnits="userSpaceOnUse" id="clipPath20">
        <path d="M-7 -7 L69 -7 L69 25 L-7 25 L-7 -7 Z"/>
      </clipPath>
      <clipPath clipPathUnits="userSpaceOnUse" id="clipPath21">
        <path d="M0 0 L58 0 L58 14 L0 14 L0 0 Z"/>
      </clipPath>
      <clipPath clipPathUnits="userSpaceOnUse" id="clipPath22">
        <path d="M-7 -7 L39 -7 L39 25 L-7 25 L-7 -7 Z"/>
      </clipPath>
      <clipPath clipPathUnits="userSpaceOnUse" id="clipPath23">
        <path d="M0 0 L28 0 L28 14 L0 14 L0 0 Z"/>
      </clipPath>
      <clipPath clipPathUnits="userSpaceOnUse" id="clipPath24">
        <path d="M-7 -7 L65 -7 L65 25 L-7 25 L-7 -7 Z"/>
      </clipPath>
      <clipPath clipPathUnits="userSpaceOnUse" id="clipPath25">
        <path d="M0 0 L54 0 L54 14 L0 14 L0 0 Z"/>
      </clipPath>
      <clipPath clipPathUnits="userSpaceOnUse" id="clipPath26">
        <path d="M0 0 L363 0 L363 253 L0 253 L0 0 Z"/>
      </clipPath>
      <clipPath clipPathUnits="userSpaceOnUse" id="clipPath27">
        <path d="M0 0 L172 0 L172 104 L0 104 L0 0 Z"/>
      </clipPath>
      <clipPath clipPathUnits="userSpaceOnUse" id="clipPath28">
        <path d="M0 0 L104 0 L104 192 L0 192 L0 0 Z"/>
      </clipPath>
      <clipPath clipPathUnits="userSpaceOnUse" id="clipPath29">
        <path d="M0 0 L232 0 L232 104 L0 104 L0 0 Z"/>
      </clipPath>
      <clipPath clipPathUnits="userSpaceOnUse" id="clipPath30">
        <path d="M0 0 L164 0 L164 202 L0 202 L0 0 Z"/>
      </clipPath>
      <clipPath clipPathUnits="userSpaceOnUse" id="clipPath31">
        <path d="M0 0 L104 0 L104 203 L0 203 L0 0 Z"/>
      </clipPath>
      <clipPath clipPathUnits="userSpaceOnUse" id="clipPath32">
        <path d="M0 0 L104 0 L104 202 L0 202 L0 0 Z"/>
      </clipPath>
      <clipPath clipPathUnits="userSpaceOnUse" id="clipPath33">
        <path d="M0 0 L273 0 L273 203 L0 203 L0 0 Z"/>
      </clipPath>
      <clipPath clipPathUnits="userSpaceOnUse" id="clipPath34">
        <path d="M0 0 L353 0 L353 213 L0 213 L0 0 Z"/>
      </clipPath>
      <clipPath clipPathUnits="userSpaceOnUse" id="clipPath35">
        <path d="M0 0 L104 0 L104 152 L0 152 L0 0 Z"/>
      </clipPath>
      <clipPath clipPathUnits="userSpaceOnUse" id="clipPath36">
        <path d="M0 0 L312 0 L312 104 L0 104 L0 0 Z"/>
      </clipPath>
      <clipPath clipPathUnits="userSpaceOnUse" id="clipPath37">
        <path d="M0 0 L223 0 L223 153 L0 153 L0 0 Z"/>
      </clipPath>
      <clipPath clipPathUnits="userSpaceOnUse" id="clipPath38">
        <path d="M0 0 L243 0 L243 183 L0 183 L0 0 Z"/>
      </clipPath>
      <clipPath clipPathUnits="userSpaceOnUse" id="clipPath39">
        <path d="M0 0 L294 0 L294 193 L0 193 L0 0 Z"/>
      </clipPath>
      <clipPath clipPathUnits="userSpaceOnUse" id="clipPath40">
        <path d="M0 0 L114 0 L114 122 L0 122 L0 0 Z"/>
      </clipPath>
      <clipPath clipPathUnits="userSpaceOnUse" id="clipPath41">
        <path d="M0 0 L104 0 L104 122 L0 122 L0 0 Z"/>
      </clipPath>
    </defs>
    <g fill="white" text-rendering="geometricPrecision" fill-opacity="1" stroke-opacity="1" stroke="white">
      <rect x="0" width="746" height="504" y="0" stroke="none"/>
    </g>
    <g font-size="11" transform="translate(2,0)" fill-opacity="1" fill="rgb(122,207,245)" text-rendering="geometricPrecision" font-family="sans-serif" stroke="rgb(122,207,245)" font-weight="bold" stroke-opacity="1">
      <rect x="0" width="80" height="40" y="0" clip-path="url(#clipPath1)" stroke="none"/>
    </g>
    <g font-size="11" stroke-linecap="butt" transform="translate(2,0)" fill-opacity="1" fill="black" text-rendering="geometricPrecision" font-family="sans-serif" stroke-linejoin="round" stroke="black" font-weight="bold" stroke-opacity="1" stroke-miterlimit="0">
      <rect fill="none" x="0" width="80" height="40" y="0" clip-path="url(#clipPath1)"/>
      <line y2="14" fill="none" x1="0" clip-path="url(#clipPath1)" x2="80" y1="14"/>
    </g>
    <g font-size="11" transform="translate(2,0)" fill-opacity="1" fill="black" text-rendering="geometricPrecision" font-family="sans-serif" stroke="black" font-weight="bold" stroke-opacity="1">
      <text x="14" xml:space="preserve" y="11" clip-path="url(#clipPath3)" stroke="none">Element</text>
    </g>
    <g font-size="11" transform="translate(292,170)" fill-opacity="1" fill="rgb(122,207,245)" text-rendering="geometricPrecision" font-family="sans-serif" stroke="rgb(122,207,245)" font-weight="bold" stroke-opacity="1">
      <rect x="0" width="140" height="100" y="0" clip-path="url(#clipPath4)" stroke="none"/>
    </g>
    <g font-size="11" stroke-linecap="butt" transform="translate(292,170)" fill-opacity="1" fill="black" text-rendering="geometricPrecision" font-family="sans-serif" stroke-linejoin="round" stroke="black" font-weight="bold" stroke-opacity="1" stroke-miterlimit="0">
      <rect fill="none" x="0" width="140" height="100" y="0" clip-path="url(#clipPath4)"/>
      <line y2="14" fill="none" x1="0" clip-path="url(#clipPath4)" x2="140" y1="14"/>
    </g>
    <g font-size="11" transform="translate(292,170)" fill-opacity="1" fill="black" text-rendering="geometricPrecision" font-family="sans-serif" font-style="italic" stroke="black" font-weight="bold" stroke-opacity="1">
      <text x="34" xml:space="preserve" y="11" clip-path="url(#clipPath6)" stroke="none">Component</text>
    </g>
    <g font-size="11" transform="translate(152,40)" fill-opacity="1" fill="rgb(122,207,245)" text-rendering="geometricPrecision" font-family="sans-serif" stroke="rgb(122,207,245)" font-weight="bold" stroke-opacity="1">
      <rect x="0" width="80" height="40" y="0" clip-path="url(#clipPath1)" stroke="none"/>
    </g>
    <g font-size="11" stroke-linecap="butt" transform="translate(152,40)" fill-opacity="1" fill="black" text-rendering="geometricPrecision" font-family="sans-serif" stroke-linejoin="round" stroke="black" font-weight="bold" stroke-opacity="1" stroke-miterlimit="0">
      <rect fill="none" x="0" width="80" height="40" y="0" clip-path="url(#clipPath1)"/>
      <line y2="14" fill="none" x1="0" clip-path="url(#clipPath1)" x2="80" y1="14"/>
    </g>
    <g font-size="11" transform="translate(152,40)" fill-opacity="1" fill="black" text-rendering="geometricPrecision" font-family="sans-serif" stroke="black" font-weight="bold" stroke-opacity="1">
      <text x="27" xml:space="preserve" y="11" clip-path="url(#clipPath3)" stroke="none">Link</text>
    </g>
    <g font-size="11" transform="translate(2,130)" fill-opacity="1" fill="rgb(122,207,245)" text-rendering="geometricPrecision" font-family="sans-serif" stroke="rgb(122,207,245)" font-weight="bold" stroke-opacity="1">
      <rect x="0" width="80" height="150" y="0" clip-path="url(#clipPath7)" stroke="none"/>
    </g>
    <g font-size="11" stroke-linecap="butt" transform="translate(2,130)" fill-opacity="1" fill="black" text-rendering="geometricPrecision" font-family="sans-serif" stroke-linejoin="round" stroke="black" font-weight="bold" stroke-opacity="1" stroke-miterlimit="0">
      <rect fill="none" x="0" width="80" height="150" y="0" clip-path="url(#clipPath7)"/>
      <line y2="14" fill="none" x1="0" clip-path="url(#clipPath7)" x2="80" y1="14"/>
    </g>
    <g font-size="11" transform="translate(2,130)" fill-opacity="1" fill="black" text-rendering="geometricPrecision" font-family="sans-serif" stroke="black" font-weight="bold" stroke-opacity="1">
      <text x="26" xml:space="preserve" y="11" clip-path="url(#clipPath3)" stroke="none">Port</text>
    </g>
    <g font-size="11" transform="translate(2,370)" fill-opacity="1" fill="rgb(122,207,245)" text-rendering="geometricPrecision" font-family="sans-serif" stroke="rgb(122,207,245)" font-weight="bold" stroke-opacity="1">
      <rect x="0" width="80" height="40" y="0" clip-path="url(#clipPath1)" stroke="none"/>
    </g>
    <g font-size="11" stroke-linecap="butt" transform="translate(2,370)" fill-opacity="1" fill="black" text-rendering="geometricPrecision" font-family="sans-serif" stroke-linejoin="round" stroke="black" font-weight="bold" stroke-opacity="1" stroke-miterlimit="0">
      <rect fill="none" x="0" width="80" height="40" y="0" clip-path="url(#clipPath1)"/>
      <line y2="14" fill="none" x1="0" clip-path="url(#clipPath1)" x2="80" y1="14"/>
    </g>
    <g font-size="11" transform="translate(2,370)" fill-opacity="1" fill="black" text-rendering="geometricPrecision" font-family="sans-serif" stroke="black" font-weight="bold" stroke-opacity="1">
      <text x="6" xml:space="preserve" y="11" clip-path="url(#clipPath3)" stroke="none">Parameter</text>
    </g>
    <g font-size="11" transform="translate(562,180)" fill-opacity="1" fill="rgb(122,207,245)" text-rendering="geometricPrecision" font-family="sans-serif" stroke="rgb(122,207,245)" font-weight="bold" stroke-opacity="1">
      <rect x="0" width="150" height="40" y="0" clip-path="url(#clipPath9)" stroke="none"/>
    </g>
    <g font-size="11" stroke-linecap="butt" transform="translate(562,180)" fill-opacity="1" fill="black" text-rendering="geometricPrecision" font-family="sans-serif" stroke-linejoin="round" stroke="black" font-weight="bold" stroke-opacity="1" stroke-miterlimit="0">
      <rect fill="none" x="0" width="150" height="40" y="0" clip-path="url(#clipPath9)"/>
      <line y2="14" fill="none" x1="0" clip-path="url(#clipPath9)" x2="150" y1="14"/>
    </g>
    <g font-size="11" transform="translate(562,180)" fill-opacity="1" fill="black" text-rendering="geometricPrecision" font-family="sans-serif" stroke="black" font-weight="bold" stroke-opacity="1">
      <text x="6" xml:space="preserve" y="11" clip-path="url(#clipPath11)" stroke="none">CompoundComponent</text>
    </g>
    <g font-size="11" transform="translate(162,370)" fill-opacity="1" fill="rgb(122,207,245)" text-rendering="geometricPrecision" font-family="sans-serif" stroke="rgb(122,207,245)" font-weight="bold" stroke-opacity="1">
      <rect x="0" width="80" height="40" y="0" clip-path="url(#clipPath1)" stroke="none"/>
    </g>
    <g font-size="11" stroke-linecap="butt" transform="translate(162,370)" fill-opacity="1" fill="black" text-rendering="geometricPrecision" font-family="sans-serif" stroke-linejoin="round" stroke="black" font-weight="bold" stroke-opacity="1" stroke-miterlimit="0">
      <rect fill="none" x="0" width="80" height="40" y="0" clip-path="url(#clipPath1)"/>
      <line y2="14" fill="none" x1="0" clip-path="url(#clipPath1)" x2="80" y1="14"/>
    </g>
    <g font-size="11" transform="translate(162,370)" fill-opacity="1" fill="black" text-rendering="geometricPrecision" font-family="sans-serif" font-style="italic" stroke="black" font-weight="bold" stroke-opacity="1">
      <text x="8" xml:space="preserve" y="11" clip-path="url(#clipPath3)" stroke="none">Generator</text>
    </g>
    <g font-size="11" transform="translate(262,370)" fill-opacity="1" fill="rgb(122,207,245)" text-rendering="geometricPrecision" font-family="sans-serif" stroke="rgb(122,207,245)" font-weight="bold" stroke-opacity="1">
      <rect x="0" width="80" height="40" y="0" clip-path="url(#clipPath1)" stroke="none"/>
    </g>
    <g font-size="11" stroke-linecap="butt" transform="translate(262,370)" fill-opacity="1" fill="black" text-rendering="geometricPrecision" font-family="sans-serif" stroke-linejoin="round" stroke="black" font-weight="bold" stroke-opacity="1" stroke-miterlimit="0">
      <rect fill="none" x="0" width="80" height="40" y="0" clip-path="url(#clipPath1)"/>
      <line y2="14" fill="none" x1="0" clip-path="url(#clipPath1)" x2="80" y1="14"/>
    </g>
    <g font-size="11" transform="translate(262,370)" fill-opacity="1" fill="black" text-rendering="geometricPrecision" font-family="sans-serif" stroke="black" font-weight="bold" stroke-opacity="1">
      <text x="22" xml:space="preserve" y="11" clip-path="url(#clipPath3)" stroke="none">Filter</text>
    </g>
    <g font-size="11" transform="translate(362,370)" fill-opacity="1" fill="rgb(122,207,245)" text-rendering="geometricPrecision" font-family="sans-serif" stroke="rgb(122,207,245)" font-weight="bold" stroke-opacity="1">
      <rect x="0" width="80" height="40" y="0" clip-path="url(#clipPath1)" stroke="none"/>
    </g>
    <g font-size="11" stroke-linecap="butt" transform="translate(362,370)" fill-opacity="1" fill="black" text-rendering="geometricPrecision" font-family="sans-serif" stroke-linejoin="round" stroke="black" font-weight="bold" stroke-opacity="1" stroke-miterlimit="0">
      <rect fill="none" x="0" width="80" height="40" y="0" clip-path="url(#clipPath1)"/>
      <line y2="14" fill="none" x1="0" clip-path="url(#clipPath1)" x2="80" y1="14"/>
    </g>
    <g font-size="11" transform="translate(362,370)" fill-opacity="1" fill="black" text-rendering="geometricPrecision" font-family="sans-serif" stroke="black" font-weight="bold" stroke-opacity="1">
      <text x="6" xml:space="preserve" y="11" clip-path="url(#clipPath3)" stroke="none">Arithmetic</text>
    </g>
    <g font-size="11" transform="translate(462,370)" fill-opacity="1" fill="rgb(122,207,245)" text-rendering="geometricPrecision" font-family="sans-serif" stroke="rgb(122,207,245)" font-weight="bold" stroke-opacity="1">
      <rect x="0" width="80" height="40" y="0" clip-path="url(#clipPath1)" stroke="none"/>
    </g>
    <g font-size="11" stroke-linecap="butt" transform="translate(462,370)" fill-opacity="1" fill="black" text-rendering="geometricPrecision" font-family="sans-serif" stroke-linejoin="round" stroke="black" font-weight="bold" stroke-opacity="1" stroke-miterlimit="0">
      <rect fill="none" x="0" width="80" height="40" y="0" clip-path="url(#clipPath1)"/>
      <line y2="14" fill="none" x1="0" clip-path="url(#clipPath1)" x2="80" y1="14"/>
    </g>
    <g font-size="11" transform="translate(462,370)" fill-opacity="1" fill="black" text-rendering="geometricPrecision" font-family="sans-serif" stroke="black" font-weight="bold" stroke-opacity="1">
      <text x="22" xml:space="preserve" y="11" clip-path="url(#clipPath3)" stroke="none">Mixer</text>
    </g>
    <g font-size="11" transform="translate(562,370)" fill-opacity="1" fill="rgb(122,207,245)" text-rendering="geometricPrecision" font-family="sans-serif" stroke="rgb(122,207,245)" font-weight="bold" stroke-opacity="1">
      <rect x="0" width="80" height="40" y="0" clip-path="url(#clipPath1)" stroke="none"/>
    </g>
    <g font-size="11" stroke-linecap="butt" transform="translate(562,370)" fill-opacity="1" fill="black" text-rendering="geometricPrecision" font-family="sans-serif" stroke-linejoin="round" stroke="black" font-weight="bold" stroke-opacity="1" stroke-miterlimit="0">
      <rect fill="none" x="0" width="80" height="40" y="0" clip-path="url(#clipPath1)"/>
      <line y2="14" fill="none" x1="0" clip-path="url(#clipPath1)" x2="80" y1="14"/>
    </g>
    <g font-size="11" transform="translate(562,370)" fill-opacity="1" fill="black" text-rendering="geometricPrecision" font-family="sans-serif" stroke="black" font-weight="bold" stroke-opacity="1">
      <text x="26" xml:space="preserve" y="11" clip-path="url(#clipPath3)" stroke="none">Sink</text>
    </g>
    <g font-size="11" transform="translate(662,370)" fill-opacity="1" fill="rgb(122,207,245)" text-rendering="geometricPrecision" font-family="sans-serif" stroke="rgb(122,207,245)" font-weight="bold" stroke-opacity="1">
      <rect x="0" width="80" height="40" y="0" clip-path="url(#clipPath1)" stroke="none"/>
    </g>
    <g font-size="11" stroke-linecap="butt" transform="translate(662,370)" fill-opacity="1" fill="black" text-rendering="geometricPrecision" font-family="sans-serif" stroke-linejoin="round" stroke="black" font-weight="bold" stroke-opacity="1" stroke-miterlimit="0">
      <rect fill="none" x="0" width="80" height="40" y="0" clip-path="url(#clipPath1)"/>
      <line y2="14" fill="none" x1="0" clip-path="url(#clipPath1)" x2="80" y1="14"/>
    </g>
    <g font-size="11" transform="translate(662,370)" fill-opacity="1" fill="black" text-rendering="geometricPrecision" font-family="sans-serif" stroke="black" font-weight="bold" stroke-opacity="1">
      <text x="18" xml:space="preserve" y="11" clip-path="url(#clipPath3)" stroke="none">Source</text>
    </g>
    <g font-size="11" transform="translate(122,460)" fill-opacity="1" fill="rgb(122,207,245)" text-rendering="geometricPrecision" font-family="sans-serif" stroke="rgb(122,207,245)" font-weight="bold" stroke-opacity="1">
      <rect x="0" width="80" height="40" y="0" clip-path="url(#clipPath1)" stroke="none"/>
    </g>
    <g font-size="11" stroke-linecap="butt" transform="translate(122,460)" fill-opacity="1" fill="black" text-rendering="geometricPrecision" font-family="sans-serif" stroke-linejoin="round" stroke="black" font-weight="bold" stroke-opacity="1" stroke-miterlimit="0">
      <rect fill="none" x="0" width="80" height="40" y="0" clip-path="url(#clipPath1)"/>
      <line y2="14" fill="none" x1="0" clip-path="url(#clipPath1)" x2="80" y1="14"/>
    </g>
    <g font-size="11" transform="translate(122,460)" fill-opacity="1" fill="black" text-rendering="geometricPrecision" font-family="sans-serif" stroke="black" font-weight="bold" stroke-opacity="1">
      <text x="30" xml:space="preserve" y="11" clip-path="url(#clipPath3)" stroke="none">Sin</text>
    </g>
    <g font-size="11" transform="translate(212,460)" fill-opacity="1" fill="rgb(122,207,245)" text-rendering="geometricPrecision" font-family="sans-serif" stroke="rgb(122,207,245)" font-weight="bold" stroke-opacity="1">
      <rect x="0" width="80" height="40" y="0" clip-path="url(#clipPath1)" stroke="none"/>
    </g>
    <g font-size="11" stroke-linecap="butt" transform="translate(212,460)" fill-opacity="1" fill="black" text-rendering="geometricPrecision" font-family="sans-serif" stroke-linejoin="round" stroke="black" font-weight="bold" stroke-opacity="1" stroke-miterlimit="0">
      <rect fill="none" x="0" width="80" height="40" y="0" clip-path="url(#clipPath1)"/>
      <line y2="14" fill="none" x1="0" clip-path="url(#clipPath1)" x2="80" y1="14"/>
    </g>
    <g font-size="11" transform="translate(212,460)" fill-opacity="1" fill="black" text-rendering="geometricPrecision" font-family="sans-serif" stroke="black" font-weight="bold" stroke-opacity="1">
      <text x="10" xml:space="preserve" y="11" clip-path="url(#clipPath3)" stroke="none">Sawtooth</text>
    </g>
    <g font-size="11" transform="translate(302,460)" fill-opacity="1" fill="rgb(122,207,245)" text-rendering="geometricPrecision" font-family="sans-serif" stroke="rgb(122,207,245)" font-weight="bold" stroke-opacity="1">
      <rect x="0" width="80" height="40" y="0" clip-path="url(#clipPath1)" stroke="none"/>
    </g>
    <g font-size="11" stroke-linecap="butt" transform="translate(302,460)" fill-opacity="1" fill="black" text-rendering="geometricPrecision" font-family="sans-serif" stroke-linejoin="round" stroke="black" font-weight="bold" stroke-opacity="1" stroke-miterlimit="0">
      <rect fill="none" x="0" width="80" height="40" y="0" clip-path="url(#clipPath1)"/>
      <line y2="14" fill="none" x1="0" clip-path="url(#clipPath1)" x2="80" y1="14"/>
    </g>
    <g font-size="11" transform="translate(302,460)" fill-opacity="1" fill="black" text-rendering="geometricPrecision" font-family="sans-serif" stroke="black" font-weight="bold" stroke-opacity="1">
      <text x="21" xml:space="preserve" y="11" clip-path="url(#clipPath3)" stroke="none">Ramp</text>
    </g>
    <g font-size="11" transform="translate(662,460)" fill-opacity="1" fill="rgb(122,207,245)" text-rendering="geometricPrecision" font-family="sans-serif" stroke="rgb(122,207,245)" font-weight="bold" stroke-opacity="1">
      <rect x="0" width="80" height="40" y="0" clip-path="url(#clipPath1)" stroke="none"/>
    </g>
    <g font-size="11" stroke-linecap="butt" transform="translate(662,460)" fill-opacity="1" fill="black" text-rendering="geometricPrecision" font-family="sans-serif" stroke-linejoin="round" stroke="black" font-weight="bold" stroke-opacity="1" stroke-miterlimit="0">
      <rect fill="none" x="0" width="80" height="40" y="0" clip-path="url(#clipPath1)"/>
      <line y2="14" fill="none" x1="0" clip-path="url(#clipPath1)" x2="80" y1="14"/>
    </g>
    <g font-size="11" transform="translate(662,460)" fill-opacity="1" fill="black" text-rendering="geometricPrecision" font-family="sans-serif" stroke="black" font-weight="bold" stroke-opacity="1">
      <text x="12" xml:space="preserve" y="11" clip-path="url(#clipPath3)" stroke="none">Constant</text>
    </g>
    <g font-size="11" transform="translate(92,300)" fill-opacity="1" fill="rgb(122,207,245)" text-rendering="geometricPrecision" font-family="sans-serif" stroke="rgb(122,207,245)" font-weight="bold" stroke-opacity="1">
      <rect x="0" width="80" height="40" y="0" clip-path="url(#clipPath1)" stroke="none"/>
    </g>
    <g font-size="11" stroke-linecap="butt" transform="translate(92,300)" fill-opacity="1" fill="black" text-rendering="geometricPrecision" font-family="sans-serif" stroke-linejoin="round" stroke="black" font-weight="bold" stroke-opacity="1" stroke-miterlimit="0">
      <rect fill="none" x="0" width="80" height="40" y="0" clip-path="url(#clipPath1)"/>
      <line y2="14" fill="none" x1="0" clip-path="url(#clipPath1)" x2="80" y1="14"/>
    </g>
    <g font-size="11" transform="translate(92,300)" fill-opacity="1" fill="black" text-rendering="geometricPrecision" font-family="sans-serif" stroke="black" font-weight="bold" stroke-opacity="1">
      <text x="7" xml:space="preserve" y="11" clip-path="url(#clipPath3)" stroke="none">Waveform</text>
    </g>
    <g font-size="11" transform="translate(2,300)" fill-opacity="1" fill="rgb(122,207,245)" text-rendering="geometricPrecision" font-family="sans-serif" stroke="rgb(122,207,245)" font-weight="bold" stroke-opacity="1">
      <rect x="0" width="80" height="40" y="0" clip-path="url(#clipPath1)" stroke="none"/>
    </g>
    <g font-size="11" stroke-linecap="butt" transform="translate(2,300)" fill-opacity="1" fill="black" text-rendering="geometricPrecision" font-family="sans-serif" stroke-linejoin="round" stroke="black" font-weight="bold" stroke-opacity="1" stroke-miterlimit="0">
      <rect fill="none" x="0" width="80" height="40" y="0" clip-path="url(#clipPath1)"/>
      <line y2="14" fill="none" x1="0" clip-path="url(#clipPath1)" x2="80" y1="14"/>
    </g>
    <g font-size="11" transform="translate(2,300)" fill-opacity="1" fill="black" text-rendering="geometricPrecision" font-family="sans-serif" stroke="black" font-weight="bold" stroke-opacity="1">
      <text x="14" xml:space="preserve" y="11" clip-path="url(#clipPath3)" stroke="none">Numeric</text>
    </g>
    <g font-size="11" transform="translate(363,153)" fill-opacity="1" fill="black" text-rendering="geometricPrecision" font-family="sans-serif" stroke="black" stroke-opacity="1">
      <text x="9" xml:space="preserve" y="11" clip-path="url(#clipPath13)" stroke="none">0..*</text>
    </g>
    <g font-size="11" transform="translate(82,230)" fill-opacity="1" fill="black" text-rendering="geometricPrecision" font-family="sans-serif" stroke="black" stroke-opacity="1">
      <text x="10" xml:space="preserve" y="11" clip-path="url(#clipPath15)" stroke="none">input</text>
    </g>
    <g font-size="11" transform="translate(82,200)" fill-opacity="1" fill="black" text-rendering="geometricPrecision" font-family="sans-serif" stroke="black" stroke-opacity="1">
      <text x="9" xml:space="preserve" y="11" clip-path="url(#clipPath17)" stroke="none">0..*</text>
    </g>
    <g font-size="11" transform="translate(82,260)" fill-opacity="1" fill="black" text-rendering="geometricPrecision" font-family="sans-serif" stroke="black" stroke-opacity="1">
      <text x="10" xml:space="preserve" y="11" clip-path="url(#clipPath19)" stroke="none">output</text>
    </g>
    <g font-size="11" transform="translate(82,240)" fill-opacity="1" fill="black" text-rendering="geometricPrecision" font-family="sans-serif" stroke="black" stroke-opacity="1">
      <text x="9" xml:space="preserve" y="11" clip-path="url(#clipPath17)" stroke="none">0..*</text>
    </g>
    <g font-size="11" transform="translate(82,130)" fill-opacity="1" fill="black" text-rendering="geometricPrecision" font-family="sans-serif" stroke="black" stroke-opacity="1">
      <text x="9" xml:space="preserve" y="11" clip-path="url(#clipPath21)" stroke="none">source</text>
    </g>
    <g font-size="11" transform="translate(82,110)" fill-opacity="1" fill="black" text-rendering="geometricPrecision" font-family="sans-serif" stroke="black" stroke-opacity="1">
      <text x="10" xml:space="preserve" y="11" clip-path="url(#clipPath23)" stroke="none">1</text>
    </g>
    <g font-size="11" transform="translate(82,160)" fill-opacity="1" fill="black" text-rendering="geometricPrecision" font-family="sans-serif" stroke="black" stroke-opacity="1">
      <text x="10" xml:space="preserve" y="11" clip-path="url(#clipPath25)" stroke="none">target</text>
    </g>
    <g font-size="11" transform="translate(82,140)" fill-opacity="1" fill="black" text-rendering="geometricPrecision" font-family="sans-serif" stroke="black" stroke-opacity="1">
      <text x="10" xml:space="preserve" y="11" clip-path="url(#clipPath23)" stroke="none">1</text>
    </g>
    <g font-size="11" stroke-linecap="butt" transform="translate(33,-30)" fill-opacity="1" fill="black" text-rendering="geometricPrecision" font-family="sans-serif" stroke-linejoin="round" stroke="black" stroke-opacity="1">
      <line y2="50" fill="none" x1="50" clip-path="url(#clipPath26)" x2="309" y1="50"/>
      <line y2="199" fill="none" x1="309" clip-path="url(#clipPath26)" x2="309" y1="50"/>
      <polygon fill="white" clip-path="url(#clipPath26)" points=" 50 50 62 56 62 44" stroke="none"/>
      <polygon fill="none" points=" 50 50 62 56 62 44" clip-path="url(#clipPath26)"/>
    </g>
    <g font-size="11" stroke-linecap="butt" transform="translate(33,-10)" fill-opacity="1" fill="black" text-rendering="geometricPrecision" font-family="sans-serif" stroke-linejoin="round" stroke="black" stroke-opacity="1">
      <line y2="50" fill="none" x1="50" clip-path="url(#clipPath27)" x2="118" y1="50"/>
      <polygon fill="white" clip-path="url(#clipPath27)" points=" 50 50 62 56 62 44" stroke="none"/>
      <polygon fill="none" points=" 50 50 62 56 62 44" clip-path="url(#clipPath27)"/>
    </g>
    <g font-size="11" stroke-linecap="butt" transform="translate(-8,-9)" fill-opacity="1" fill="black" text-rendering="geometricPrecision" font-family="sans-serif" stroke-linejoin="round" stroke="black" stroke-opacity="1">
      <line y2="138" fill="none" x1="50" clip-path="url(#clipPath28)" x2="50" y1="50"/>
      <polygon fill="white" clip-path="url(#clipPath28)" points=" 50 50 44 62 56 62" stroke="none"/>
      <polygon fill="none" points=" 50 50 44 62 56 62" clip-path="url(#clipPath28)"/>
    </g>
    <g font-size="11" stroke-linecap="butt" transform="translate(383,150)" fill-opacity="1" fill="black" text-rendering="geometricPrecision" font-family="sans-serif" stroke-linejoin="round" stroke="black" stroke-opacity="1">
      <line y2="50" fill="none" x1="50" clip-path="url(#clipPath29)" x2="178" y1="50"/>
      <polygon fill="white" clip-path="url(#clipPath29)" points=" 50 50 62 56 62 44" stroke="none"/>
      <polygon fill="none" points=" 50 50 62 56 62 44" clip-path="url(#clipPath29)"/>
    </g>
    <g font-size="11" stroke-linecap="butt" transform="translate(182,221)" fill-opacity="1" fill="black" text-rendering="geometricPrecision" font-family="sans-serif" stroke-linejoin="round" stroke="black" stroke-opacity="1">
      <line y2="109" fill="none" x1="110" clip-path="url(#clipPath30)" x2="110" y1="50"/>
      <line y2="109" fill="none" x1="110" clip-path="url(#clipPath30)" x2="50" y1="109"/>
      <line y2="148" fill="none" x1="50" clip-path="url(#clipPath30)" x2="50" y1="109"/>
      <polygon fill="white" clip-path="url(#clipPath30)" points=" 110 50 104 62 116 62" stroke="none"/>
      <polygon fill="none" points=" 110 50 104 62 116 62" clip-path="url(#clipPath30)"/>
    </g>
    <g font-size="11" stroke-linecap="butt" transform="translate(272,221)" fill-opacity="1" fill="black" text-rendering="geometricPrecision" font-family="sans-serif" stroke-linejoin="round" stroke="black" stroke-opacity="1">
      <line y2="149" fill="none" x1="50" clip-path="url(#clipPath31)" x2="50" y1="50"/>
      <polygon fill="white" clip-path="url(#clipPath31)" points=" 50 50 44 62 56 62" stroke="none"/>
      <polygon fill="none" points=" 50 50 44 62 56 62" clip-path="url(#clipPath31)"/>
    </g>
    <g font-size="11" stroke-linecap="butt" transform="translate(312,221)" fill-opacity="1" fill="black" text-rendering="geometricPrecision" font-family="sans-serif" stroke-linejoin="round" stroke="black" stroke-opacity="1">
      <line y2="148" fill="none" x1="50" clip-path="url(#clipPath32)" x2="50" y1="50"/>
      <polygon fill="white" clip-path="url(#clipPath32)" points=" 50 50 44 62 56 62" stroke="none"/>
      <polygon fill="none" points=" 50 50 44 62 56 62" clip-path="url(#clipPath32)"/>
    </g>
    <g font-size="11" stroke-linecap="butt" transform="translate(372,221)" fill-opacity="1" fill="black" text-rendering="geometricPrecision" font-family="sans-serif" stroke-linejoin="round" stroke="black" stroke-opacity="1">
      <line y2="99" fill="none" x1="50" clip-path="url(#clipPath30)" x2="50" y1="50"/>
      <line y2="99" fill="none" x1="50" clip-path="url(#clipPath30)" x2="110" y1="99"/>
      <line y2="148" fill="none" x1="110" clip-path="url(#clipPath30)" x2="110" y1="99"/>
      <polygon fill="white" clip-path="url(#clipPath30)" points=" 50 50 44 62 56 62" stroke="none"/>
      <polygon fill="none" points=" 50 50 44 62 56 62" clip-path="url(#clipPath30)"/>
    </g>
    <g font-size="11" stroke-linecap="butt" transform="translate(383,220)" fill-opacity="1" fill="black" text-rendering="geometricPrecision" font-family="sans-serif" stroke-linejoin="round" stroke="black" stroke-opacity="1">
      <line y2="50" fill="none" x1="50" clip-path="url(#clipPath33)" x2="219" y1="50"/>
      <line y2="149" fill="none" x1="219" clip-path="url(#clipPath33)" x2="219" y1="50"/>
      <polygon fill="white" clip-path="url(#clipPath33)" points=" 50 50 62 56 62 44" stroke="none"/>
      <polygon fill="none" points=" 50 50 62 56 62 44" clip-path="url(#clipPath33)"/>
    </g>
    <g font-size="11" stroke-linecap="butt" transform="translate(383,210)" fill-opacity="1" fill="black" text-rendering="geometricPrecision" font-family="sans-serif" stroke-linejoin="round" stroke="black" stroke-opacity="1">
      <line y2="50" fill="none" x1="50" clip-path="url(#clipPath34)" x2="299" y1="50"/>
      <line y2="159" fill="none" x1="299" clip-path="url(#clipPath34)" x2="299" y1="50"/>
      <polygon fill="white" clip-path="url(#clipPath34)" points=" 50 50 62 56 62 44" stroke="none"/>
      <polygon fill="none" points=" 50 50 62 56 62 44" clip-path="url(#clipPath34)"/>
    </g>
    <g font-size="11" stroke-linecap="butt" transform="translate(112,361)" fill-opacity="1" fill="black" text-rendering="geometricPrecision" font-family="sans-serif" stroke-linejoin="round" stroke="black" stroke-opacity="1">
      <line y2="98" fill="none" x1="50" clip-path="url(#clipPath35)" x2="50" y1="50"/>
      <polygon fill="white" clip-path="url(#clipPath35)" points=" 50 50 44 62 56 62" stroke="none"/>
      <polygon fill="none" points=" 50 50 44 62 56 62" clip-path="url(#clipPath35)"/>
    </g>
    <g font-size="11" stroke-linecap="butt" transform="translate(192,361)" fill-opacity="1" fill="black" text-rendering="geometricPrecision" font-family="sans-serif" stroke-linejoin="round" stroke="black" stroke-opacity="1">
      <line y2="98" fill="none" x1="50" clip-path="url(#clipPath35)" x2="50" y1="50"/>
      <polygon fill="white" clip-path="url(#clipPath35)" points=" 50 50 44 62 56 62" stroke="none"/>
      <polygon fill="none" points=" 50 50 44 62 56 62" clip-path="url(#clipPath35)"/>
    </g>
    <g font-size="11" stroke-linecap="butt" transform="translate(292,361)" fill-opacity="1" fill="black" text-rendering="geometricPrecision" font-family="sans-serif" stroke-linejoin="round" stroke="black" stroke-opacity="1">
      <line y2="98" fill="none" x1="50" clip-path="url(#clipPath35)" x2="50" y1="50"/>
      <polygon fill="white" clip-path="url(#clipPath35)" points=" 50 50 44 62 56 62" stroke="none"/>
      <polygon fill="none" points=" 50 50 44 62 56 62" clip-path="url(#clipPath35)"/>
    </g>
    <g font-size="11" stroke-linecap="butt" transform="translate(33,170)" fill-opacity="1" fill="black" text-rendering="geometricPrecision" font-family="sans-serif" stroke-linejoin="round" stroke="black" stroke-opacity="1">
      <line y2="50" fill="none" x1="74" clip-path="url(#clipPath36)" x2="258" y1="50"/>
      <polygon fill="none" points=" 50 50 62 56 74 50 62 44" clip-path="url(#clipPath36)"/>
    </g>
    <g font-size="11" stroke-linecap="butt" transform="translate(33,210)" fill-opacity="1" fill="black" text-rendering="geometricPrecision" font-family="sans-serif" stroke-linejoin="round" stroke="black" stroke-opacity="1">
      <line y2="50" fill="none" x1="74" clip-path="url(#clipPath36)" x2="258" y1="50"/>
      <polygon fill="none" points=" 50 50 62 56 74 50 62 44" clip-path="url(#clipPath36)"/>
    </g>
    <g font-size="11" stroke-linecap="butt" transform="translate(33,31)" fill-opacity="1" fill="black" text-rendering="geometricPrecision" font-family="sans-serif" stroke-linejoin="round" stroke="black" stroke-opacity="1">
      <line y2="99" fill="none" x1="169" clip-path="url(#clipPath37)" x2="169" y1="74"/>
      <line y2="99" fill="none" x1="169" clip-path="url(#clipPath37)" x2="50" y1="99"/>
      <polygon fill="none" points=" 169 50 163 62 169 74 175 62" clip-path="url(#clipPath37)"/>
    </g>
    <g font-size="11" stroke-linecap="butt" transform="translate(33,31)" fill-opacity="1" fill="black" text-rendering="geometricPrecision" font-family="sans-serif" stroke-linejoin="round" stroke="black" stroke-opacity="1">
      <line y2="129" fill="none" x1="189" clip-path="url(#clipPath38)" x2="189" y1="74"/>
      <line y2="129" fill="none" x1="189" clip-path="url(#clipPath38)" x2="50" y1="129"/>
      <polygon fill="none" points=" 189 50 183 62 189 74 195 62" clip-path="url(#clipPath38)"/>
    </g>
    <g font-size="11" stroke-linecap="butt" transform="translate(352,40)" fill-opacity="1" fill="black" text-rendering="geometricPrecision" font-family="sans-serif" stroke-linejoin="round" stroke="black" stroke-opacity="1">
      <line y2="50" fill="none" x1="50" clip-path="url(#clipPath39)" x2="50" y1="105"/>
      <line y2="50" fill="none" x1="50" clip-path="url(#clipPath39)" x2="240" y1="50"/>
      <line y2="139" fill="none" x1="240" clip-path="url(#clipPath39)" x2="240" y1="50"/>
      <polygon fill="none" points=" 50 129 56 117 50 105 44 117" clip-path="url(#clipPath39)"/>
    </g>
    <g font-size="11" stroke-linecap="butt" transform="translate(652,361)" fill-opacity="1" fill="black" text-rendering="geometricPrecision" font-family="sans-serif" stroke-linejoin="round" stroke="black" stroke-opacity="1">
      <line y2="98" fill="none" x1="50" clip-path="url(#clipPath35)" x2="50" y1="50"/>
      <polygon fill="white" clip-path="url(#clipPath35)" points=" 50 50 44 62 56 62" stroke="none"/>
      <polygon fill="none" points=" 50 50 44 62 56 62" clip-path="url(#clipPath35)"/>
    </g>
    <g font-size="11" stroke-linecap="butt" transform="translate(32,231)" fill-opacity="1" fill="black" text-rendering="geometricPrecision" font-family="sans-serif" stroke-linejoin="round" stroke="black" stroke-opacity="1">
      <line y2="68" fill="none" x1="50" clip-path="url(#clipPath40)" x2="60" y1="50"/>
      <polygon fill="white" clip-path="url(#clipPath40)" points=" 50 50 50 63 61 57" stroke="none"/>
      <polygon fill="none" points=" 50 50 50 63 61 57" clip-path="url(#clipPath40)"/>
    </g>
    <g font-size="11" stroke-linecap="butt" transform="translate(2,231)" fill-opacity="1" fill="black" text-rendering="geometricPrecision" font-family="sans-serif" stroke-linejoin="round" stroke="black" stroke-opacity="1">
      <line y2="68" fill="none" x1="50" clip-path="url(#clipPath41)" x2="50" y1="50"/>
      <polygon fill="white" clip-path="url(#clipPath41)" points=" 50 50 44 62 56 62" stroke="none"/>
      <polygon fill="none" points=" 50 50 44 62 56 62" clip-path="url(#clipPath41)"/>
    </g>
    <g font-size="10" transform="rotate(-45) translate(-357.4983,0)" fill-opacity="1" fill="rgb(120,120,120)" text-rendering="geometricPrecision" stroke="rgb(120,120,120)" stroke-opacity="1">
      <!--<text>x="0" xml:space="preserve" y="0" stroke="none" Visual Paradigm for UML Community Edition [not for commercial use] </text>-->
      <!--<text>x="354" xml:space="preserve" y="0" stroke="none" Visual Paradigm for UML Community Edition [not for commercial use] </text>-->
      <!--<text>x="708" xml:space="preserve" y="0" stroke="none" Visual Paradigm for UML Community Edition [not for commercial use] </text>-->
      <!--<text>x="100" xml:space="preserve" y="52" stroke="none" Visual Paradigm for UML Community Edition [not for commercial use] </text>-->
      <!--<text>x="454" xml:space="preserve" y="52" stroke="none" Visual Paradigm for UML Community Edition [not for commercial use] </text>-->
      <!--<text>x="808" xml:space="preserve" y="52" stroke="none" Visual Paradigm for UML Community Edition [not for commercial use] </text>-->
      <!--<text>x="0" xml:space="preserve" y="104" stroke="none" Visual Paradigm for UML Community Edition [not for commercial use] </text>-->
      <!--<text>x="354" xml:space="preserve" y="104" stroke="none" Visual Paradigm for UML Community Edition [not for commercial use] </text>-->
      <!--<text>x="708" xml:space="preserve" y="104" stroke="none" Visual Paradigm for UML Community Edition [not for commercial use] </text>-->
      <!--<text>x="100" xml:space="preserve" y="156" stroke="none" Visual Paradigm for UML Community Edition [not for commercial use] </text>-->
      <!--<text>x="454" xml:space="preserve" y="156" stroke="none" Visual Paradigm for UML Community Edition [not for commercial use] </text>-->
      <!--<text>x="808" xml:space="preserve" y="156" stroke="none" Visual Paradigm for UML Community Edition [not for commercial use] </text>-->
      <!--<text>x="0" xml:space="preserve" y="208" stroke="none" Visual Paradigm for UML Community Edition [not for commercial use] </text>-->
      <!--<text>x="354" xml:space="preserve" y="208" stroke="none" Visual Paradigm for UML Community Edition [not for commercial use] </text>-->
      <!--<text>x="708" xml:space="preserve" y="208" stroke="none" Visual Paradigm for UML Community Edition [not for commercial use] </text>-->
      <!--<text>x="100" xml:space="preserve" y="260" stroke="none" Visual Paradigm for UML Community Edition [not for commercial use] </text>-->
      <!--<text>x="454" xml:space="preserve" y="260" stroke="none" Visual Paradigm for UML Community Edition [not for commercial use] </text>-->
      <!--<text>x="808" xml:space="preserve" y="260" stroke="none" Visual Paradigm for UML Community Edition [not for commercial use] </text>-->
      <!--<text>x="0" xml:space="preserve" y="312" stroke="none" Visual Paradigm for UML Community Edition [not for commercial use] </text>-->
      <!--<text>x="354" xml:space="preserve" y="312" stroke="none" Visual Paradigm for UML Community Edition [not for commercial use] </text>-->
      <!--<text>x="708" xml:space="preserve" y="312" stroke="none" Visual Paradigm for UML Community Edition [not for commercial use] </text>-->
      <!--<text>x="100" xml:space="preserve" y="364" stroke="none" Visual Paradigm for UML Community Edition [not for commercial use] </text>-->
      <!--<text>x="454" xml:space="preserve" y="364" stroke="none" Visual Paradigm for UML Community Edition [not for commercial use] </text>-->
      <!--<text>x="808" xml:space="preserve" y="364" stroke="none" Visual Paradigm for UML Community Edition [not for commercial use] </text>-->
      <!--<text>x="0" xml:space="preserve" y="416" stroke="none" Visual Paradigm for UML Community Edition [not for commercial use] </text>-->
      <!--<text>x="354" xml:space="preserve" y="416" stroke="none" Visual Paradigm for UML Community Edition [not for commercial use] </text>-->
      <!--<text>x="708" xml:space="preserve" y="416" stroke="none" Visual Paradigm for UML Community Edition [not for commercial use] </text>-->
      <!--<text>x="100" xml:space="preserve" y="468" stroke="none" Visual Paradigm for UML Community Edition [not for commercial use] </text>-->
      <!--<text>x="454" xml:space="preserve" y="468" stroke="none" Visual Paradigm for UML Community Edition [not for commercial use] </text>-->
      <!--<text>x="808" xml:space="preserve" y="468" stroke="none" Visual Paradigm for UML Community Edition [not for commercial use] </text>-->
      <!--<text>x="0" xml:space="preserve" y="520" stroke="none" Visual Paradigm for UML Community Edition [not for commercial use] </text>-->
      <!--<text>x="354" xml:space="preserve" y="520" stroke="none" Visual Paradigm for UML Community Edition [not for commercial use] </text>-->
      <!--<text>x="708" xml:space="preserve" y="520" stroke="none" Visual Paradigm for UML Community Edition [not for commercial use] </text>-->
      <!--<text>x="100" xml:space="preserve" y="572" stroke="none" Visual Paradigm for UML Community Edition [not for commercial use] </text>-->
      <!--<text>x="454" xml:space="preserve" y="572" stroke="none" Visual Paradigm for UML Community Edition [not for commercial use] </text>-->
      <!--<text>x="808" xml:space="preserve" y="572" stroke="none" Visual Paradigm for UML Community Edition [not for commercial use] </text>-->
      <!--<text>x="0" xml:space="preserve" y="624" stroke="none" Visual Paradigm for UML Community Edition [not for commercial use] </text>-->
      <!--<text>x="354" xml:space="preserve" y="624" stroke="none" Visual Paradigm for UML Community Edition [not for commercial use] </text>-->
      <!--<text>x="708" xml:space="preserve" y="624" stroke="none" Visual Paradigm for UML Community Edition [not for commercial use] </text>-->
      <!--<text>x="100" xml:space="preserve" y="676" stroke="none" Visual Paradigm for UML Community Edition [not for commercial use] </text>-->
      <!--<text>x="454" xml:space="preserve" y="676" stroke="none" Visual Paradigm for UML Community Edition [not for commercial use] </text>-->
      <!--<text>x="808" xml:space="preserve" y="676" stroke="none" Visual Paradigm for UML Community Edition [not for commercial use] </text>-->
      <!--<text>x="0" xml:space="preserve" y="728" stroke="none" Visual Paradigm for UML Community Edition [not for commercial use] </text>-->
      <!--<text>x="354" xml:space="preserve" y="728" stroke="none" Visual Paradigm for UML Community Edition [not for commercial use] </text>-->
      <!--<text>x="708" xml:space="preserve" y="728" stroke="none" Visual Paradigm for UML Community Edition [not for commercial use] </text>-->
      <!--<text>x="100" xml:space="preserve" y="780" stroke="none" Visual Paradigm for UML Community Edition [not for commercial use] </text>-->
      <!--<text>x="454" xml:space="preserve" y="780" stroke="none" Visual Paradigm for UML Community Edition [not for commercial use] </text>-->
      <!--<text>x="808" xml:space="preserve" y="780" stroke="none" Visual Paradigm for UML Community Edition [not for commercial use] </text>-->
      <!--<text>x="0" xml:space="preserve" y="832" stroke="none" Visual Paradigm for UML Community Edition [not for commercial use] </text>-->
      <!--<text>x="354" xml:space="preserve" y="832" stroke="none" Visual Paradigm for UML Community Edition [not for commercial use] </text>-->
      <!--<text>x="708" xml:space="preserve" y="832" stroke="none" Visual Paradigm for UML Community Edition [not for commercial use] </text>-->
    </g>
  </g>
</svg>
