<?xml version="1.0" encoding="utf-8"?>
<!DOCTYPE svg PUBLIC "-//W3C//DTD SVG 1.0//EN' 'http://www.w3.org/TR/2001/REC-SVG-20010904/DTD/svg10.dtd'" "">
<svg xmlns:xlink="http://www.w3.org/1999/xlink" xmlns="http://www.w3.org/2000/svg" fill-opacity="0" color-rendering="auto" color-interpolation="auto" stroke="rgb(0,0,0)" text-rendering="auto" stroke-linecap="square" width="576" stroke-miterlimit="10" stroke-opacity="0" shape-rendering="auto" fill="rgb(0,0,0)" stroke-dasharray="none" font-weight="normal" stroke-width="1" height="256" font-family="'Dialog'" font-style="normal" stroke-linejoin="miter" font-size="12" stroke-dashoffset="0" image-rendering="auto">
  <!--Generated by the Batik Graphics2D SVG Generator-->
  <defs id="genericDefs"/>
  <g>
    <defs id="defs1">
      <clipPath clipPathUnits="userSpaceOnUse" id="clipPath1">
        <path d="M-7 -7 L91 -7 L91 51 L-7 51 L-7 -7 Z"/>
      </clipPath>
      <clipPath clipPathUnits="userSpaceOnUse" id="clipPath2">
        <path d="M0 0 L80 0 L80 14 L0 14 L0 0 Z"/>
      </clipPath>
      <clipPath clipPathUnits="userSpaceOnUse" id="clipPath3">
        <path d="M-7 -7 L23 -7 L23 23 L-7 23 L-7 -7 Z"/>
      </clipPath>
      <clipPath clipPathUnits="userSpaceOnUse" id="clipPath4">
        <path d="M-7 -7 L301 -7 L301 251 L-7 251 L-7 -7 Z"/>
      </clipPath>
      <clipPath clipPathUnits="userSpaceOnUse" id="clipPath5">
        <path d="M0 0 L290 0 L290 14 L0 14 L0 0 Z"/>
      </clipPath>
      <clipPath clipPathUnits="userSpaceOnUse" id="clipPath6">
        <path d="M-7 -7 L221 -7 L221 161 L-7 161 L-7 -7 Z"/>
      </clipPath>
      <clipPath clipPathUnits="userSpaceOnUse" id="clipPath7">
        <path d="M0 0 L0 116 L199 116 L199 0 Z"/>
      </clipPath>
      <clipPath clipPathUnits="userSpaceOnUse" id="clipPath8">
        <path d="M1.4992 1.5 L1.4992 242.2437 L414.4992 242.2437 L414.4992 1.5 Z"/>
      </clipPath>
      <clipPath clipPathUnits="userSpaceOnUse" id="clipPath9">
        <path d="M26 1.5 L26 53 L174 53 L174 1.5 Z"/>
      </clipPath>
      <clipPath clipPathUnits="userSpaceOnUse" id="clipPath10">
        <path d="M0 0 L0 14 L130 14 L130 0 Z"/>
      </clipPath>
      <clipPath clipPathUnits="userSpaceOnUse" id="clipPath11">
        <path d="M26 55 L26 113 L174 113 L174 55 Z"/>
      </clipPath>
      <clipPath clipPathUnits="userSpaceOnUse" id="clipPath12">
        <path d="M0 -0 L0 14 L130 14 L130 -0 Z"/>
      </clipPath>
      <clipPath clipPathUnits="userSpaceOnUse" id="clipPath13">
        <path d="M26 135 L26 223 L384 223 L384 135 Z"/>
      </clipPath>
      <clipPath clipPathUnits="userSpaceOnUse" id="clipPath14">
        <path d="M0 0 L0 14 L340 14 L340 0 Z"/>
      </clipPath>
      <clipPath clipPathUnits="userSpaceOnUse" id="clipPath15">
        <path d="M266 1.5 L266 113 L384 113 L384 1.5 Z"/>
      </clipPath>
      <clipPath clipPathUnits="userSpaceOnUse" id="clipPath16">
        <path d="M-0 0 L-0 14 L100 14 L100 0 Z"/>
      </clipPath>
      <clipPath clipPathUnits="userSpaceOnUse" id="clipPath17">
        <path d="M260 4 L260 34 L290 34 L290 4 Z"/>
      </clipPath>
      <clipPath clipPathUnits="userSpaceOnUse" id="clipPath18">
        <path d="M260 62 L260 92 L290 92 L290 62 Z"/>
      </clipPath>
      <clipPath clipPathUnits="userSpaceOnUse" id="clipPath19">
        <path d="M150 2 L150 32 L180 32 L180 2 Z"/>
      </clipPath>
      <clipPath clipPathUnits="userSpaceOnUse" id="clipPath20">
        <path d="M150 62 L150 92 L180 92 L180 62 Z"/>
      </clipPath>
      <clipPath clipPathUnits="userSpaceOnUse" id="clipPath21">
        <path d="M326 89 L326 119 L356 119 L356 89 Z"/>
      </clipPath>
      <clipPath clipPathUnits="userSpaceOnUse" id="clipPath22">
        <path d="M269 129 L269 159 L299 159 L299 129 Z"/>
      </clipPath>
      <clipPath clipPathUnits="userSpaceOnUse" id="clipPath23">
        <path d="M360 166 L360 196 L390 196 L390 166 Z"/>
      </clipPath>
      <clipPath clipPathUnits="userSpaceOnUse" id="clipPath24">
        <path d="M20 144 L20 174 L50 174 L50 144 Z"/>
      </clipPath>
      <clipPath clipPathUnits="userSpaceOnUse" id="clipPath25">
        <path d="M20 1.5 L20 31 L50 31 L50 1.5 Z"/>
      </clipPath>
      <clipPath clipPathUnits="userSpaceOnUse" id="clipPath26">
        <path d="M20 67 L20 97 L50 97 L50 67 Z"/>
      </clipPath>
      <clipPath clipPathUnits="userSpaceOnUse" id="clipPath27">
        <path d="M-0 0 L-0 14 L38 14 L38 0 Z"/>
      </clipPath>
      <clipPath clipPathUnits="userSpaceOnUse" id="clipPath28">
        <path d="M-0 -0 L-0 14 L30 14 L30 -0 Z"/>
      </clipPath>
      <clipPath clipPathUnits="userSpaceOnUse" id="clipPath29">
        <path d="M-0 -0 L-0 14 L60 14 L60 -0 Z"/>
      </clipPath>
      <clipPath clipPathUnits="userSpaceOnUse" id="clipPath30">
        <path d="M-0 0 L-0 14 L90.4992 14 L90.4992 0 Z"/>
      </clipPath>
      <clipPath clipPathUnits="userSpaceOnUse" id="clipPath31">
        <path d="M0 -0 L0 14 L30 14 L30 -0 Z"/>
      </clipPath>
      <clipPath clipPathUnits="userSpaceOnUse" id="clipPath32">
        <path d="M-0 -0 L-0 14 L58 14 L58 -0 Z"/>
      </clipPath>
      <clipPath clipPathUnits="userSpaceOnUse" id="clipPath33">
        <path d="M-0 -0 L-0 14 L38 14 L38 -0 Z"/>
      </clipPath>
      <clipPath clipPathUnits="userSpaceOnUse" id="clipPath34">
        <path d="M120 1.5 L120 66 L320 66 L320 1.5 Z"/>
      </clipPath>
      <clipPath clipPathUnits="userSpaceOnUse" id="clipPath35">
        <path d="M120 22 L120 126 L320 126 L320 22 Z"/>
      </clipPath>
      <clipPath clipPathUnits="userSpaceOnUse" id="clipPath36">
        <path d="M239 59 L239 189 L386 189 L386 59 Z"/>
      </clipPath>
      <clipPath clipPathUnits="userSpaceOnUse" id="clipPath37">
        <path d="M0 0 L52 0 L52 17 L0 17 L0 0 Z"/>
      </clipPath>
      <clipPath clipPathUnits="userSpaceOnUse" id="clipPath38">
        <path d="M-98 -14 L196 -14 L196 28 L-98 28 L-98 -14 Z"/>
      </clipPath>
      <clipPath clipPathUnits="userSpaceOnUse" id="clipPath39">
        <path d="M-100 -14 L200 -14 L200 28 L-100 28 L-100 -14 Z"/>
      </clipPath>
      <clipPath clipPathUnits="userSpaceOnUse" id="clipPath40">
        <path d="M-78 -14 L156 -14 L156 28 L-78 28 L-78 -14 Z"/>
      </clipPath>
      <clipPath clipPathUnits="userSpaceOnUse" id="clipPath41">
        <path d="M-72 -14 L144 -14 L144 28 L-72 28 L-72 -14 Z"/>
      </clipPath>
      <clipPath clipPathUnits="userSpaceOnUse" id="clipPath42">
        <path d="M0 0 L170 0 L170 104 L0 104 L0 0 Z"/>
      </clipPath>
      <clipPath clipPathUnits="userSpaceOnUse" id="clipPath43">
        <path d="M0 0 L170 0 L170 128 L0 128 L0 0 Z"/>
      </clipPath>
      <clipPath clipPathUnits="userSpaceOnUse" id="clipPath44">
        <path d="M0 0 L132 0 L132 204 L0 204 L0 0 Z"/>
      </clipPath>
    </defs>
    <g fill="white" text-rendering="geometricPrecision" fill-opacity="1" stroke-opacity="1" stroke="white">
      <rect x="0" width="576" height="256" y="0" stroke="none"/>
    </g>
    <g font-size="11" transform="translate(2,2)" fill-opacity="1" fill="rgb(122,207,245)" text-rendering="geometricPrecision" font-family="sans-serif" stroke="rgb(122,207,245)" font-weight="bold" stroke-opacity="1">
      <rect x="0" width="80" height="40" y="0" clip-path="url(#clipPath1)" stroke="none"/>
    </g>
    <g font-size="11" stroke-linecap="butt" transform="translate(2,2)" fill-opacity="1" fill="black" text-rendering="geometricPrecision" font-family="sans-serif" stroke-linejoin="round" stroke="black" font-weight="bold" stroke-opacity="1" stroke-miterlimit="0">
      <rect fill="none" x="0" width="80" height="40" y="0" clip-path="url(#clipPath1)"/>
    </g>
    <g font-size="11" transform="translate(2,16)" fill-opacity="1" fill="black" text-rendering="geometricPrecision" font-family="sans-serif" stroke="black" stroke-opacity="1">
      <text x="20" xml:space="preserve" y="11" clip-path="url(#clipPath2)" stroke="none">Source</text>
    </g>
    <g font-size="11" transform="translate(2,2)" fill-opacity="1" fill="black" text-rendering="geometricPrecision" font-family="sans-serif" stroke="black" font-weight="bold" stroke-opacity="1">
      <text x="25" xml:space="preserve" y="11" clip-path="url(#clipPath2)" stroke="none">Freq</text>
      <line y2="11" fill="none" x1="25" clip-path="url(#clipPath2)" x2="53" y1="11"/>
    </g>
    <g font-size="11" transform="translate(2,52)" fill-opacity="1" fill="rgb(122,207,245)" text-rendering="geometricPrecision" font-family="sans-serif" stroke="rgb(122,207,245)" font-weight="bold" stroke-opacity="1">
      <rect x="0" width="80" height="40" y="0" clip-path="url(#clipPath1)" stroke="none"/>
    </g>
    <g font-size="11" stroke-linecap="butt" transform="translate(2,52)" fill-opacity="1" fill="black" text-rendering="geometricPrecision" font-family="sans-serif" stroke-linejoin="round" stroke="black" font-weight="bold" stroke-opacity="1" stroke-miterlimit="0">
      <rect fill="none" x="0" width="80" height="40" y="0" clip-path="url(#clipPath1)"/>
    </g>
    <g font-size="11" transform="translate(2,66)" fill-opacity="1" fill="black" text-rendering="geometricPrecision" font-family="sans-serif" stroke="black" stroke-opacity="1">
      <text x="20" xml:space="preserve" y="11" clip-path="url(#clipPath2)" stroke="none">Source</text>
    </g>
    <g font-size="11" transform="translate(2,52)" fill-opacity="1" fill="black" text-rendering="geometricPrecision" font-family="sans-serif" stroke="black" font-weight="bold" stroke-opacity="1">
      <text x="25" xml:space="preserve" y="11" clip-path="url(#clipPath2)" stroke="none">Freq</text>
      <line y2="11" fill="none" x1="25" clip-path="url(#clipPath2)" x2="53" y1="11"/>
    </g>
    <g font-size="11" transform="translate(2,142)" fill-opacity="1" fill="rgb(122,207,245)" text-rendering="geometricPrecision" font-family="sans-serif" stroke="rgb(122,207,245)" font-weight="bold" stroke-opacity="1">
      <rect x="0" width="80" height="40" y="0" clip-path="url(#clipPath1)" stroke="none"/>
    </g>
    <g font-size="11" stroke-linecap="butt" transform="translate(2,142)" fill-opacity="1" fill="black" text-rendering="geometricPrecision" font-family="sans-serif" stroke-linejoin="round" stroke="black" font-weight="bold" stroke-opacity="1" stroke-miterlimit="0">
      <rect fill="none" x="0" width="80" height="40" y="0" clip-path="url(#clipPath1)"/>
    </g>
    <g font-size="11" transform="translate(2,156)" fill-opacity="1" fill="black" text-rendering="geometricPrecision" font-family="sans-serif" stroke="black" stroke-opacity="1">
      <text x="20" xml:space="preserve" y="11" clip-path="url(#clipPath2)" stroke="none">Source</text>
    </g>
    <g font-size="11" transform="translate(2,142)" fill-opacity="1" fill="black" text-rendering="geometricPrecision" font-family="sans-serif" stroke="black" font-weight="bold" stroke-opacity="1">
      <text x="24" xml:space="preserve" y="11" clip-path="url(#clipPath2)" stroke="none">Time</text>
      <line y2="11" fill="none" x1="24" clip-path="url(#clipPath2)" x2="54" y1="11"/>
    </g>
    <g font-size="11" transform="translate(76,163)" fill-opacity="1" fill="rgb(122,207,245)" text-rendering="geometricPrecision" font-family="sans-serif" stroke="rgb(122,207,245)" stroke-opacity="1">
      <rect x="0" width="12" height="12" y="0" clip-path="url(#clipPath3)" stroke="none"/>
    </g>
    <g font-size="11" stroke-linecap="butt" transform="translate(76,163)" fill-opacity="1" fill="black" text-rendering="geometricPrecision" font-family="sans-serif" stroke-linejoin="round" stroke="black" stroke-opacity="1" stroke-miterlimit="0">
      <rect fill="none" x="0" width="12" height="12" y="0" clip-path="url(#clipPath3)"/>
    </g>
    <g font-size="11" transform="translate(76,75)" fill-opacity="1" fill="rgb(122,207,245)" text-rendering="geometricPrecision" font-family="sans-serif" stroke="rgb(122,207,245)" stroke-opacity="1">
      <rect x="0" width="12" height="12" y="0" clip-path="url(#clipPath3)" stroke="none"/>
    </g>
    <g font-size="11" stroke-linecap="butt" transform="translate(76,75)" fill-opacity="1" fill="black" text-rendering="geometricPrecision" font-family="sans-serif" stroke-linejoin="round" stroke="black" stroke-opacity="1" stroke-miterlimit="0">
      <rect fill="none" x="0" width="12" height="12" y="0" clip-path="url(#clipPath3)"/>
    </g>
    <g font-size="11" transform="translate(76,22)" fill-opacity="1" fill="rgb(122,207,245)" text-rendering="geometricPrecision" font-family="sans-serif" stroke="rgb(122,207,245)" stroke-opacity="1">
      <rect x="0" width="12" height="12" y="0" clip-path="url(#clipPath3)" stroke="none"/>
    </g>
    <g font-size="11" stroke-linecap="butt" transform="translate(76,22)" fill-opacity="1" fill="black" text-rendering="geometricPrecision" font-family="sans-serif" stroke-linejoin="round" stroke="black" stroke-opacity="1" stroke-miterlimit="0">
      <rect fill="none" x="0" width="12" height="12" y="0" clip-path="url(#clipPath3)"/>
    </g>
    <g font-size="11" transform="translate(162,12)" fill-opacity="1" fill="rgb(122,207,245)" text-rendering="geometricPrecision" font-family="sans-serif" stroke="rgb(122,207,245)" font-weight="bold" stroke-opacity="1">
      <rect x="0" width="290" height="240" y="0" clip-path="url(#clipPath4)" stroke="none"/>
    </g>
    <g font-size="11" stroke-linecap="butt" transform="translate(162,12)" fill-opacity="1" fill="black" text-rendering="geometricPrecision" font-family="sans-serif" stroke-linejoin="round" stroke="black" font-weight="bold" stroke-opacity="1" stroke-miterlimit="0">
      <rect fill="none" x="0" width="290" height="240" y="0" clip-path="url(#clipPath4)"/>
    </g>
    <g font-size="11" transform="translate(162,26)" fill-opacity="1" fill="black" text-rendering="geometricPrecision" font-family="sans-serif" stroke="black" stroke-opacity="1">
      <text x="82" xml:space="preserve" y="11" clip-path="url(#clipPath5)" stroke="none">ComposedComponent</text>
    </g>
    <g font-size="11" transform="translate(162,12)" fill-opacity="1" fill="black" text-rendering="geometricPrecision" font-family="sans-serif" stroke="black" font-weight="bold" stroke-opacity="1">
      <text x="126" xml:space="preserve" y="11" clip-path="url(#clipPath5)" stroke="none">Synth</text>
      <line y2="11" fill="none" x1="126" clip-path="url(#clipPath5)" x2="162" y1="11"/>
    </g>
    <g font-size="11" transform="translate(156,26)" fill-opacity="1" fill="rgb(122,207,245)" text-rendering="geometricPrecision" font-family="sans-serif" stroke="rgb(122,207,245)" stroke-opacity="1">
      <rect x="0" width="12" height="12" y="0" clip-path="url(#clipPath3)" stroke="none"/>
    </g>
    <g font-size="11" stroke-linecap="butt" transform="translate(156,26)" fill-opacity="1" fill="black" text-rendering="geometricPrecision" font-family="sans-serif" stroke-linejoin="round" stroke="black" stroke-opacity="1" stroke-miterlimit="0">
      <rect fill="none" x="0" width="12" height="12" y="0" clip-path="url(#clipPath3)"/>
    </g>
    <g font-size="11" transform="translate(156,79)" fill-opacity="1" fill="rgb(122,207,245)" text-rendering="geometricPrecision" font-family="sans-serif" stroke="rgb(122,207,245)" stroke-opacity="1">
      <rect x="0" width="12" height="12" y="0" clip-path="url(#clipPath3)" stroke="none"/>
    </g>
    <g font-size="11" stroke-linecap="butt" transform="translate(156,79)" fill-opacity="1" fill="black" text-rendering="geometricPrecision" font-family="sans-serif" stroke-linejoin="round" stroke="black" stroke-opacity="1" stroke-miterlimit="0">
      <rect fill="none" x="0" width="12" height="12" y="0" clip-path="url(#clipPath3)"/>
    </g>
    <g font-size="11" transform="translate(156,127)" fill-opacity="1" fill="rgb(122,207,245)" text-rendering="geometricPrecision" font-family="sans-serif" stroke="rgb(122,207,245)" stroke-opacity="1">
      <rect x="0" width="12" height="12" y="0" clip-path="url(#clipPath3)" stroke="none"/>
    </g>
    <g font-size="11" stroke-linecap="butt" transform="translate(156,127)" fill-opacity="1" fill="black" text-rendering="geometricPrecision" font-family="sans-serif" stroke-linejoin="round" stroke="black" stroke-opacity="1" stroke-miterlimit="0">
      <rect fill="none" x="0" width="12" height="12" y="0" clip-path="url(#clipPath3)"/>
    </g>
    <g font-size="11" transform="translate(446,221)" fill-opacity="1" fill="rgb(122,207,245)" text-rendering="geometricPrecision" font-family="sans-serif" stroke="rgb(122,207,245)" stroke-opacity="1">
      <rect x="0" width="12" height="12" y="0" clip-path="url(#clipPath3)" stroke="none"/>
    </g>
    <g font-size="11" stroke-linecap="butt" transform="translate(446,221)" fill-opacity="1" fill="black" text-rendering="geometricPrecision" font-family="sans-serif" stroke-linejoin="round" stroke="black" stroke-opacity="1" stroke-miterlimit="0">
      <rect fill="none" x="0" width="12" height="12" y="0" clip-path="url(#clipPath3)"/>
    </g>
    <g font-size="11" transform="translate(492,92)" fill-opacity="1" fill="rgb(122,207,245)" text-rendering="geometricPrecision" font-family="sans-serif" stroke="rgb(122,207,245)" font-weight="bold" stroke-opacity="1">
      <rect x="0" width="80" height="40" y="0" clip-path="url(#clipPath1)" stroke="none"/>
    </g>
    <g font-size="11" stroke-linecap="butt" transform="translate(492,92)" fill-opacity="1" fill="black" text-rendering="geometricPrecision" font-family="sans-serif" stroke-linejoin="round" stroke="black" font-weight="bold" stroke-opacity="1" stroke-miterlimit="0">
      <rect fill="none" x="0" width="80" height="40" y="0" clip-path="url(#clipPath1)"/>
    </g>
    <g font-size="11" transform="translate(492,106)" fill-opacity="1" fill="black" text-rendering="geometricPrecision" font-family="sans-serif" stroke="black" stroke-opacity="1">
      <text x="27" xml:space="preserve" y="11" clip-path="url(#clipPath2)" stroke="none">Sink</text>
    </g>
    <g font-size="11" transform="translate(492,92)" fill-opacity="1" fill="black" text-rendering="geometricPrecision" font-family="sans-serif" stroke="black" font-weight="bold" stroke-opacity="1">
      <text x="27" xml:space="preserve" y="11" clip-path="url(#clipPath2)" stroke="none">DAC</text>
      <line y2="11" fill="none" x1="27" clip-path="url(#clipPath2)" x2="53" y1="11"/>
    </g>
    <g font-size="11" transform="translate(486,107)" fill-opacity="1" fill="rgb(122,207,245)" text-rendering="geometricPrecision" font-family="sans-serif" stroke="rgb(122,207,245)" stroke-opacity="1">
      <rect x="0" width="12" height="12" y="0" clip-path="url(#clipPath3)" stroke="none"/>
    </g>
    <g font-size="11" stroke-linecap="butt" transform="translate(486,107)" fill-opacity="1" fill="black" text-rendering="geometricPrecision" font-family="sans-serif" stroke-linejoin="round" stroke="black" stroke-opacity="1" stroke-miterlimit="0">
      <rect fill="none" x="0" width="12" height="12" y="0" clip-path="url(#clipPath3)"/>
    </g>
    <g font-size="11" transform="translate(232,52)" fill-opacity="1" fill="rgb(122,207,245)" text-rendering="geometricPrecision" font-family="sans-serif" stroke="rgb(122,207,245)" stroke-opacity="1">
      <rect x="0" width="210" height="150" y="0" clip-path="url(#clipPath6)" stroke="none"/>
    </g>
    <g font-size="11" stroke-linecap="butt" transform="translate(232,52)" fill-opacity="1" fill="black" text-rendering="geometricPrecision" font-family="sans-serif" stroke-linejoin="round" stroke="black" stroke-opacity="1" stroke-miterlimit="0">
      <rect fill="none" x="0" width="210" height="150" y="0" clip-path="url(#clipPath6)"/>
      <path fill="none" d="M52 1 L52 9 L46 17 L1 17" clip-path="url(#clipPath6)"/>
    </g>
    <g font-size="11" transform="translate(241,75) scale(0.4818,0.4818) matrix(1,0,0,1,-1.4992,-1.5)" fill-opacity="1" fill="rgb(122,207,245)" text-rendering="geometricPrecision" image-rendering="optimizeQuality" font-family="sans-serif" stroke="rgb(122,207,245)" stroke-opacity="1">
      <path d="M33 2 L163 2 L163 42 L33 42 L33 2 Z" clip-path="url(#clipPath9)" stroke="none"/>
    </g>
    <g stroke-linecap="butt" font-size="11" transform="translate(241,75) scale(0.4818,0.4818) matrix(1,0,0,1,-1.4992,-1.5)" fill-opacity="1" fill="black" text-rendering="geometricPrecision" image-rendering="optimizeQuality" font-family="sans-serif" stroke-linejoin="round" stroke="black" stroke-opacity="1" stroke-miterlimit="0">
      <path fill="none" d="M33 2 L163 2 L163 42 L33 42 L33 2 Z" clip-path="url(#clipPath9)"/>
    </g>
    <g font-size="11" transform="translate(241,75) scale(0.4818,0.4818) matrix(1,0,0,1,31.5008,0.5)" fill-opacity="1" fill="black" text-rendering="geometricPrecision" image-rendering="optimizeQuality" font-family="sans-serif" stroke="black" stroke-opacity="1">
      <path d="M61.8906 3.25 L61.8906 4.2969 Q61.2656 4 60.7188 3.8594 Q60.1719 3.7188 59.6562 3.7188 Q58.7812 3.7188 58.2969 4.0625 Q57.8125 4.4062 57.8125 5.0312 Q57.8125 5.5625 58.1328 5.8359 Q58.4531 6.1094 59.3438 6.2812 L60 6.4062 Q61.2188 6.6406 61.7969 7.2266 Q62.375 7.8125 62.375 8.7812 Q62.375 9.9531 61.5938 10.5547 Q60.8125 11.1562 59.2969 11.1562 Q58.7344 11.1562 58.0859 11.0234 Q57.4375 10.8906 56.75 10.6406 L56.75 9.5312 Q57.4219 9.9062 58.0547 10.0938 Q58.6875 10.2812 59.2969 10.2812 Q60.2344 10.2812 60.7344 9.9141 Q61.2344 9.5469 61.2344 8.875 Q61.2344 8.2812 60.875 7.9453 Q60.5156 7.6094 59.6875 7.4375 L59.0312 7.3125 Q57.8125 7.0781 57.2656 6.5625 Q56.7188 6.0469 56.7188 5.125 Q56.7188 4.0625 57.4688 3.4453 Q58.2188 2.8281 59.5469 2.8281 Q60.1094 2.8281 60.6953 2.9375 Q61.2812 3.0469 61.8906 3.25 ZM65.0312 4.9844 L66.0312 4.9844 L66.0312 11 L65.0312 11 L65.0312 4.9844 ZM65.0312 2.6406 L66.0312 2.6406 L66.0312 3.8906 L65.0312 3.8906 L65.0312 2.6406 ZM73.0312 7.375 L73.0312 11 L72.0469 11 L72.0469 7.4062 Q72.0469 6.5469 71.7188 6.125 Q71.3906 5.7031 70.7188 5.7031 Q69.9219 5.7031 69.4609 6.2109 Q69 6.7188 69 7.5938 L69 11 L68 11 L68 4.9844 L69 4.9844 L69 5.9219 Q69.3438 5.375 69.8281 5.1094 Q70.3125 4.8438 70.9375 4.8438 Q71.9688 4.8438 72.5 5.4844 Q73.0312 6.125 73.0312 7.375 Z" clip-path="url(#clipPath10)" stroke="none"/>
    </g>
    <g font-size="11" transform="translate(241,75) scale(0.4818,0.4818) matrix(1,0,0,1,-1.4992,-1.5)" fill-opacity="1" fill="rgb(122,207,245)" text-rendering="geometricPrecision" image-rendering="optimizeQuality" font-family="sans-serif" stroke="rgb(122,207,245)" stroke-opacity="1">
      <path d="M33 62 L163 62 L163 102 L33 102 L33 62 Z" clip-path="url(#clipPath11)" stroke="none"/>
    </g>
    <g stroke-linecap="butt" font-size="11" transform="translate(241,75) scale(0.4818,0.4818) matrix(1,0,0,1,-1.4992,-1.5)" fill-opacity="1" fill="black" text-rendering="geometricPrecision" image-rendering="optimizeQuality" font-family="sans-serif" stroke-linejoin="round" stroke="black" stroke-opacity="1" stroke-miterlimit="0">
      <path fill="none" d="M33 62 L163 62 L163 102 L33 102 L33 62 Z" clip-path="url(#clipPath11)"/>
    </g>
    <g font-size="11" transform="translate(241,75) scale(0.4818,0.4818) matrix(1,0,0,1,31.5008,60.5)" fill-opacity="1" fill="black" text-rendering="geometricPrecision" image-rendering="optimizeQuality" font-family="sans-serif" stroke="black" stroke-opacity="1">
      <path d="M44.8906 3.25 L44.8906 4.2969 Q44.2656 4 43.7188 3.8594 Q43.1719 3.7188 42.6562 3.7188 Q41.7812 3.7188 41.2969 4.0625 Q40.8125 4.4062 40.8125 5.0312 Q40.8125 5.5625 41.1328 5.8359 Q41.4531 6.1094 42.3438 6.2812 L43 6.4062 Q44.2188 6.6406 44.7969 7.2266 Q45.375 7.8125 45.375 8.7812 Q45.375 9.9531 44.5938 10.5547 Q43.8125 11.1562 42.2969 11.1562 Q41.7344 11.1562 41.0859 11.0234 Q40.4375 10.8906 39.75 10.6406 L39.75 9.5312 Q40.4219 9.9062 41.0547 10.0938 Q41.6875 10.2812 42.2969 10.2812 Q43.2344 10.2812 43.7344 9.9141 Q44.2344 9.5469 44.2344 8.875 Q44.2344 8.2812 43.875 7.9453 Q43.5156 7.6094 42.6875 7.4375 L42.0312 7.3125 Q40.8125 7.0781 40.2656 6.5625 Q39.7188 6.0469 39.7188 5.125 Q39.7188 4.0625 40.4688 3.4453 Q41.2188 2.8281 42.5469 2.8281 Q43.1094 2.8281 43.6953 2.9375 Q44.2812 3.0469 44.8906 3.25 ZM50.7656 7.9688 Q49.5781 7.9688 49.1172 8.25 Q48.6562 8.5312 48.6562 9.1875 Q48.6562 9.7031 49 10.0156 Q49.3438 10.3281 49.9375 10.3281 Q50.7656 10.3281 51.2578 9.7422 Q51.75 9.1562 51.75 8.2031 L51.75 7.9688 L50.7656 7.9688 ZM52.7344 7.5625 L52.7344 11 L51.75 11 L51.75 10.0938 Q51.4219 10.6406 50.9141 10.8984 Q50.4062 11.1562 49.6719 11.1562 Q48.75 11.1562 48.2031 10.6406 Q47.6562 10.125 47.6562 9.25 Q47.6562 8.2344 48.3359 7.7188 Q49.0156 7.2031 50.375 7.2031 L51.75 7.2031 L51.75 7.1094 Q51.75 6.4219 51.3047 6.0469 Q50.8594 5.6719 50.0469 5.6719 Q49.5312 5.6719 49.0391 5.7969 Q48.5469 5.9219 48.0938 6.1719 L48.0938 5.2656 Q48.6406 5.0469 49.1562 4.9453 Q49.6719 4.8438 50.1406 4.8438 Q51.4531 4.8438 52.0938 5.5156 Q52.7344 6.1875 52.7344 7.5625 ZM54.4688 4.9844 L55.4531 4.9844 L56.6875 9.6719 L57.9219 4.9844 L59.0781 4.9844 L60.3125 9.6719 L61.5469 4.9844 L62.5312 4.9844 L60.9688 11 L59.7969 11 L58.5 6.0625 L57.2031 11 L56.0312 11 L54.4688 4.9844 ZM65.0156 3.2812 L65.0156 4.9844 L67.0469 4.9844 L67.0469 5.75 L65.0156 5.75 L65.0156 9.0156 Q65.0156 9.75 65.2188 9.9609 Q65.4219 10.1719 66.0312 10.1719 L67.0469 10.1719 L67.0469 11 L66.0312 11 Q64.8906 11 64.4531 10.5703 Q64.0156 10.1406 64.0156 9.0156 L64.0156 5.75 L63.2969 5.75 L63.2969 4.9844 L64.0156 4.9844 L64.0156 3.2812 L65.0156 3.2812 ZM70.375 5.6719 Q69.5781 5.6719 69.1172 6.2969 Q68.6562 6.9219 68.6562 8 Q68.6562 9.0781 69.1094 9.6953 Q69.5625 10.3125 70.375 10.3125 Q71.1562 10.3125 71.6172 9.6953 Q72.0781 9.0781 72.0781 8 Q72.0781 6.9219 71.6172 6.2969 Q71.1562 5.6719 70.375 5.6719 ZM70.375 4.8438 Q71.6562 4.8438 72.3906 5.6797 Q73.125 6.5156 73.125 8 Q73.125 9.4688 72.3906 10.3125 Q71.6562 11.1562 70.375 11.1562 Q69.0781 11.1562 68.3438 10.3125 Q67.6094 9.4688 67.6094 8 Q67.6094 6.5156 68.3438 5.6797 Q69.0781 4.8438 70.375 4.8438 ZM77.375 5.6719 Q76.5781 5.6719 76.1172 6.2969 Q75.6562 6.9219 75.6562 8 Q75.6562 9.0781 76.1094 9.6953 Q76.5625 10.3125 77.375 10.3125 Q78.1562 10.3125 78.6172 9.6953 Q79.0781 9.0781 79.0781 8 Q79.0781 6.9219 78.6172 6.2969 Q78.1562 5.6719 77.375 5.6719 ZM77.375 4.8438 Q78.6562 4.8438 79.3906 5.6797 Q80.125 6.5156 80.125 8 Q80.125 9.4688 79.3906 10.3125 Q78.6562 11.1562 77.375 11.1562 Q76.0781 11.1562 75.3438 10.3125 Q74.6094 9.4688 74.6094 8 Q74.6094 6.5156 75.3438 5.6797 Q76.0781 4.8438 77.375 4.8438 ZM83.0156 3.2812 L83.0156 4.9844 L85.0469 4.9844 L85.0469 5.75 L83.0156 5.75 L83.0156 9.0156 Q83.0156 9.75 83.2188 9.9609 Q83.4219 10.1719 84.0312 10.1719 L85.0469 10.1719 L85.0469 11 L84.0312 11 Q82.8906 11 82.4531 10.5703 Q82.0156 10.1406 82.0156 9.0156 L82.0156 5.75 L81.2969 5.75 L81.2969 4.9844 L82.0156 4.9844 L82.0156 3.2812 L83.0156 3.2812 ZM91.0312 7.375 L91.0312 11 L90.0469 11 L90.0469 7.4062 Q90.0469 6.5469 89.7188 6.125 Q89.3906 5.7031 88.7188 5.7031 Q87.9219 5.7031 87.4609 6.2109 Q87 6.7188 87 7.5938 L87 11 L86 11 L86 2.6406 L87 2.6406 L87 5.9219 Q87.3438 5.375 87.8281 5.1094 Q88.3125 4.8438 88.9375 4.8438 Q89.9688 4.8438 90.5 5.4844 Q91.0312 6.125 91.0312 7.375 Z" clip-path="url(#clipPath12)" stroke="none"/>
    </g>
    <g font-size="11" transform="translate(241,75) scale(0.4818,0.4818) matrix(1,0,0,1,-1.4992,-1.5)" fill-opacity="1" fill="rgb(122,207,245)" text-rendering="geometricPrecision" image-rendering="optimizeQuality" font-family="sans-serif" stroke="rgb(122,207,245)" stroke-opacity="1">
      <path d="M33 142 L373 142 L373 212 L33 212 L33 142 Z" clip-path="url(#clipPath13)" stroke="none"/>
    </g>
    <g stroke-linecap="butt" font-size="11" transform="translate(241,75) scale(0.4818,0.4818) matrix(1,0,0,1,-1.4992,-1.5)" fill-opacity="1" fill="black" text-rendering="geometricPrecision" image-rendering="optimizeQuality" font-family="sans-serif" stroke-linejoin="round" stroke="black" stroke-opacity="1" stroke-miterlimit="0">
      <path fill="none" d="M33 142 L373 142 L373 212 L33 212 L33 142 Z" clip-path="url(#clipPath13)"/>
    </g>
    <g font-size="11" transform="translate(241,75) scale(0.4818,0.4818) matrix(1,0,0,1,31.5008,140.5)" fill-opacity="1" fill="black" text-rendering="geometricPrecision" image-rendering="optimizeQuality" font-family="sans-serif" stroke="black" stroke-opacity="1">
      <path d="M158.875 7.2344 Q159.2344 7.3594 159.5625 7.7422 Q159.8906 8.125 160.2188 8.8125 L161.3281 11 L160.1562 11 L159.1406 8.9375 Q158.7344 8.1406 158.3594 7.875 Q157.9844 7.6094 157.3438 7.6094 L156.1719 7.6094 L156.1719 11 L155.0781 11 L155.0781 2.9844 L157.5312 2.9844 Q158.9062 2.9844 159.5781 3.5547 Q160.25 4.125 160.25 5.2969 Q160.25 6.0469 159.8984 6.5469 Q159.5469 7.0469 158.875 7.2344 ZM156.1719 3.875 L156.1719 6.7188 L157.5312 6.7188 Q158.3125 6.7188 158.7109 6.3594 Q159.1094 6 159.1094 5.2969 Q159.1094 4.5938 158.7109 4.2344 Q158.3125 3.875 157.5312 3.875 L156.1719 3.875 ZM164.7656 7.9688 Q163.5781 7.9688 163.1172 8.25 Q162.6562 8.5312 162.6562 9.1875 Q162.6562 9.7031 163 10.0156 Q163.3438 10.3281 163.9375 10.3281 Q164.7656 10.3281 165.2578 9.7422 Q165.75 9.1562 165.75 8.2031 L165.75 7.9688 L164.7656 7.9688 ZM166.7344 7.5625 L166.7344 11 L165.75 11 L165.75 10.0938 Q165.4219 10.6406 164.9141 10.8984 Q164.4062 11.1562 163.6719 11.1562 Q162.75 11.1562 162.2031 10.6406 Q161.6562 10.125 161.6562 9.25 Q161.6562 8.2344 162.3359 7.7188 Q163.0156 7.2031 164.375 7.2031 L165.75 7.2031 L165.75 7.1094 Q165.75 6.4219 165.3047 6.0469 Q164.8594 5.6719 164.0469 5.6719 Q163.5312 5.6719 163.0391 5.7969 Q162.5469 5.9219 162.0938 6.1719 L162.0938 5.2656 Q162.6406 5.0469 163.1562 4.9453 Q163.6719 4.8438 164.1406 4.8438 Q165.4531 4.8438 166.0938 5.5156 Q166.7344 6.1875 166.7344 7.5625 ZM173.7188 6.1406 Q174.0938 5.4688 174.6094 5.1562 Q175.125 4.8438 175.8281 4.8438 Q176.7656 4.8438 177.2734 5.5 Q177.7812 6.1562 177.7812 7.375 L177.7812 11 L176.7812 11 L176.7812 7.4062 Q176.7812 6.5312 176.4766 6.1172 Q176.1719 5.7031 175.5469 5.7031 Q174.7812 5.7031 174.3359 6.2109 Q173.8906 6.7188 173.8906 7.5938 L173.8906 11 L172.8906 11 L172.8906 7.4062 Q172.8906 6.5312 172.5859 6.1172 Q172.2812 5.7031 171.6406 5.7031 Q170.8906 5.7031 170.4453 6.2109 Q170 6.7188 170 7.5938 L170 11 L169 11 L169 4.9844 L170 4.9844 L170 5.9219 Q170.3281 5.3594 170.8047 5.1016 Q171.2812 4.8438 171.9219 4.8438 Q172.5781 4.8438 173.0391 5.1719 Q173.5 5.5 173.7188 6.1406 ZM181 10.0938 L181 13.2812 L180 13.2812 L180 4.9844 L181 4.9844 L181 5.8906 Q181.2969 5.3594 181.7734 5.1016 Q182.25 4.8438 182.9219 4.8438 Q184.0156 4.8438 184.6953 5.7109 Q185.375 6.5781 185.375 8 Q185.375 9.4219 184.6953 10.2891 Q184.0156 11.1562 182.9219 11.1562 Q182.25 11.1562 181.7734 10.8984 Q181.2969 10.6406 181 10.0938 ZM184.3594 8 Q184.3594 6.9062 183.9062 6.2891 Q183.4531 5.6719 182.6719 5.6719 Q181.8906 5.6719 181.4453 6.2891 Q181 6.9062 181 8 Q181 9.0938 181.4453 9.7109 Q181.8906 10.3281 182.6719 10.3281 Q183.4531 10.3281 183.9062 9.7109 Q184.3594 9.0938 184.3594 8 Z" clip-path="url(#clipPath14)" stroke="none"/>
    </g>
    <g font-size="11" transform="translate(241,75) scale(0.4818,0.4818) matrix(1,0,0,1,-1.4992,-1.5)" fill-opacity="1" fill="rgb(122,207,245)" text-rendering="geometricPrecision" image-rendering="optimizeQuality" font-family="sans-serif" stroke="rgb(122,207,245)" stroke-opacity="1">
      <path d="M273 2 L373 2 L373 102 L273 102 L273 2 Z" clip-path="url(#clipPath15)" stroke="none"/>
    </g>
    <g stroke-linecap="butt" font-size="11" transform="translate(241,75) scale(0.4818,0.4818) matrix(1,0,0,1,-1.4992,-1.5)" fill-opacity="1" fill="black" text-rendering="geometricPrecision" image-rendering="optimizeQuality" font-family="sans-serif" stroke-linejoin="round" stroke="black" stroke-opacity="1" stroke-miterlimit="0">
      <path fill="none" d="M273 2 L373 2 L373 102 L273 102 L273 2 Z" clip-path="url(#clipPath15)"/>
    </g>
    <g font-size="11" transform="translate(241,75) scale(0.4818,0.4818) matrix(1,0,0,1,271.5008,0.5)" fill-opacity="1" fill="black" text-rendering="geometricPrecision" image-rendering="optimizeQuality" font-family="sans-serif" stroke="black" stroke-opacity="1">
      <path d="M36.0781 2.9844 L37.7031 2.9844 L39.75 8.4375 L41.7969 2.9844 L43.4219 2.9844 L43.4219 11 L42.3594 11 L42.3594 3.9531 L40.2969 9.4531 L39.2031 9.4531 L37.125 3.9531 L37.125 11 L36.0781 11 L36.0781 2.9844 ZM45.0312 4.9844 L46.0312 4.9844 L46.0312 11 L45.0312 11 L45.0312 4.9844 ZM45.0312 2.6406 L46.0312 2.6406 L46.0312 3.8906 L45.0312 3.8906 L45.0312 2.6406 ZM53.0312 4.9844 L50.8594 7.9062 L53.1562 11 L51.9844 11 L50.2344 8.6406 L48.4844 11 L47.3125 11 L49.6562 7.8594 L47.5156 4.9844 L48.6875 4.9844 L50.2812 7.125 L51.875 4.9844 L53.0312 4.9844 ZM59.1875 7.75 L59.1875 8.2344 L54.6406 8.2344 Q54.7031 9.25 55.25 9.7812 Q55.7969 10.3125 56.7812 10.3125 Q57.3594 10.3125 57.8906 10.1719 Q58.4219 10.0312 58.9531 9.7656 L58.9531 10.6875 Q58.4219 10.9219 57.8594 11.0391 Q57.2969 11.1562 56.7344 11.1562 Q55.2812 11.1562 54.4453 10.3203 Q53.6094 9.4844 53.6094 8.0469 Q53.6094 6.5781 54.4062 5.7109 Q55.2031 4.8438 56.5625 4.8438 Q57.7656 4.8438 58.4766 5.625 Q59.1875 6.4062 59.1875 7.75 ZM58.1875 7.4531 Q58.1875 6.6406 57.7422 6.1562 Q57.2969 5.6719 56.5625 5.6719 Q55.7344 5.6719 55.2422 6.1406 Q54.75 6.6094 54.6719 7.4531 L58.1875 7.4531 ZM64.5156 5.9062 Q64.3594 5.8125 64.1641 5.7656 Q63.9688 5.7188 63.7344 5.7188 Q62.8906 5.7188 62.4453 6.2656 Q62 6.8125 62 7.8281 L62 11 L61 11 L61 4.9844 L62 4.9844 L62 5.9219 Q62.2969 5.375 62.7969 5.1094 Q63.2969 4.8438 64.0156 4.8438 Q64.125 4.8438 64.2422 4.8516 Q64.3594 4.8594 64.5156 4.8906 L64.5156 5.9062 Z" clip-path="url(#clipPath16)" stroke="none"/>
    </g>
    <g font-size="11" transform="translate(241,75) scale(0.4818,0.4818) matrix(1,0,0,1,-1.4992,-1.5)" fill-opacity="1" fill="rgb(122,207,245)" text-rendering="geometricPrecision" image-rendering="optimizeQuality" font-family="sans-serif" stroke="rgb(122,207,245)" stroke-opacity="1">
      <path d="M267 11 L279 11 L279 23 L267 23 L267 11 Z" clip-path="url(#clipPath17)" stroke="none"/>
    </g>
    <g stroke-linecap="butt" font-size="11" transform="translate(241,75) scale(0.4818,0.4818) matrix(1,0,0,1,-1.4992,-1.5)" fill-opacity="1" fill="black" text-rendering="geometricPrecision" image-rendering="optimizeQuality" font-family="sans-serif" stroke-linejoin="round" stroke="black" stroke-opacity="1" stroke-miterlimit="0">
      <path fill="none" d="M267 11 L279 11 L279 23 L267 23 L267 11 Z" clip-path="url(#clipPath17)"/>
    </g>
    <g font-size="11" transform="translate(241,75) scale(0.4818,0.4818) matrix(1,0,0,1,-1.4992,-1.5)" fill-opacity="1" fill="rgb(122,207,245)" text-rendering="geometricPrecision" image-rendering="optimizeQuality" font-family="sans-serif" stroke="rgb(122,207,245)" stroke-opacity="1">
      <path d="M267 69 L279 69 L279 81 L267 81 L267 69 Z" clip-path="url(#clipPath18)" stroke="none"/>
    </g>
    <g stroke-linecap="butt" font-size="11" transform="translate(241,75) scale(0.4818,0.4818) matrix(1,0,0,1,-1.4992,-1.5)" fill-opacity="1" fill="black" text-rendering="geometricPrecision" image-rendering="optimizeQuality" font-family="sans-serif" stroke-linejoin="round" stroke="black" stroke-opacity="1" stroke-miterlimit="0">
      <path fill="none" d="M267 69 L279 69 L279 81 L267 81 L267 69 Z" clip-path="url(#clipPath18)"/>
    </g>
    <g font-size="11" transform="translate(241,75) scale(0.4818,0.4818) matrix(1,0,0,1,-1.4992,-1.5)" fill-opacity="1" fill="rgb(122,207,245)" text-rendering="geometricPrecision" image-rendering="optimizeQuality" font-family="sans-serif" stroke="rgb(122,207,245)" stroke-opacity="1">
      <path d="M157 9 L169 9 L169 21 L157 21 L157 9 Z" clip-path="url(#clipPath19)" stroke="none"/>
    </g>
    <g stroke-linecap="butt" font-size="11" transform="translate(241,75) scale(0.4818,0.4818) matrix(1,0,0,1,-1.4992,-1.5)" fill-opacity="1" fill="black" text-rendering="geometricPrecision" image-rendering="optimizeQuality" font-family="sans-serif" stroke-linejoin="round" stroke="black" stroke-opacity="1" stroke-miterlimit="0">
      <path fill="none" d="M157 9 L169 9 L169 21 L157 21 L157 9 Z" clip-path="url(#clipPath19)"/>
    </g>
    <g font-size="11" transform="translate(241,75) scale(0.4818,0.4818) matrix(1,0,0,1,-1.4992,-1.5)" fill-opacity="1" fill="rgb(122,207,245)" text-rendering="geometricPrecision" image-rendering="optimizeQuality" font-family="sans-serif" stroke="rgb(122,207,245)" stroke-opacity="1">
      <path d="M157 69 L169 69 L169 81 L157 81 L157 69 Z" clip-path="url(#clipPath20)" stroke="none"/>
    </g>
    <g stroke-linecap="butt" font-size="11" transform="translate(241,75) scale(0.4818,0.4818) matrix(1,0,0,1,-1.4992,-1.5)" fill-opacity="1" fill="black" text-rendering="geometricPrecision" image-rendering="optimizeQuality" font-family="sans-serif" stroke-linejoin="round" stroke="black" stroke-opacity="1" stroke-miterlimit="0">
      <path fill="none" d="M157 69 L169 69 L169 81 L157 81 L157 69 Z" clip-path="url(#clipPath20)"/>
    </g>
    <g font-size="11" transform="translate(241,75) scale(0.4818,0.4818) matrix(1,0,0,1,-1.4992,-1.5)" fill-opacity="1" fill="rgb(122,207,245)" text-rendering="geometricPrecision" image-rendering="optimizeQuality" font-family="sans-serif" stroke="rgb(122,207,245)" stroke-opacity="1">
      <path d="M333 96 L345 96 L345 108 L333 108 L333 96 Z" clip-path="url(#clipPath21)" stroke="none"/>
    </g>
    <g stroke-linecap="butt" font-size="11" transform="translate(241,75) scale(0.4818,0.4818) matrix(1,0,0,1,-1.4992,-1.5)" fill-opacity="1" fill="black" text-rendering="geometricPrecision" image-rendering="optimizeQuality" font-family="sans-serif" stroke-linejoin="round" stroke="black" stroke-opacity="1" stroke-miterlimit="0">
      <path fill="none" d="M333 96 L345 96 L345 108 L333 108 L333 96 Z" clip-path="url(#clipPath21)"/>
    </g>
    <g font-size="11" transform="translate(241,75) scale(0.4818,0.4818) matrix(1,0,0,1,-1.4992,-1.5)" fill-opacity="1" fill="rgb(122,207,245)" text-rendering="geometricPrecision" image-rendering="optimizeQuality" font-family="sans-serif" stroke="rgb(122,207,245)" stroke-opacity="1">
      <path d="M276 136 L288 136 L288 148 L276 148 L276 136 Z" clip-path="url(#clipPath22)" stroke="none"/>
    </g>
    <g stroke-linecap="butt" font-size="11" transform="translate(241,75) scale(0.4818,0.4818) matrix(1,0,0,1,-1.4992,-1.5)" fill-opacity="1" fill="black" text-rendering="geometricPrecision" image-rendering="optimizeQuality" font-family="sans-serif" stroke-linejoin="round" stroke="black" stroke-opacity="1" stroke-miterlimit="0">
      <path fill="none" d="M276 136 L288 136 L288 148 L276 148 L276 136 Z" clip-path="url(#clipPath22)"/>
    </g>
    <g font-size="11" transform="translate(241,75) scale(0.4818,0.4818) matrix(1,0,0,1,-1.4992,-1.5)" fill-opacity="1" fill="rgb(122,207,245)" text-rendering="geometricPrecision" image-rendering="optimizeQuality" font-family="sans-serif" stroke="rgb(122,207,245)" stroke-opacity="1">
      <path d="M367 173 L379 173 L379 185 L367 185 L367 173 Z" clip-path="url(#clipPath23)" stroke="none"/>
    </g>
    <g stroke-linecap="butt" font-size="11" transform="translate(241,75) scale(0.4818,0.4818) matrix(1,0,0,1,-1.4992,-1.5)" fill-opacity="1" fill="black" text-rendering="geometricPrecision" image-rendering="optimizeQuality" font-family="sans-serif" stroke-linejoin="round" stroke="black" stroke-opacity="1" stroke-miterlimit="0">
      <path fill="none" d="M367 173 L379 173 L379 185 L367 185 L367 173 Z" clip-path="url(#clipPath23)"/>
    </g>
    <g font-size="11" transform="translate(241,75) scale(0.4818,0.4818) matrix(1,0,0,1,-1.4992,-1.5)" fill-opacity="1" fill="rgb(122,207,245)" text-rendering="geometricPrecision" image-rendering="optimizeQuality" font-family="sans-serif" stroke="rgb(122,207,245)" stroke-opacity="1">
      <path d="M27 151 L39 151 L39 163 L27 163 L27 151 Z" clip-path="url(#clipPath24)" stroke="none"/>
    </g>
    <g stroke-linecap="butt" font-size="11" transform="translate(241,75) scale(0.4818,0.4818) matrix(1,0,0,1,-1.4992,-1.5)" fill-opacity="1" fill="black" text-rendering="geometricPrecision" image-rendering="optimizeQuality" font-family="sans-serif" stroke-linejoin="round" stroke="black" stroke-opacity="1" stroke-miterlimit="0">
      <path fill="none" d="M27 151 L39 151 L39 163 L27 163 L27 151 Z" clip-path="url(#clipPath24)"/>
    </g>
    <g font-size="11" transform="translate(241,75) scale(0.4818,0.4818) matrix(1,0,0,1,-1.4992,-1.5)" fill-opacity="1" fill="rgb(122,207,245)" text-rendering="geometricPrecision" image-rendering="optimizeQuality" font-family="sans-serif" stroke="rgb(122,207,245)" stroke-opacity="1">
      <path d="M27 8 L39 8 L39 20 L27 20 L27 8 Z" clip-path="url(#clipPath25)" stroke="none"/>
    </g>
    <g stroke-linecap="butt" font-size="11" transform="translate(241,75) scale(0.4818,0.4818) matrix(1,0,0,1,-1.4992,-1.5)" fill-opacity="1" fill="black" text-rendering="geometricPrecision" image-rendering="optimizeQuality" font-family="sans-serif" stroke-linejoin="round" stroke="black" stroke-opacity="1" stroke-miterlimit="0">
      <path fill="none" d="M27 8 L39 8 L39 20 L27 20 L27 8 Z" clip-path="url(#clipPath25)"/>
    </g>
    <g font-size="11" transform="translate(241,75) scale(0.4818,0.4818) matrix(1,0,0,1,-1.4992,-1.5)" fill-opacity="1" fill="rgb(122,207,245)" text-rendering="geometricPrecision" image-rendering="optimizeQuality" font-family="sans-serif" stroke="rgb(122,207,245)" stroke-opacity="1">
      <path d="M27 74 L39 74 L39 86 L27 86 L27 74 Z" clip-path="url(#clipPath26)" stroke="none"/>
    </g>
    <g stroke-linecap="butt" font-size="11" transform="translate(241,75) scale(0.4818,0.4818) matrix(1,0,0,1,-1.4992,-1.5)" fill-opacity="1" fill="black" text-rendering="geometricPrecision" image-rendering="optimizeQuality" font-family="sans-serif" stroke-linejoin="round" stroke="black" stroke-opacity="1" stroke-miterlimit="0">
      <path fill="none" d="M27 74 L39 74 L39 86 L27 86 L27 74 Z" clip-path="url(#clipPath26)"/>
    </g>
    <g font-size="11" transform="translate(241,75) scale(0.4818,0.4818) matrix(1,0,0,1,317.5008,108.5)" fill-opacity="1" fill="black" text-rendering="geometricPrecision" image-rendering="optimizeQuality" font-family="sans-serif" stroke="black" stroke-opacity="1">
      <path d="M13.375 5.6719 Q12.5781 5.6719 12.1172 6.2969 Q11.6562 6.9219 11.6562 8 Q11.6562 9.0781 12.1094 9.6953 Q12.5625 10.3125 13.375 10.3125 Q14.1562 10.3125 14.6172 9.6953 Q15.0781 9.0781 15.0781 8 Q15.0781 6.9219 14.6172 6.2969 Q14.1562 5.6719 13.375 5.6719 ZM13.375 4.8438 Q14.6562 4.8438 15.3906 5.6797 Q16.125 6.5156 16.125 8 Q16.125 9.4688 15.3906 10.3125 Q14.6562 11.1562 13.375 11.1562 Q12.0781 11.1562 11.3438 10.3125 Q10.6094 9.4688 10.6094 8 Q10.6094 6.5156 11.3438 5.6797 Q12.0781 4.8438 13.375 4.8438 ZM17.9375 8.625 L17.9375 4.9844 L18.9219 4.9844 L18.9219 8.5938 Q18.9219 9.4375 19.2578 9.8672 Q19.5938 10.2969 20.25 10.2969 Q21.0625 10.2969 21.5234 9.7891 Q21.9844 9.2812 21.9844 8.3906 L21.9844 4.9844 L22.9688 4.9844 L22.9688 11 L21.9844 11 L21.9844 10.0781 Q21.625 10.625 21.1484 10.8906 Q20.6719 11.1562 20.0469 11.1562 Q19.0156 11.1562 18.4766 10.5078 Q17.9375 9.8594 17.9375 8.625 ZM26.0156 3.2812 L26.0156 4.9844 L28.0469 4.9844 L28.0469 5.75 L26.0156 5.75 L26.0156 9.0156 Q26.0156 9.75 26.2188 9.9609 Q26.4219 10.1719 27.0312 10.1719 L28.0469 10.1719 L28.0469 11 L27.0312 11 Q25.8906 11 25.4531 10.5703 Q25.0156 10.1406 25.0156 9.0156 L25.0156 5.75 L24.2969 5.75 L24.2969 4.9844 L25.0156 4.9844 L25.0156 3.2812 L26.0156 3.2812 Z" clip-path="url(#clipPath27)" stroke="none"/>
    </g>
    <g font-size="11" transform="translate(241,75) scale(0.4818,0.4818) matrix(1,0,0,1,255.5008,81.5)" fill-opacity="1" fill="black" text-rendering="geometricPrecision" image-rendering="optimizeQuality" font-family="sans-serif" stroke="black" stroke-opacity="1">
      <path d="M11.0312 4.9844 L12.0312 4.9844 L12.0312 11 L11.0312 11 L11.0312 4.9844 ZM11.0312 2.6406 L12.0312 2.6406 L12.0312 3.8906 L11.0312 3.8906 L11.0312 2.6406 ZM19.0312 7.375 L19.0312 11 L18.0469 11 L18.0469 7.4062 Q18.0469 6.5469 17.7188 6.125 Q17.3906 5.7031 16.7188 5.7031 Q15.9219 5.7031 15.4609 6.2109 Q15 6.7188 15 7.5938 L15 11 L14 11 L14 4.9844 L15 4.9844 L15 5.9219 Q15.3438 5.375 15.8281 5.1094 Q16.3125 4.8438 16.9375 4.8438 Q17.9688 4.8438 18.5 5.4844 Q19.0312 6.125 19.0312 7.375 Z" clip-path="url(#clipPath28)" stroke="none"/>
    </g>
    <g font-size="11" transform="translate(241,75) scale(0.4818,0.4818) matrix(1,0,0,1,255.5008,23.5)" fill-opacity="1" fill="black" text-rendering="geometricPrecision" image-rendering="optimizeQuality" font-family="sans-serif" stroke="black" stroke-opacity="1">
      <path d="M11.0312 4.9844 L12.0312 4.9844 L12.0312 11 L11.0312 11 L11.0312 4.9844 ZM11.0312 2.6406 L12.0312 2.6406 L12.0312 3.8906 L11.0312 3.8906 L11.0312 2.6406 ZM19.0312 7.375 L19.0312 11 L18.0469 11 L18.0469 7.4062 Q18.0469 6.5469 17.7188 6.125 Q17.3906 5.7031 16.7188 5.7031 Q15.9219 5.7031 15.4609 6.2109 Q15 6.7188 15 7.5938 L15 11 L14 11 L14 4.9844 L15 4.9844 L15 5.9219 Q15.3438 5.375 15.8281 5.1094 Q16.3125 4.8438 16.9375 4.8438 Q17.9688 4.8438 18.5 5.4844 Q19.0312 6.125 19.0312 7.375 Z" clip-path="url(#clipPath28)" stroke="none"/>
    </g>
    <g font-size="11" transform="translate(241,75) scale(0.4818,0.4818) matrix(1,0,0,1,0.5008,163.5)" fill-opacity="1" fill="black" text-rendering="geometricPrecision" image-rendering="optimizeQuality" font-family="sans-serif" stroke="black" stroke-opacity="1">
      <path d="M12.0156 3.2812 L12.0156 4.9844 L14.0469 4.9844 L14.0469 5.75 L12.0156 5.75 L12.0156 9.0156 Q12.0156 9.75 12.2188 9.9609 Q12.4219 10.1719 13.0312 10.1719 L14.0469 10.1719 L14.0469 11 L13.0312 11 Q11.8906 11 11.4531 10.5703 Q11.0156 10.1406 11.0156 9.0156 L11.0156 5.75 L10.2969 5.75 L10.2969 4.9844 L11.0156 4.9844 L11.0156 3.2812 L12.0156 3.2812 ZM15.0312 4.9844 L16.0312 4.9844 L16.0312 11 L15.0312 11 L15.0312 4.9844 ZM15.0312 2.6406 L16.0312 2.6406 L16.0312 3.8906 L15.0312 3.8906 L15.0312 2.6406 ZM22.7188 6.1406 Q23.0938 5.4688 23.6094 5.1562 Q24.125 4.8438 24.8281 4.8438 Q25.7656 4.8438 26.2734 5.5 Q26.7812 6.1562 26.7812 7.375 L26.7812 11 L25.7812 11 L25.7812 7.4062 Q25.7812 6.5312 25.4766 6.1172 Q25.1719 5.7031 24.5469 5.7031 Q23.7812 5.7031 23.3359 6.2109 Q22.8906 6.7188 22.8906 7.5938 L22.8906 11 L21.8906 11 L21.8906 7.4062 Q21.8906 6.5312 21.5859 6.1172 Q21.2812 5.7031 20.6406 5.7031 Q19.8906 5.7031 19.4453 6.2109 Q19 6.7188 19 7.5938 L19 11 L18 11 L18 4.9844 L19 4.9844 L19 5.9219 Q19.3281 5.3594 19.8047 5.1016 Q20.2812 4.8438 20.9219 4.8438 Q21.5781 4.8438 22.0391 5.1719 Q22.5 5.5 22.7188 6.1406 ZM34.1875 7.75 L34.1875 8.2344 L29.6406 8.2344 Q29.7031 9.25 30.25 9.7812 Q30.7969 10.3125 31.7812 10.3125 Q32.3594 10.3125 32.8906 10.1719 Q33.4219 10.0312 33.9531 9.7656 L33.9531 10.6875 Q33.4219 10.9219 32.8594 11.0391 Q32.2969 11.1562 31.7344 11.1562 Q30.2812 11.1562 29.4453 10.3203 Q28.6094 9.4844 28.6094 8.0469 Q28.6094 6.5781 29.4062 5.7109 Q30.2031 4.8438 31.5625 4.8438 Q32.7656 4.8438 33.4766 5.625 Q34.1875 6.4062 34.1875 7.75 ZM33.1875 7.4531 Q33.1875 6.6406 32.7422 6.1562 Q32.2969 5.6719 31.5625 5.6719 Q30.7344 5.6719 30.2422 6.1406 Q29.75 6.6094 29.6719 7.4531 L33.1875 7.4531 ZM40.6094 12.8281 L40.6094 13.5938 L34.8906 13.5938 L34.8906 12.8281 L40.6094 12.8281 ZM42.0312 4.9844 L43.0312 4.9844 L43.0312 11 L42.0312 11 L42.0312 4.9844 ZM42.0312 2.6406 L43.0312 2.6406 L43.0312 3.8906 L42.0312 3.8906 L42.0312 2.6406 ZM50.0312 7.375 L50.0312 11 L49.0469 11 L49.0469 7.4062 Q49.0469 6.5469 48.7188 6.125 Q48.3906 5.7031 47.7188 5.7031 Q46.9219 5.7031 46.4609 6.2109 Q46 6.7188 46 7.5938 L46 11 L45 11 L45 4.9844 L46 4.9844 L46 5.9219 Q46.3438 5.375 46.8281 5.1094 Q47.3125 4.8438 47.9375 4.8438 Q48.9688 4.8438 49.5 5.4844 Q50.0312 6.125 50.0312 7.375 Z" clip-path="url(#clipPath29)" stroke="none"/>
    </g>
    <g font-size="11" transform="translate(241,75) scale(0.4818,0.4818) matrix(1,0,0,1,322.5008,185.5)" fill-opacity="1" fill="black" text-rendering="geometricPrecision" image-rendering="optimizeQuality" font-family="sans-serif" stroke="black" stroke-opacity="1">
      <path d="M10.4688 4.9844 L11.4531 4.9844 L12.6875 9.6719 L13.9219 4.9844 L15.0781 4.9844 L16.3125 9.6719 L17.5469 4.9844 L18.5312 4.9844 L16.9688 11 L15.7969 11 L14.5 6.0625 L13.2031 11 L12.0312 11 L10.4688 4.9844 ZM22.7656 7.9688 Q21.5781 7.9688 21.1172 8.25 Q20.6562 8.5312 20.6562 9.1875 Q20.6562 9.7031 21 10.0156 Q21.3438 10.3281 21.9375 10.3281 Q22.7656 10.3281 23.2578 9.7422 Q23.75 9.1562 23.75 8.2031 L23.75 7.9688 L22.7656 7.9688 ZM24.7344 7.5625 L24.7344 11 L23.75 11 L23.75 10.0938 Q23.4219 10.6406 22.9141 10.8984 Q22.4062 11.1562 21.6719 11.1562 Q20.75 11.1562 20.2031 10.6406 Q19.6562 10.125 19.6562 9.25 Q19.6562 8.2344 20.3359 7.7188 Q21.0156 7.2031 22.375 7.2031 L23.75 7.2031 L23.75 7.1094 Q23.75 6.4219 23.3047 6.0469 Q22.8594 5.6719 22.0469 5.6719 Q21.5312 5.6719 21.0391 5.7969 Q20.5469 5.9219 20.0938 6.1719 L20.0938 5.2656 Q20.6406 5.0469 21.1562 4.9453 Q21.6719 4.8438 22.1406 4.8438 Q23.4531 4.8438 24.0938 5.5156 Q24.7344 6.1875 24.7344 7.5625 ZM26.3281 4.9844 L27.375 4.9844 L29.25 10.0312 L31.1406 4.9844 L32.1875 4.9844 L29.9219 11 L28.5781 11 L26.3281 4.9844 ZM38.1875 7.75 L38.1875 8.2344 L33.6406 8.2344 Q33.7031 9.25 34.25 9.7812 Q34.7969 10.3125 35.7812 10.3125 Q36.3594 10.3125 36.8906 10.1719 Q37.4219 10.0312 37.9531 9.7656 L37.9531 10.6875 Q37.4219 10.9219 36.8594 11.0391 Q36.2969 11.1562 35.7344 11.1562 Q34.2812 11.1562 33.4453 10.3203 Q32.6094 9.4844 32.6094 8.0469 Q32.6094 6.5781 33.4062 5.7109 Q34.2031 4.8438 35.5625 4.8438 Q36.7656 4.8438 37.4766 5.625 Q38.1875 6.4062 38.1875 7.75 ZM37.1875 7.4531 Q37.1875 6.6406 36.7422 6.1562 Q36.2969 5.6719 35.5625 5.6719 Q34.7344 5.6719 34.2422 6.1406 Q33.75 6.6094 33.6719 7.4531 L37.1875 7.4531 ZM43.0781 2.6406 L43.0781 3.4688 L42.1406 3.4688 Q41.6094 3.4688 41.3984 3.6797 Q41.1875 3.8906 41.1875 4.4531 L41.1875 4.9844 L42.8125 4.9844 L42.8125 5.75 L41.1875 5.75 L41.1875 11 L40.2031 11 L40.2031 5.75 L39.25 5.75 L39.25 4.9844 L40.2031 4.9844 L40.2031 4.5625 Q40.2031 3.5625 40.6641 3.1016 Q41.125 2.6406 42.1406 2.6406 L43.0781 2.6406 ZM46.375 5.6719 Q45.5781 5.6719 45.1172 6.2969 Q44.6562 6.9219 44.6562 8 Q44.6562 9.0781 45.1094 9.6953 Q45.5625 10.3125 46.375 10.3125 Q47.1562 10.3125 47.6172 9.6953 Q48.0781 9.0781 48.0781 8 Q48.0781 6.9219 47.6172 6.2969 Q47.1562 5.6719 46.375 5.6719 ZM46.375 4.8438 Q47.6562 4.8438 48.3906 5.6797 Q49.125 6.5156 49.125 8 Q49.125 9.4688 48.3906 10.3125 Q47.6562 11.1562 46.375 11.1562 Q45.0781 11.1562 44.3438 10.3125 Q43.6094 9.4688 43.6094 8 Q43.6094 6.5156 44.3438 5.6797 Q45.0781 4.8438 46.375 4.8438 ZM54.5156 5.9062 Q54.3594 5.8125 54.1641 5.7656 Q53.9688 5.7188 53.7344 5.7188 Q52.8906 5.7188 52.4453 6.2656 Q52 6.8125 52 7.8281 L52 11 L51 11 L51 4.9844 L52 4.9844 L52 5.9219 Q52.2969 5.375 52.7969 5.1094 Q53.2969 4.8438 54.0156 4.8438 Q54.125 4.8438 54.2422 4.8516 Q54.3594 4.8594 54.5156 4.8906 L54.5156 5.9062 ZM60.7188 6.1406 Q61.0938 5.4688 61.6094 5.1562 Q62.125 4.8438 62.8281 4.8438 Q63.7656 4.8438 64.2734 5.5 Q64.7812 6.1562 64.7812 7.375 L64.7812 11 L63.7812 11 L63.7812 7.4062 Q63.7812 6.5312 63.4766 6.1172 Q63.1719 5.7031 62.5469 5.7031 Q61.7812 5.7031 61.3359 6.2109 Q60.8906 6.7188 60.8906 7.5938 L60.8906 11 L59.8906 11 L59.8906 7.4062 Q59.8906 6.5312 59.5859 6.1172 Q59.2812 5.7031 58.6406 5.7031 Q57.8906 5.7031 57.4453 6.2109 Q57 6.7188 57 7.5938 L57 11 L56 11 L56 4.9844 L57 4.9844 L57 5.9219 Q57.3281 5.3594 57.8047 5.1016 Q58.2812 4.8438 58.9219 4.8438 Q59.5781 4.8438 60.0391 5.1719 Q60.5 5.5 60.7188 6.1406 ZM71.6094 12.8281 L71.6094 13.5938 L65.8906 13.5938 L65.8906 12.8281 L71.6094 12.8281 ZM75.375 5.6719 Q74.5781 5.6719 74.1172 6.2969 Q73.6562 6.9219 73.6562 8 Q73.6562 9.0781 74.1094 9.6953 Q74.5625 10.3125 75.375 10.3125 Q76.1562 10.3125 76.6172 9.6953 Q77.0781 9.0781 77.0781 8 Q77.0781 6.9219 76.6172 6.2969 Q76.1562 5.6719 75.375 5.6719 ZM75.375 4.8438 Q76.6562 4.8438 77.3906 5.6797 Q78.125 6.5156 78.125 8 Q78.125 9.4688 77.3906 10.3125 Q76.6562 11.1562 75.375 11.1562 Q74.0781 11.1562 73.3438 10.3125 Q72.6094 9.4688 72.6094 8 Q72.6094 6.5156 73.3438 5.6797 Q74.0781 4.8438 75.375 4.8438 ZM79.9375 8.625 L79.9375 4.9844 L80.9219 4.9844 L80.9219 8.5938 Q80.9219 9.4375 81.2578 9.8672 Q81.5938 10.2969 82.25 10.2969 Q83.0625 10.2969 83.5234 9.7891 Q83.9844 9.2812 83.9844 8.3906 L83.9844 4.9844 L84.9688 4.9844 L84.9688 11 L83.9844 11 L83.9844 10.0781 Q83.625 10.625 83.1484 10.8906 Q82.6719 11.1562 82.0469 11.1562 Q81.0156 11.1562 80.4766 10.5078 Q79.9375 9.8594 79.9375 8.625 ZM88.0156 3.2812 L88.0156 4.9844 L90.0469 4.9844 L90.0469 5.75 L88.0156 5.75 L88.0156 9.0156 Q88.0156 9.75 88.2188 9.9609 Q88.4219 10.1719 89.0312 10.1719 L90.0469 10.1719 L90.0469 11 L89.0312 11 Q87.8906 11 87.4531 10.5703 Q87.0156 10.1406 87.0156 9.0156 L87.0156 5.75 L86.2969 5.75 L86.2969 4.9844 L87.0156 4.9844 L87.0156 3.2812 L88.0156 3.2812 Z" clip-path="url(#clipPath30)" stroke="none"/>
    </g>
    <g font-size="11" transform="translate(241,75) scale(0.4818,0.4818) matrix(1,0,0,1,264.5008,148.5)" fill-opacity="1" fill="black" text-rendering="geometricPrecision" image-rendering="optimizeQuality" font-family="sans-serif" stroke="black" stroke-opacity="1">
      <path d="M11.0312 4.9844 L12.0312 4.9844 L12.0312 11 L11.0312 11 L11.0312 4.9844 ZM11.0312 2.6406 L12.0312 2.6406 L12.0312 3.8906 L11.0312 3.8906 L11.0312 2.6406 ZM19.0312 7.375 L19.0312 11 L18.0469 11 L18.0469 7.4062 Q18.0469 6.5469 17.7188 6.125 Q17.3906 5.7031 16.7188 5.7031 Q15.9219 5.7031 15.4609 6.2109 Q15 6.7188 15 7.5938 L15 11 L14 11 L14 4.9844 L15 4.9844 L15 5.9219 Q15.3438 5.375 15.8281 5.1094 Q16.3125 4.8438 16.9375 4.8438 Q17.9688 4.8438 18.5 5.4844 Q19.0312 6.125 19.0312 7.375 Z" clip-path="url(#clipPath31)" stroke="none"/>
    </g>
    <g font-size="11" transform="translate(241,75) scale(0.4818,0.4818) matrix(1,0,0,1,1.5008,86.5)" fill-opacity="1" fill="black" text-rendering="geometricPrecision" image-rendering="optimizeQuality" font-family="sans-serif" stroke="black" stroke-opacity="1">
      <path d="M14.0781 2.6406 L14.0781 3.4688 L13.1406 3.4688 Q12.6094 3.4688 12.3984 3.6797 Q12.1875 3.8906 12.1875 4.4531 L12.1875 4.9844 L13.8125 4.9844 L13.8125 5.75 L12.1875 5.75 L12.1875 11 L11.2031 11 L11.2031 5.75 L10.25 5.75 L10.25 4.9844 L11.2031 4.9844 L11.2031 4.5625 Q11.2031 3.5625 11.6641 3.1016 Q12.125 2.6406 13.1406 2.6406 L14.0781 2.6406 ZM18.5156 5.9062 Q18.3594 5.8125 18.1641 5.7656 Q17.9688 5.7188 17.7344 5.7188 Q16.8906 5.7188 16.4453 6.2656 Q16 6.8125 16 7.8281 L16 11 L15 11 L15 4.9844 L16 4.9844 L16 5.9219 Q16.2969 5.375 16.7969 5.1094 Q17.2969 4.8438 18.0156 4.8438 Q18.125 4.8438 18.2422 4.8516 Q18.3594 4.8594 18.5156 4.8906 L18.5156 5.9062 ZM25.1875 7.75 L25.1875 8.2344 L20.6406 8.2344 Q20.7031 9.25 21.25 9.7812 Q21.7969 10.3125 22.7812 10.3125 Q23.3594 10.3125 23.8906 10.1719 Q24.4219 10.0312 24.9531 9.7656 L24.9531 10.6875 Q24.4219 10.9219 23.8594 11.0391 Q23.2969 11.1562 22.7344 11.1562 Q21.2812 11.1562 20.4453 10.3203 Q19.6094 9.4844 19.6094 8.0469 Q19.6094 6.5781 20.4062 5.7109 Q21.2031 4.8438 22.5625 4.8438 Q23.7656 4.8438 24.4766 5.625 Q25.1875 6.4062 25.1875 7.75 ZM24.1875 7.4531 Q24.1875 6.6406 23.7422 6.1562 Q23.2969 5.6719 22.5625 5.6719 Q21.7344 5.6719 21.2422 6.1406 Q20.75 6.6094 20.6719 7.4531 L24.1875 7.4531 ZM27.625 8 Q27.625 9.0938 28.0781 9.7109 Q28.5312 10.3281 29.3125 10.3281 Q30.0938 10.3281 30.5469 9.7109 Q31 9.0938 31 8 Q31 6.9062 30.5469 6.2891 Q30.0938 5.6719 29.3125 5.6719 Q28.5312 5.6719 28.0781 6.2891 Q27.625 6.9062 27.625 8 ZM31 10.0938 Q30.6875 10.6406 30.2109 10.8984 Q29.7344 11.1562 29.0625 11.1562 Q27.9844 11.1562 27.2969 10.2891 Q26.6094 9.4219 26.6094 8 Q26.6094 6.5781 27.2969 5.7109 Q27.9844 4.8438 29.0625 4.8438 Q29.7344 4.8438 30.2109 5.1016 Q30.6875 5.3594 31 5.8906 L31 4.9844 L31.9844 4.9844 L31.9844 13.2812 L31 13.2812 L31 10.0938 ZM38.6094 12.8281 L38.6094 13.5938 L32.8906 13.5938 L32.8906 12.8281 L38.6094 12.8281 ZM40.0312 4.9844 L41.0312 4.9844 L41.0312 11 L40.0312 11 L40.0312 4.9844 ZM40.0312 2.6406 L41.0312 2.6406 L41.0312 3.8906 L40.0312 3.8906 L40.0312 2.6406 ZM48.0312 7.375 L48.0312 11 L47.0469 11 L47.0469 7.4062 Q47.0469 6.5469 46.7188 6.125 Q46.3906 5.7031 45.7188 5.7031 Q44.9219 5.7031 44.4609 6.2109 Q44 6.7188 44 7.5938 L44 11 L43 11 L43 4.9844 L44 4.9844 L44 5.9219 Q44.3438 5.375 44.8281 5.1094 Q45.3125 4.8438 45.9375 4.8438 Q46.9688 4.8438 47.5 5.4844 Q48.0312 6.125 48.0312 7.375 Z" clip-path="url(#clipPath32)" stroke="none"/>
    </g>
    <g font-size="11" transform="translate(241,75) scale(0.4818,0.4818) matrix(1,0,0,1,141.5008,81.5)" fill-opacity="1" fill="black" text-rendering="geometricPrecision" image-rendering="optimizeQuality" font-family="sans-serif" stroke="black" stroke-opacity="1">
      <path d="M13.375 5.6719 Q12.5781 5.6719 12.1172 6.2969 Q11.6562 6.9219 11.6562 8 Q11.6562 9.0781 12.1094 9.6953 Q12.5625 10.3125 13.375 10.3125 Q14.1562 10.3125 14.6172 9.6953 Q15.0781 9.0781 15.0781 8 Q15.0781 6.9219 14.6172 6.2969 Q14.1562 5.6719 13.375 5.6719 ZM13.375 4.8438 Q14.6562 4.8438 15.3906 5.6797 Q16.125 6.5156 16.125 8 Q16.125 9.4688 15.3906 10.3125 Q14.6562 11.1562 13.375 11.1562 Q12.0781 11.1562 11.3438 10.3125 Q10.6094 9.4688 10.6094 8 Q10.6094 6.5156 11.3438 5.6797 Q12.0781 4.8438 13.375 4.8438 ZM17.9375 8.625 L17.9375 4.9844 L18.9219 4.9844 L18.9219 8.5938 Q18.9219 9.4375 19.2578 9.8672 Q19.5938 10.2969 20.25 10.2969 Q21.0625 10.2969 21.5234 9.7891 Q21.9844 9.2812 21.9844 8.3906 L21.9844 4.9844 L22.9688 4.9844 L22.9688 11 L21.9844 11 L21.9844 10.0781 Q21.625 10.625 21.1484 10.8906 Q20.6719 11.1562 20.0469 11.1562 Q19.0156 11.1562 18.4766 10.5078 Q17.9375 9.8594 17.9375 8.625 ZM26.0156 3.2812 L26.0156 4.9844 L28.0469 4.9844 L28.0469 5.75 L26.0156 5.75 L26.0156 9.0156 Q26.0156 9.75 26.2188 9.9609 Q26.4219 10.1719 27.0312 10.1719 L28.0469 10.1719 L28.0469 11 L27.0312 11 Q25.8906 11 25.4531 10.5703 Q25.0156 10.1406 25.0156 9.0156 L25.0156 5.75 L24.2969 5.75 L24.2969 4.9844 L25.0156 4.9844 L25.0156 3.2812 L26.0156 3.2812 Z" clip-path="url(#clipPath33)" stroke="none"/>
    </g>
    <g font-size="11" transform="translate(241,75) scale(0.4818,0.4818) matrix(1,0,0,1,1.5008,20.5)" fill-opacity="1" fill="black" text-rendering="geometricPrecision" image-rendering="optimizeQuality" font-family="sans-serif" stroke="black" stroke-opacity="1">
      <path d="M14.0781 2.6406 L14.0781 3.4688 L13.1406 3.4688 Q12.6094 3.4688 12.3984 3.6797 Q12.1875 3.8906 12.1875 4.4531 L12.1875 4.9844 L13.8125 4.9844 L13.8125 5.75 L12.1875 5.75 L12.1875 11 L11.2031 11 L11.2031 5.75 L10.25 5.75 L10.25 4.9844 L11.2031 4.9844 L11.2031 4.5625 Q11.2031 3.5625 11.6641 3.1016 Q12.125 2.6406 13.1406 2.6406 L14.0781 2.6406 ZM18.5156 5.9062 Q18.3594 5.8125 18.1641 5.7656 Q17.9688 5.7188 17.7344 5.7188 Q16.8906 5.7188 16.4453 6.2656 Q16 6.8125 16 7.8281 L16 11 L15 11 L15 4.9844 L16 4.9844 L16 5.9219 Q16.2969 5.375 16.7969 5.1094 Q17.2969 4.8438 18.0156 4.8438 Q18.125 4.8438 18.2422 4.8516 Q18.3594 4.8594 18.5156 4.8906 L18.5156 5.9062 ZM25.1875 7.75 L25.1875 8.2344 L20.6406 8.2344 Q20.7031 9.25 21.25 9.7812 Q21.7969 10.3125 22.7812 10.3125 Q23.3594 10.3125 23.8906 10.1719 Q24.4219 10.0312 24.9531 9.7656 L24.9531 10.6875 Q24.4219 10.9219 23.8594 11.0391 Q23.2969 11.1562 22.7344 11.1562 Q21.2812 11.1562 20.4453 10.3203 Q19.6094 9.4844 19.6094 8.0469 Q19.6094 6.5781 20.4062 5.7109 Q21.2031 4.8438 22.5625 4.8438 Q23.7656 4.8438 24.4766 5.625 Q25.1875 6.4062 25.1875 7.75 ZM24.1875 7.4531 Q24.1875 6.6406 23.7422 6.1562 Q23.2969 5.6719 22.5625 5.6719 Q21.7344 5.6719 21.2422 6.1406 Q20.75 6.6094 20.6719 7.4531 L24.1875 7.4531 ZM27.625 8 Q27.625 9.0938 28.0781 9.7109 Q28.5312 10.3281 29.3125 10.3281 Q30.0938 10.3281 30.5469 9.7109 Q31 9.0938 31 8 Q31 6.9062 30.5469 6.2891 Q30.0938 5.6719 29.3125 5.6719 Q28.5312 5.6719 28.0781 6.2891 Q27.625 6.9062 27.625 8 ZM31 10.0938 Q30.6875 10.6406 30.2109 10.8984 Q29.7344 11.1562 29.0625 11.1562 Q27.9844 11.1562 27.2969 10.2891 Q26.6094 9.4219 26.6094 8 Q26.6094 6.5781 27.2969 5.7109 Q27.9844 4.8438 29.0625 4.8438 Q29.7344 4.8438 30.2109 5.1016 Q30.6875 5.3594 31 5.8906 L31 4.9844 L31.9844 4.9844 L31.9844 13.2812 L31 13.2812 L31 10.0938 ZM38.6094 12.8281 L38.6094 13.5938 L32.8906 13.5938 L32.8906 12.8281 L38.6094 12.8281 ZM40.0312 4.9844 L41.0312 4.9844 L41.0312 11 L40.0312 11 L40.0312 4.9844 ZM40.0312 2.6406 L41.0312 2.6406 L41.0312 3.8906 L40.0312 3.8906 L40.0312 2.6406 ZM48.0312 7.375 L48.0312 11 L47.0469 11 L47.0469 7.4062 Q47.0469 6.5469 46.7188 6.125 Q46.3906 5.7031 45.7188 5.7031 Q44.9219 5.7031 44.4609 6.2109 Q44 6.7188 44 7.5938 L44 11 L43 11 L43 4.9844 L44 4.9844 L44 5.9219 Q44.3438 5.375 44.8281 5.1094 Q45.3125 4.8438 45.9375 4.8438 Q46.9688 4.8438 47.5 5.4844 Q48.0312 6.125 48.0312 7.375 Z" clip-path="url(#clipPath32)" stroke="none"/>
    </g>
    <g font-size="11" transform="translate(241,75) scale(0.4818,0.4818) matrix(1,0,0,1,141.5008,21.5)" fill-opacity="1" fill="black" text-rendering="geometricPrecision" image-rendering="optimizeQuality" font-family="sans-serif" stroke="black" stroke-opacity="1">
      <path d="M13.375 5.6719 Q12.5781 5.6719 12.1172 6.2969 Q11.6562 6.9219 11.6562 8 Q11.6562 9.0781 12.1094 9.6953 Q12.5625 10.3125 13.375 10.3125 Q14.1562 10.3125 14.6172 9.6953 Q15.0781 9.0781 15.0781 8 Q15.0781 6.9219 14.6172 6.2969 Q14.1562 5.6719 13.375 5.6719 ZM13.375 4.8438 Q14.6562 4.8438 15.3906 5.6797 Q16.125 6.5156 16.125 8 Q16.125 9.4688 15.3906 10.3125 Q14.6562 11.1562 13.375 11.1562 Q12.0781 11.1562 11.3438 10.3125 Q10.6094 9.4688 10.6094 8 Q10.6094 6.5156 11.3438 5.6797 Q12.0781 4.8438 13.375 4.8438 ZM17.9375 8.625 L17.9375 4.9844 L18.9219 4.9844 L18.9219 8.5938 Q18.9219 9.4375 19.2578 9.8672 Q19.5938 10.2969 20.25 10.2969 Q21.0625 10.2969 21.5234 9.7891 Q21.9844 9.2812 21.9844 8.3906 L21.9844 4.9844 L22.9688 4.9844 L22.9688 11 L21.9844 11 L21.9844 10.0781 Q21.625 10.625 21.1484 10.8906 Q20.6719 11.1562 20.0469 11.1562 Q19.0156 11.1562 18.4766 10.5078 Q17.9375 9.8594 17.9375 8.625 ZM26.0156 3.2812 L26.0156 4.9844 L28.0469 4.9844 L28.0469 5.75 L26.0156 5.75 L26.0156 9.0156 Q26.0156 9.75 26.2188 9.9609 Q26.4219 10.1719 27.0312 10.1719 L28.0469 10.1719 L28.0469 11 L27.0312 11 Q25.8906 11 25.4531 10.5703 Q25.0156 10.1406 25.0156 9.0156 L25.0156 5.75 L24.2969 5.75 L24.2969 4.9844 L25.0156 4.9844 L25.0156 3.2812 L26.0156 3.2812 Z" clip-path="url(#clipPath27)" stroke="none"/>
    </g>
    <g font-size="11" stroke-linecap="butt" transform="translate(241,75) scale(0.4818,0.4818) matrix(1,0,0,1,-1.4992,-1.5)" fill-opacity="1" fill="black" text-rendering="geometricPrecision" image-rendering="optimizeQuality" font-family="sans-serif" stroke-linejoin="round" stroke="black" stroke-opacity="1">
      <path fill="none" d="M170 12 L266 12" clip-path="url(#clipPath34)"/>
    </g>
    <g font-size="11" stroke-linecap="butt" transform="translate(241,75) scale(0.4818,0.4818) matrix(1,0,0,1,-1.4992,-1.5)" fill-opacity="1" fill="black" text-rendering="geometricPrecision" image-rendering="optimizeQuality" font-family="sans-serif" stroke-linejoin="round" stroke="black" stroke-opacity="1">
      <path fill="none" d="M170 72 L266 72" clip-path="url(#clipPath35)"/>
    </g>
    <g font-size="11" stroke-linecap="butt" transform="translate(241,75) scale(0.4818,0.4818) matrix(1,0,0,1,-1.4992,-1.5)" fill-opacity="1" fill="black" text-rendering="geometricPrecision" image-rendering="optimizeQuality" font-family="sans-serif" stroke-linejoin="round" stroke="black" stroke-opacity="1">
      <path fill="none" d="M332 109 L289 135" clip-path="url(#clipPath36)"/>
    </g>
    <g font-size="11" transform="translate(233,53)" fill-opacity="1" fill="black" text-rendering="geometricPrecision" font-family="sans-serif" stroke="black" stroke-opacity="1">
      <text x="10" xml:space="preserve" y="11" clip-path="url(#clipPath37)" stroke="none">Synth</text>
    </g>
    <g font-size="11" transform="translate(403,235)" fill-opacity="1" fill="black" text-rendering="geometricPrecision" font-family="sans-serif" stroke="black" stroke-opacity="1">
      <text x="9" xml:space="preserve" y="11" clip-path="url(#clipPath38)" stroke="none">waveform_out</text>
    </g>
    <g font-size="11" transform="translate(111,141)" fill-opacity="1" fill="black" text-rendering="geometricPrecision" font-family="sans-serif" stroke="black" stroke-opacity="1">
      <text x="8" xml:space="preserve" y="11" clip-path="url(#clipPath39)" stroke="none">time_for_ramp</text>
    </g>
    <g font-size="11" transform="translate(122,93)" fill-opacity="1" fill="black" text-rendering="geometricPrecision" font-family="sans-serif" stroke="black" stroke-opacity="1">
      <text x="8" xml:space="preserve" y="11" clip-path="url(#clipPath40)" stroke="none">saw_frq_in</text>
    </g>
    <g font-size="11" transform="translate(125,40)" fill-opacity="1" fill="black" text-rendering="geometricPrecision" font-family="sans-serif" stroke="black" stroke-opacity="1">
      <text x="8" xml:space="preserve" y="11" clip-path="url(#clipPath41)" stroke="none">sin_frq_in</text>
    </g>
    <g font-size="11" stroke-linecap="butt" transform="translate(39,-18)" fill-opacity="1" fill="black" text-rendering="geometricPrecision" font-family="sans-serif" stroke-linejoin="round" stroke="black" stroke-opacity="1">
      <line y2="50" fill="none" x1="50" clip-path="url(#clipPath42)" x2="116" y1="50"/>
    </g>
    <g font-size="11" stroke-linecap="butt" transform="translate(39,32)" fill-opacity="1" fill="black" text-rendering="geometricPrecision" font-family="sans-serif" stroke-linejoin="round" stroke="black" stroke-opacity="1">
      <line y2="50" fill="none" x1="50" clip-path="url(#clipPath42)" x2="116" y1="50"/>
    </g>
    <g font-size="11" stroke-linecap="butt" transform="translate(39,89)" fill-opacity="1" fill="black" text-rendering="geometricPrecision" font-family="sans-serif" stroke-linejoin="round" stroke="black" stroke-opacity="1">
      <line y2="50" fill="none" x1="50" clip-path="url(#clipPath43)" x2="116" y1="74"/>
    </g>
    <g font-size="11" stroke-linecap="butt" transform="translate(408,70)" fill-opacity="1" fill="black" text-rendering="geometricPrecision" font-family="sans-serif" stroke-linejoin="round" stroke="black" stroke-opacity="1">
      <line y2="50" fill="none" x1="50" clip-path="url(#clipPath44)" x2="78" y1="150"/>
    </g>
    <g font-size="10" transform="rotate(-45) translate(-182.7065,0)" fill-opacity="1" fill="rgb(120,120,120)" text-rendering="geometricPrecision" stroke="rgb(120,120,120)" stroke-opacity="1">
      <!--<text>x="0" xml:space="preserve" y="0" stroke="none" Visual Paradigm for UML Community Edition [not for commercial use] </text>-->
      <!--<text>x="354" xml:space="preserve" y="0" stroke="none" Visual Paradigm for UML Community Edition [not for commercial use] </text>-->
      <!--<text>x="100" xml:space="preserve" y="52" stroke="none" Visual Paradigm for UML Community Edition [not for commercial use] </text>-->
      <!--<text>x="454" xml:space="preserve" y="52" stroke="none" Visual Paradigm for UML Community Edition [not for commercial use] </text>-->
      <!--<text>x="0" xml:space="preserve" y="104" stroke="none" Visual Paradigm for UML Community Edition [not for commercial use] </text>-->
      <!--<text>x="354" xml:space="preserve" y="104" stroke="none" Visual Paradigm for UML Community Edition [not for commercial use] </text>-->
      <!--<text>x="100" xml:space="preserve" y="156" stroke="none" Visual Paradigm for UML Community Edition [not for commercial use] </text>-->
      <!--<text>x="454" xml:space="preserve" y="156" stroke="none" Visual Paradigm for UML Community Edition [not for commercial use] </text>-->
      <!--<text>x="0" xml:space="preserve" y="208" stroke="none" Visual Paradigm for UML Community Edition [not for commercial use] </text>-->
      <!--<text>x="354" xml:space="preserve" y="208" stroke="none" Visual Paradigm for UML Community Edition [not for commercial use] </text>-->
      <!--<text>x="100" xml:space="preserve" y="260" stroke="none" Visual Paradigm for UML Community Edition [not for commercial use] </text>-->
      <!--<text>x="454" xml:space="preserve" y="260" stroke="none" Visual Paradigm for UML Community Edition [not for commercial use] </text>-->
      <!--<text>x="0" xml:space="preserve" y="312" stroke="none" Visual Paradigm for UML Community Edition [not for commercial use] </text>-->
      <!--<text>x="354" xml:space="preserve" y="312" stroke="none" Visual Paradigm for UML Community Edition [not for commercial use] </text>-->
      <!--<text>x="100" xml:space="preserve" y="364" stroke="none" Visual Paradigm for UML Community Edition [not for commercial use] </text>-->
      <!--<text>x="454" xml:space="preserve" y="364" stroke="none" Visual Paradigm for UML Community Edition [not for commercial use] </text>-->
      <!--<text>x="0" xml:space="preserve" y="416" stroke="none" Visual Paradigm for UML Community Edition [not for commercial use] </text>-->
      <!--<text>x="354" xml:space="preserve" y="416" stroke="none" Visual Paradigm for UML Community Edition [not for commercial use] </text>-->
      <!--<text>x="100" xml:space="preserve" y="468" stroke="none" Visual Paradigm for UML Community Edition [not for commercial use] </text>-->
      <!--<text>x="454" xml:space="preserve" y="468" stroke="none" Visual Paradigm for UML Community Edition [not for commercial use] </text>-->
      <!--<text>x="0" xml:space="preserve" y="520" stroke="none" Visual Paradigm for UML Community Edition [not for commercial use] </text>-->
      <!--<text>x="354" xml:space="preserve" y="520" stroke="none" Visual Paradigm for UML Community Edition [not for commercial use] </text>-->
    </g>
  </g>
</svg>
