<?xml version="1.0" encoding="utf-8"?>
<!-- Generator: Adobe Illustrator 16.0.3, SVG Export Plug-In . SVG Version: 6.00 Build 0)  -->
<!DOCTYPE svg PUBLIC "-//W3C//DTD SVG 1.1//EN" "http://www.w3.org/Graphics/SVG/1.1/DTD/svg11.dtd">
<svg version="1.1" id="Ebene_1" xmlns="http://www.w3.org/2000/svg" xmlns:xlink="http://www.w3.org/1999/xlink" x="0px" y="0px"
	 width="32px" height="32px" viewBox="0 0 32 32" enable-background="new 0 0 32 32" xml:space="preserve">
<path fill="#823C3C" d="M16.124,16.018c1.012,1.267,2.514,1.746,3.995,0.564c1.477-1.181,0.777-2.359,1.869-3.236
	c1.478-1.18,2.306-0.08,3.414,1.305l3.187,3.991L14.997,29.5L3.412,15.001L6.49,12.54c1.386-1.109,2.495-1.921,1.314-3.398
	C6.932,8.053,5.74,8.733,4.56,7.257c-1.183-1.479-0.692-2.969,0.577-3.98c1.266-1.013,2.866-1.162,4.049,0.318
	c1.181,1.479,0.238,2.459,1.111,3.551c1.18,1.479,2.232,0.569,3.619-0.538l3.088-2.467l2.464,3.085
	c1.109,1.386,2.003,2.444,0.527,3.627c-1.093,0.873-2.104-0.044-3.58,1.135C14.935,13.173,15.112,14.749,16.124,16.018z"/>
</svg>
