<?xml version="1.0" encoding="utf-8"?>
<!-- Generator: Adobe Illustrator 16.0.3, SVG Export Plug-In . SVG Version: 6.00 Build 0)  -->
<!DOCTYPE svg PUBLIC "-//W3C//DTD SVG 1.1//EN" "http://www.w3.org/Graphics/SVG/1.1/DTD/svg11.dtd">
<svg version="1.1" id="Ebene_1" xmlns="http://www.w3.org/2000/svg" xmlns:xlink="http://www.w3.org/1999/xlink" x="0px" y="0px"
	 width="32px" height="32px" viewBox="0 0 32 32" enable-background="new 0 0 32 32" xml:space="preserve">
<path fill="#823C3C" d="M21.276,30.025c-3.318-1.675-3.608-4.573-2.699-6.882c-0.844-1.501-2.145-3.558-3.976-5.788
	c-1.885-2.294-3.506-3.925-4.614-4.953c-1.214,0.417-2.663,0.352-4.295-0.472c-3.397-1.715-3.09-4.714-3.09-4.714
	S5.489,8.675,6.453,9.16c0.735,0.372,1.473,0.289,1.94-0.639l1.188-2.355c0.469-0.927,0.098-1.57-0.639-1.941
	c-0.962-0.485-3.85-1.943-3.85-1.943s2.231-2.027,5.628-0.313c2.828,1.428,3.458,3.744,3.019,5.827
	c0.81,1.522,2.222,3.881,4.351,6.474c1.988,2.421,3.682,4.102,4.792,5.116c1.017-0.14,2.166,0.044,3.424,0.679
	c3.397,1.715,3.09,4.715,3.09,4.715s-2.888-1.457-3.851-1.943c-0.735-0.372-1.45-0.278-1.919,0.65l-1.189,2.354
	c-0.468,0.929-0.118,1.56,0.616,1.931c0.964,0.485,3.851,1.943,3.851,1.943S24.674,31.741,21.276,30.025z"/>
</svg>
