<?xml version="1.0" encoding="utf-8"?>
<!-- Generator: Adobe Illustrator 16.0.3, SVG Export Plug-In . SVG Version: 6.00 Build 0)  -->
<!DOCTYPE svg PUBLIC "-//W3C//DTD SVG 1.1//EN" "http://www.w3.org/Graphics/SVG/1.1/DTD/svg11.dtd">
<svg version="1.1" id="Ebene_1" xmlns="http://www.w3.org/2000/svg" xmlns:xlink="http://www.w3.org/1999/xlink" x="0px" y="0px"
	 width="90px" height="35px" viewBox="0 0 90 35" enable-background="new 0 0 90 35" xml:space="preserve">
<g>
	<g>
		<path fill-rule="evenodd" clip-rule="evenodd" fill="#C8C8C8" d="M30.168,32.909V30.51H29.73v2.399H30.168z M29.943,30.108
			c0.17,0,0.273-0.124,0.273-0.268c0-0.154-0.109-0.272-0.268-0.272c-0.164,0-0.273,0.118-0.273,0.272
			c0,0.144,0.104,0.268,0.264,0.268H29.943z"/>
		<path fill-rule="evenodd" clip-rule="evenodd" fill="#C8C8C8" d="M30.99,32.909h0.436v-1.447c0-0.069,0.01-0.148,0.029-0.203
			c0.08-0.243,0.303-0.446,0.586-0.446c0.412,0,0.555,0.327,0.555,0.714v1.383h0.438v-1.433c0-0.823-0.516-1.021-0.848-1.021
			c-0.396,0-0.674,0.223-0.793,0.445h-0.012l-0.023-0.392h-0.387c0.014,0.198,0.02,0.396,0.02,0.65V32.909z"/>
		<path fill-rule="evenodd" clip-rule="evenodd" fill="#C8C8C8" d="M37.252,32.453c-0.174,0.085-0.441,0.139-0.709,0.139
			c-0.809,0-1.279-0.521-1.279-1.338c0-0.873,0.521-1.373,1.305-1.373c0.277,0,0.51,0.059,0.668,0.139l0.109-0.357
			c-0.113-0.055-0.381-0.144-0.793-0.144c-1.035,0-1.744,0.704-1.744,1.75c0,1.096,0.703,1.69,1.645,1.69
			c0.406,0,0.729-0.079,0.883-0.158L37.252,32.453z"/>
		<path fill-rule="evenodd" clip-rule="evenodd" fill="#C8C8C8" d="M38.793,32.964c0.57,0,1.191-0.387,1.191-1.279
			c0-0.729-0.467-1.229-1.156-1.229c-0.658,0-1.189,0.471-1.189,1.273c0,0.759,0.506,1.234,1.15,1.234H38.793z M38.805,32.638
			c-0.422,0-0.719-0.397-0.719-0.923c0-0.456,0.223-0.933,0.732-0.933c0.516,0,0.719,0.512,0.719,0.918
			c0,0.545-0.313,0.938-0.729,0.938H38.805z"/>
		<path fill-rule="evenodd" clip-rule="evenodd" fill="#C8C8C8" d="M40.584,32.909h0.426v-1.447c0-0.074,0.01-0.148,0.035-0.213
			c0.07-0.219,0.273-0.437,0.541-0.437c0.332,0,0.5,0.273,0.5,0.654v1.442h0.426v-1.487c0-0.074,0.016-0.153,0.035-0.218
			c0.08-0.208,0.268-0.392,0.521-0.392c0.346,0,0.52,0.273,0.52,0.738v1.358h0.428v-1.412c0-0.833-0.473-1.041-0.795-1.041
			c-0.227,0-0.381,0.06-0.525,0.168c-0.098,0.074-0.197,0.174-0.271,0.313h-0.012c-0.104-0.283-0.352-0.48-0.674-0.48
			c-0.4,0-0.623,0.213-0.758,0.44h-0.016l-0.02-0.387h-0.381c0.01,0.198,0.02,0.396,0.02,0.65V32.909z"/>
		<path fill-rule="evenodd" clip-rule="evenodd" fill="#C8C8C8" d="M44.818,33.892h0.436v-1.305h0.01
			c0.145,0.238,0.416,0.377,0.738,0.377c0.561,0,1.092-0.426,1.092-1.289c0-0.729-0.436-1.219-1.021-1.219
			c-0.387,0-0.674,0.168-0.848,0.466h-0.01l-0.025-0.412h-0.393c0.016,0.229,0.021,0.477,0.021,0.784V33.892z M45.254,31.517
			c0-0.055,0.016-0.119,0.025-0.174c0.084-0.332,0.367-0.541,0.664-0.541c0.461,0,0.709,0.412,0.709,0.894
			c0,0.55-0.268,0.927-0.729,0.927c-0.309,0-0.576-0.209-0.65-0.511c-0.014-0.055-0.02-0.118-0.02-0.179V31.517z"/>
		<path fill-rule="evenodd" clip-rule="evenodd" fill="#C8C8C8" d="M49.746,30.51h-0.436v1.468c0,0.084-0.016,0.164-0.041,0.223
			c-0.078,0.198-0.281,0.402-0.574,0.402c-0.393,0-0.535-0.313-0.535-0.769V30.51h-0.438v1.403c0,0.838,0.451,1.051,0.828,1.051
			c0.428,0,0.684-0.253,0.793-0.446h0.012l0.023,0.392h0.387c-0.016-0.188-0.02-0.406-0.02-0.659V30.51z"/>
		<path fill-rule="evenodd" clip-rule="evenodd" fill="#C8C8C8" d="M50.668,30.068v0.441h-0.371v0.332h0.371v1.304
			c0,0.283,0.051,0.496,0.17,0.631c0.104,0.113,0.268,0.183,0.471,0.183c0.168,0,0.303-0.029,0.385-0.059l-0.02-0.333
			c-0.063,0.02-0.133,0.03-0.252,0.03c-0.242,0-0.328-0.169-0.328-0.467v-1.289h0.625V30.51h-0.625v-0.575L50.668,30.068z"/>
		<path fill-rule="evenodd" clip-rule="evenodd" fill="#C8C8C8" d="M52.746,32.909V30.51h-0.438v2.399H52.746z M52.523,30.108
			c0.168,0,0.271-0.124,0.271-0.268c0-0.154-0.109-0.272-0.268-0.272c-0.164,0-0.271,0.118-0.271,0.272
			c0,0.144,0.104,0.268,0.262,0.268H52.523z"/>
		<path fill-rule="evenodd" clip-rule="evenodd" fill="#C8C8C8" d="M53.568,32.909h0.438v-1.447c0-0.069,0.01-0.148,0.029-0.203
			c0.078-0.243,0.303-0.446,0.584-0.446c0.412,0,0.557,0.327,0.557,0.714v1.383h0.436v-1.433c0-0.823-0.516-1.021-0.848-1.021
			c-0.396,0-0.676,0.223-0.793,0.445h-0.01l-0.025-0.392h-0.387c0.016,0.198,0.02,0.396,0.02,0.65V32.909z"/>
		<path fill-rule="evenodd" clip-rule="evenodd" fill="#C8C8C8" d="M58.422,31.165c0-0.288,0.006-0.486,0.02-0.655h-0.387
			l-0.014,0.362h-0.01c-0.109-0.203-0.332-0.416-0.748-0.416c-0.557,0-1.086,0.455-1.086,1.269c0,0.669,0.426,1.176,1.021,1.176
			c0.371,0,0.633-0.18,0.762-0.402h0.01v0.263c0,0.61-0.326,0.843-0.771,0.843c-0.299,0-0.547-0.089-0.705-0.192l-0.109,0.337
			c0.193,0.128,0.512,0.198,0.799,0.198c0.303,0,0.639-0.075,0.877-0.288c0.229-0.213,0.342-0.545,0.342-1.101V31.165z
			 M57.986,31.884c0,0.079-0.01,0.163-0.035,0.232c-0.088,0.282-0.332,0.451-0.605,0.451c-0.465,0-0.709-0.396-0.709-0.862
			c0-0.561,0.299-0.912,0.715-0.912c0.322,0,0.529,0.208,0.609,0.466c0.02,0.06,0.025,0.124,0.025,0.193V31.884z"/>
		<path fill-rule="evenodd" clip-rule="evenodd" fill="#C8C8C8" d="M60.236,32.741c0.18,0.119,0.531,0.218,0.854,0.218
			c0.789,0,1.166-0.451,1.166-0.961c0-0.491-0.283-0.76-0.85-0.982c-0.461-0.179-0.664-0.332-0.664-0.64
			c0-0.229,0.174-0.5,0.631-0.5c0.303,0,0.525,0.094,0.629,0.157l0.119-0.355c-0.145-0.08-0.396-0.159-0.734-0.159
			c-0.648,0-1.08,0.386-1.08,0.907c0,0.466,0.338,0.754,0.883,0.942c0.451,0.168,0.629,0.352,0.629,0.664
			c0,0.337-0.258,0.565-0.699,0.565c-0.297,0-0.574-0.095-0.768-0.214L60.236,32.741z"/>
		<path fill-rule="evenodd" clip-rule="evenodd" fill="#C8C8C8" d="M62.578,30.51l0.881,2.211c0.025,0.056,0.035,0.09,0.035,0.115
			c0,0.024-0.014,0.059-0.035,0.104c-0.104,0.223-0.246,0.392-0.365,0.485c-0.131,0.11-0.273,0.179-0.383,0.214L62.82,34
			c0.109-0.02,0.318-0.094,0.535-0.277c0.297-0.263,0.512-0.679,0.824-1.502l0.654-1.711h-0.463l-0.475,1.408
			c-0.061,0.174-0.109,0.357-0.154,0.5h-0.01c-0.039-0.143-0.1-0.331-0.158-0.49l-0.521-1.418H62.578z"/>
		<path fill-rule="evenodd" clip-rule="evenodd" fill="#C8C8C8" d="M65.037,32.79c0.168,0.1,0.41,0.169,0.674,0.169
			c0.561,0,0.893-0.298,0.893-0.724c0-0.357-0.219-0.565-0.631-0.719c-0.311-0.124-0.451-0.214-0.451-0.412
			c0-0.178,0.141-0.326,0.398-0.326c0.223,0,0.395,0.084,0.49,0.139l0.104-0.313c-0.129-0.084-0.342-0.148-0.584-0.148
			c-0.512,0-0.828,0.316-0.828,0.704c0,0.281,0.203,0.52,0.639,0.679c0.318,0.119,0.441,0.229,0.441,0.437
			c0,0.203-0.148,0.357-0.461,0.357c-0.219,0-0.447-0.09-0.58-0.169L65.037,32.79z"/>
		<path fill-rule="evenodd" clip-rule="evenodd" fill="#C8C8C8" d="M67.361,30.068v0.441H66.99v0.332h0.371v1.304
			c0,0.283,0.051,0.496,0.17,0.631c0.104,0.113,0.268,0.183,0.471,0.183c0.168,0,0.303-0.029,0.387-0.059l-0.021-0.333
			c-0.063,0.02-0.133,0.03-0.252,0.03c-0.242,0-0.328-0.169-0.328-0.467v-1.289h0.627V30.51h-0.627v-0.575L67.361,30.068z"/>
		<path fill-rule="evenodd" clip-rule="evenodd" fill="#C8C8C8" d="M70.902,31.789c0.01-0.05,0.014-0.114,0.014-0.203
			c0-0.441-0.203-1.13-0.986-1.13c-0.699,0-1.131,0.57-1.131,1.293c0,0.72,0.447,1.21,1.182,1.21c0.381,0,0.648-0.084,0.803-0.153
			l-0.08-0.313c-0.158,0.069-0.352,0.124-0.664,0.124c-0.436,0-0.809-0.243-0.818-0.828H70.902z M69.227,31.477
			c0.035-0.302,0.223-0.709,0.668-0.709c0.486,0,0.605,0.432,0.602,0.709H69.227z"/>
		<path fill-rule="evenodd" clip-rule="evenodd" fill="#C8C8C8" d="M71.557,32.909h0.426v-1.447c0-0.074,0.01-0.148,0.035-0.213
			c0.068-0.219,0.271-0.437,0.541-0.437c0.332,0,0.5,0.273,0.5,0.654v1.442h0.426v-1.487c0-0.074,0.016-0.153,0.035-0.218
			c0.08-0.208,0.268-0.392,0.521-0.392c0.346,0,0.52,0.273,0.52,0.738v1.358h0.426v-1.412c0-0.833-0.471-1.041-0.793-1.041
			c-0.227,0-0.381,0.06-0.525,0.168c-0.1,0.074-0.197,0.174-0.271,0.313h-0.012c-0.104-0.283-0.352-0.48-0.674-0.48
			c-0.4,0-0.625,0.213-0.758,0.44h-0.016l-0.02-0.387h-0.381c0.01,0.198,0.02,0.396,0.02,0.65V32.909z"/>
		<path fill-rule="evenodd" clip-rule="evenodd" fill="#C8C8C8" d="M75.627,32.79c0.168,0.1,0.412,0.169,0.674,0.169
			c0.561,0,0.893-0.298,0.893-0.724c0-0.357-0.219-0.565-0.629-0.719c-0.313-0.124-0.451-0.214-0.451-0.412
			c0-0.178,0.139-0.326,0.396-0.326c0.223,0,0.396,0.084,0.49,0.139l0.104-0.313c-0.129-0.084-0.342-0.148-0.584-0.148
			c-0.512,0-0.828,0.316-0.828,0.704c0,0.281,0.203,0.52,0.639,0.679c0.318,0.119,0.441,0.229,0.441,0.437
			c0,0.203-0.148,0.357-0.461,0.357c-0.219,0-0.445-0.09-0.58-0.169L75.627,32.79z"/>
	</g>
	<g>
		<polygon fill-rule="evenodd" clip-rule="evenodd" fill="#C8C8C8" points="31.471,25.037 30.178,25.037 30.178,23.98 31.551,23.98 
			31.551,23.618 29.74,23.618 29.74,26.96 31.625,26.96 31.625,26.598 30.178,26.598 30.178,25.394 31.471,25.394 		"/>
		<path fill-rule="evenodd" clip-rule="evenodd" fill="#C8C8C8" d="M32.27,26.96h0.436v-1.447c0-0.069,0.01-0.149,0.029-0.203
			c0.08-0.244,0.303-0.446,0.586-0.446c0.412,0,0.555,0.326,0.555,0.714v1.383h0.438v-1.433c0-0.823-0.516-1.021-0.848-1.021
			c-0.396,0-0.676,0.224-0.795,0.446h-0.01l-0.023-0.392H32.25c0.014,0.198,0.02,0.396,0.02,0.649V26.96z"/>
		<path fill-rule="evenodd" clip-rule="evenodd" fill="#C8C8C8" d="M37.074,25.215c0-0.287,0.004-0.485,0.02-0.654h-0.387
			l-0.016,0.362h-0.01c-0.109-0.204-0.332-0.417-0.748-0.417c-0.555,0-1.086,0.456-1.086,1.27c0,0.669,0.426,1.175,1.021,1.175
			c0.371,0,0.635-0.179,0.764-0.401h0.01v0.262c0,0.61-0.328,0.844-0.773,0.844c-0.297,0-0.545-0.089-0.705-0.193l-0.107,0.337
			c0.191,0.13,0.51,0.198,0.797,0.198c0.303,0,0.641-0.074,0.877-0.288c0.229-0.212,0.344-0.545,0.344-1.1V25.215z M36.637,25.934
			c0,0.08-0.01,0.163-0.035,0.233c-0.088,0.282-0.332,0.451-0.604,0.451c-0.467,0-0.709-0.396-0.709-0.863
			c0-0.56,0.297-0.912,0.713-0.912c0.322,0,0.531,0.208,0.611,0.467c0.02,0.059,0.023,0.123,0.023,0.192V25.934z"/>
		<path fill-rule="evenodd" clip-rule="evenodd" fill="#C8C8C8" d="M38.299,26.96v-2.399h-0.438v2.399H38.299z M38.074,24.159
			c0.17,0,0.273-0.124,0.273-0.268c0-0.154-0.109-0.273-0.268-0.273c-0.164,0-0.273,0.119-0.273,0.273
			c0,0.144,0.104,0.268,0.264,0.268H38.074z"/>
		<path fill-rule="evenodd" clip-rule="evenodd" fill="#C8C8C8" d="M39.121,26.96h0.436v-1.447c0-0.069,0.012-0.149,0.031-0.203
			c0.078-0.244,0.301-0.446,0.584-0.446c0.412,0,0.555,0.326,0.555,0.714v1.383h0.438v-1.433c0-0.823-0.516-1.021-0.848-1.021
			c-0.396,0-0.674,0.224-0.793,0.446h-0.01l-0.025-0.392h-0.387c0.014,0.198,0.02,0.396,0.02,0.649V26.96z"/>
		<path fill-rule="evenodd" clip-rule="evenodd" fill="#C8C8C8" d="M43.803,25.84c0.01-0.05,0.014-0.114,0.014-0.203
			c0-0.441-0.203-1.131-0.986-1.131c-0.699,0-1.131,0.57-1.131,1.294c0,0.72,0.447,1.21,1.18,1.21c0.383,0,0.65-0.084,0.803-0.153
			l-0.078-0.313c-0.158,0.069-0.352,0.124-0.664,0.124c-0.438,0-0.809-0.242-0.818-0.827H43.803z M42.125,25.527
			c0.035-0.303,0.225-0.709,0.67-0.709c0.486,0,0.605,0.431,0.6,0.709H42.125z"/>
		<path fill-rule="evenodd" clip-rule="evenodd" fill="#C8C8C8" d="M46.385,25.84c0.01-0.05,0.016-0.114,0.016-0.203
			c0-0.441-0.203-1.131-0.988-1.131c-0.697,0-1.129,0.57-1.129,1.294c0,0.72,0.445,1.21,1.18,1.21c0.381,0,0.648-0.084,0.803-0.153
			l-0.08-0.313c-0.158,0.069-0.352,0.124-0.664,0.124c-0.436,0-0.807-0.242-0.818-0.827H46.385z M44.709,25.527
			c0.035-0.303,0.223-0.709,0.67-0.709c0.486,0,0.604,0.431,0.6,0.709H44.709z"/>
		<path fill-rule="evenodd" clip-rule="evenodd" fill="#C8C8C8" d="M47.039,26.96h0.438v-1.284c0-0.069,0.004-0.139,0.014-0.203
			c0.059-0.322,0.277-0.556,0.586-0.556c0.059,0,0.104,0.006,0.148,0.011v-0.412c-0.041-0.005-0.074-0.01-0.119-0.01
			c-0.293,0-0.561,0.203-0.67,0.525H47.42l-0.02-0.471H47.02c0.016,0.223,0.02,0.466,0.02,0.749V26.96z"/>
		<path fill-rule="evenodd" clip-rule="evenodd" fill="#C8C8C8" d="M49.215,26.96v-2.399h-0.436v2.399H49.215z M48.992,24.159
			c0.17,0,0.273-0.124,0.273-0.268c0-0.154-0.109-0.273-0.268-0.273c-0.164,0-0.273,0.119-0.273,0.273
			c0,0.144,0.104,0.268,0.264,0.268H48.992z"/>
		<path fill-rule="evenodd" clip-rule="evenodd" fill="#C8C8C8" d="M49.988,26.96h0.438v-1.447c0-0.069,0.01-0.149,0.029-0.203
			c0.08-0.244,0.303-0.446,0.586-0.446c0.41,0,0.555,0.326,0.555,0.714v1.383h0.436v-1.433c0-0.823-0.516-1.021-0.848-1.021
			c-0.396,0-0.674,0.224-0.793,0.446h-0.01l-0.025-0.392h-0.387c0.016,0.198,0.02,0.396,0.02,0.649V26.96z"/>
		<path fill-rule="evenodd" clip-rule="evenodd" fill="#C8C8C8" d="M54.793,25.215c0-0.287,0.006-0.485,0.02-0.654h-0.387
			l-0.014,0.362h-0.01c-0.109-0.204-0.332-0.417-0.748-0.417c-0.557,0-1.088,0.456-1.088,1.27c0,0.669,0.428,1.175,1.023,1.175
			c0.371,0,0.633-0.179,0.762-0.401h0.01v0.262c0,0.61-0.326,0.844-0.771,0.844c-0.299,0-0.547-0.089-0.705-0.193l-0.109,0.337
			c0.193,0.13,0.512,0.198,0.799,0.198c0.303,0,0.639-0.074,0.877-0.288c0.229-0.212,0.342-0.545,0.342-1.1V25.215z M54.357,25.934
			c0,0.08-0.01,0.163-0.035,0.233c-0.09,0.282-0.332,0.451-0.605,0.451c-0.465,0-0.709-0.396-0.709-0.863
			c0-0.56,0.299-0.912,0.715-0.912c0.322,0,0.531,0.208,0.609,0.467c0.02,0.059,0.025,0.123,0.025,0.192V25.934z"/>
		<path fill-rule="evenodd" clip-rule="evenodd" fill="#C8C8C8" d="M56.775,26.96h0.432v-1.349c0.1,0.025,0.219,0.03,0.348,0.03
			c0.422,0,0.793-0.124,1.021-0.367c0.174-0.173,0.264-0.41,0.264-0.712c0-0.291-0.115-0.533-0.299-0.691
			c-0.197-0.178-0.51-0.277-0.938-0.277c-0.346,0-0.619,0.029-0.828,0.069V26.96z M57.207,23.971
			c0.076-0.021,0.219-0.035,0.406-0.035c0.477,0,0.789,0.213,0.789,0.652c0,0.454-0.318,0.706-0.838,0.706
			c-0.143,0-0.262-0.01-0.357-0.034V23.971z"/>
		<path fill-rule="evenodd" clip-rule="evenodd" fill="#C8C8C8" d="M59.369,26.96h0.438v-1.284c0-0.069,0.004-0.139,0.014-0.203
			c0.061-0.322,0.277-0.556,0.586-0.556c0.059,0,0.104,0.006,0.148,0.011v-0.412c-0.039-0.005-0.074-0.01-0.119-0.01
			c-0.291,0-0.561,0.203-0.67,0.525h-0.014l-0.02-0.471H59.35c0.016,0.223,0.02,0.466,0.02,0.749V26.96z"/>
		<path fill-rule="evenodd" clip-rule="evenodd" fill="#C8C8C8" d="M62.021,27.015c0.572,0,1.191-0.387,1.191-1.279
			c0-0.729-0.467-1.229-1.156-1.229c-0.66,0-1.189,0.472-1.189,1.274c0,0.758,0.506,1.234,1.15,1.234H62.021z M62.033,26.688
			c-0.422,0-0.721-0.396-0.721-0.922c0-0.456,0.223-0.933,0.734-0.933c0.516,0,0.719,0.511,0.719,0.918
			c0,0.545-0.313,0.937-0.729,0.937H62.033z"/>
		<path fill-rule="evenodd" clip-rule="evenodd" fill="#C8C8C8" d="M63.813,27.941h0.436v-1.304h0.01
			c0.145,0.238,0.416,0.377,0.738,0.377c0.561,0,1.092-0.426,1.092-1.289c0-0.729-0.436-1.22-1.021-1.22
			c-0.387,0-0.674,0.169-0.848,0.466h-0.01l-0.025-0.411h-0.393c0.016,0.229,0.021,0.477,0.021,0.783V27.941z M64.248,25.566
			c0-0.054,0.016-0.118,0.025-0.173c0.084-0.333,0.367-0.541,0.664-0.541c0.461,0,0.709,0.412,0.709,0.894
			c0,0.55-0.268,0.927-0.729,0.927c-0.309,0-0.576-0.209-0.65-0.511c-0.014-0.055-0.02-0.119-0.02-0.179V25.566z"/>
		<path fill-rule="evenodd" clip-rule="evenodd" fill="#C8C8C8" d="M66.732,26.96h0.438v-1.284c0-0.069,0.004-0.139,0.014-0.203
			c0.059-0.322,0.277-0.556,0.584-0.556c0.061,0,0.105,0.006,0.15,0.011v-0.412c-0.041-0.005-0.074-0.01-0.119-0.01
			c-0.293,0-0.561,0.203-0.67,0.525h-0.016l-0.02-0.471h-0.381c0.014,0.223,0.02,0.466,0.02,0.749V26.96z"/>
		<path fill-rule="evenodd" clip-rule="evenodd" fill="#C8C8C8" d="M68.908,26.96v-2.399h-0.436v2.399H68.908z M68.686,24.159
			c0.17,0,0.273-0.124,0.273-0.268c0-0.154-0.109-0.273-0.268-0.273c-0.164,0-0.273,0.119-0.273,0.273
			c0,0.144,0.104,0.268,0.264,0.268H68.686z"/>
		<path fill-rule="evenodd" clip-rule="evenodd" fill="#C8C8C8" d="M70.713,27.015c0.57,0,1.191-0.387,1.191-1.279
			c0-0.729-0.467-1.229-1.156-1.229c-0.66,0-1.189,0.472-1.189,1.274c0,0.758,0.506,1.234,1.15,1.234H70.713z M70.723,26.688
			c-0.42,0-0.719-0.396-0.719-0.922c0-0.456,0.225-0.933,0.734-0.933c0.516,0,0.719,0.511,0.719,0.918
			c0,0.545-0.313,0.937-0.729,0.937H70.723z"/>
		<path fill-rule="evenodd" clip-rule="evenodd" fill="#C8C8C8" d="M74.189,26.543c-0.125,0.055-0.287,0.115-0.535,0.115
			c-0.477,0-0.834-0.343-0.834-0.898c0-0.495,0.297-0.907,0.848-0.907c0.238,0,0.402,0.06,0.506,0.114l0.1-0.332
			c-0.119-0.064-0.348-0.129-0.605-0.129c-0.783,0-1.289,0.54-1.289,1.279c0,0.734,0.471,1.225,1.195,1.225
			c0.322,0,0.574-0.084,0.689-0.14L74.189,26.543z"/>
		<path fill-rule="evenodd" clip-rule="evenodd" fill="#C8C8C8" d="M76.771,25.84c0.012-0.05,0.016-0.114,0.016-0.203
			c0-0.441-0.203-1.131-0.986-1.131c-0.699,0-1.131,0.57-1.131,1.294c0,0.72,0.445,1.21,1.18,1.21c0.381,0,0.65-0.084,0.805-0.153
			l-0.08-0.313c-0.158,0.069-0.352,0.124-0.664,0.124c-0.438,0-0.809-0.242-0.818-0.827H76.771z M75.096,25.527
			c0.035-0.303,0.223-0.709,0.67-0.709c0.486,0,0.605,0.431,0.6,0.709H75.096z"/>
		<path fill-rule="evenodd" clip-rule="evenodd" fill="#C8C8C8" d="M77.426,27.941h0.438v-1.304h0.01
			c0.143,0.238,0.416,0.377,0.738,0.377c0.561,0,1.092-0.426,1.092-1.289c0-0.729-0.438-1.22-1.021-1.22
			c-0.387,0-0.676,0.169-0.848,0.466h-0.01l-0.025-0.411h-0.393c0.016,0.229,0.02,0.477,0.02,0.783V27.941z M77.863,25.566
			c0-0.054,0.014-0.118,0.023-0.173c0.086-0.333,0.367-0.541,0.666-0.541c0.461,0,0.709,0.412,0.709,0.894
			c0,0.55-0.268,0.927-0.729,0.927c-0.309,0-0.576-0.209-0.65-0.511c-0.016-0.055-0.02-0.119-0.02-0.179V25.566z"/>
		<path fill-rule="evenodd" clip-rule="evenodd" fill="#C8C8C8" d="M80.445,24.119v0.441h-0.371v0.332h0.371v1.304
			c0,0.283,0.051,0.496,0.17,0.63c0.104,0.114,0.268,0.184,0.471,0.184c0.168,0,0.303-0.03,0.387-0.06l-0.02-0.332
			c-0.064,0.02-0.135,0.03-0.254,0.03c-0.242,0-0.326-0.169-0.326-0.467v-1.289h0.625v-0.332h-0.625v-0.575L80.445,24.119z"/>
		<path fill-rule="evenodd" clip-rule="evenodd" fill="#C8C8C8" d="M82.523,26.96v-2.399h-0.438v2.399H82.523z M82.301,24.159
			c0.168,0,0.271-0.124,0.271-0.268c0-0.154-0.109-0.273-0.268-0.273c-0.162,0-0.271,0.119-0.271,0.273
			c0,0.144,0.104,0.268,0.262,0.268H82.301z"/>
		<path fill-rule="evenodd" clip-rule="evenodd" fill="#C8C8C8" d="M84.328,27.015c0.57,0,1.189-0.387,1.189-1.279
			c0-0.729-0.465-1.229-1.154-1.229c-0.66,0-1.191,0.472-1.191,1.274c0,0.758,0.508,1.234,1.15,1.234H84.328z M84.338,26.688
			c-0.422,0-0.719-0.396-0.719-0.922c0-0.456,0.223-0.933,0.734-0.933c0.514,0,0.719,0.511,0.719,0.918
			c0,0.545-0.313,0.937-0.73,0.937H84.338z"/>
		<path fill-rule="evenodd" clip-rule="evenodd" fill="#C8C8C8" d="M86.168,26.96h0.436v-1.447c0-0.069,0.01-0.149,0.029-0.203
			c0.08-0.244,0.303-0.446,0.586-0.446c0.412,0,0.555,0.326,0.555,0.714v1.383h0.438v-1.433c0-0.823-0.518-1.021-0.85-1.021
			c-0.396,0-0.674,0.224-0.791,0.446h-0.012l-0.023-0.392h-0.389c0.016,0.198,0.021,0.396,0.021,0.649V26.96z"/>
	</g>
	<path fill-rule="evenodd" clip-rule="evenodd" fill="#C8C8C8" fill-opacity="0.5" d="M23.949,12.453
		c-0.629,3.115-2.811,7.855-5.816,10.853c-8.215,8.445-15.229-3.402-13.99-11.433c0.416-2.705,1.244-5.831,3.389-7.74
		C11.105,0.95,18.076,1.32,21.486,4.606c-0.938-0.866-2.09-1.932-0.186-0.171C23.594,6.557,24.523,9.614,23.949,12.453z"/>
	<g>
		<path fill-rule="evenodd" clip-rule="evenodd" fill="#C8C8C8" d="M8.598,15.604C7.34,13.566,6.096,9.841,6.199,6.657
			c0.148-8.842,10.072-5.887,13.523-0.83c1.162,1.704,2.316,3.849,2.127,5.994c-0.318,3.577-4.318,6.926-7.873,6.853
			c0.959,0,2.135,0,0.189,0C11.822,18.674,9.744,17.462,8.598,15.604z"/>
		<path fill-rule="evenodd" clip-rule="evenodd" fill="#C8C8C8" fill-opacity="0.7" d="M13.469,21.079
			c-1.852,0.76-5.08,1.256-7.672,0.694C-1.422,20.329,2.43,12.38,7.07,10.215c1.563-0.729,3.484-1.386,5.213-0.903
			c2.883,0.801,5.047,4.684,4.475,7.677c0.139-0.811,0.309-1.806,0.027-0.16C16.447,18.81,15.154,20.387,13.469,21.079z"/>
		<path fill-rule="evenodd" clip-rule="evenodd" fill="#C8C8C8" fill-opacity="0.8" d="M18.543,13.736
			c-1.67-0.534-4.424-0.666-6.447,0.151c-5.654,2.161-0.928,9.404,3.313,10.993c1.428,0.535,3.139,0.962,4.467,0.314
			c2.215-1.08,3.234-5.05,2.178-7.87c0.271,0.765,0.607,1.705,0.053,0.15C21.439,15.604,20.066,14.224,18.543,13.736z"/>
	</g>
	<path fill-rule="evenodd" clip-rule="evenodd" fill="#C8C8C8" d="M36.266,14.726c0.031-0.175,0.063-0.461,0.063-0.825
		c0-1.696-0.824-3.757-3.328-3.757c-2.473,0-3.773,2.014-3.773,4.153c0,2.361,1.475,3.899,3.979,3.899
		c1.109,0,2.029-0.206,2.695-0.491l-0.285-1.332c-0.604,0.206-1.238,0.35-2.141,0.35c-1.236,0-2.33-0.603-2.379-1.997H36.266z
		 M31.096,13.361c0.08-0.792,0.588-1.886,1.793-1.886c1.299,0,1.617,1.173,1.602,1.886H31.096z"/>
	<path fill-rule="evenodd" clip-rule="evenodd" fill="#C8C8C8" d="M37.82,18.035h1.775v-2.958c0.248,0.047,0.539,0.058,0.873,0.058
		c1.268,0,2.373-0.278,3.1-0.846c0.539-0.417,0.83-1.021,0.83-1.763c0-0.73-0.379-1.346-0.961-1.729
		c-0.625-0.417-1.57-0.638-2.881-0.638c-1.193,0-2.08,0.069-2.736,0.162V18.035z M39.596,11.575
		c0.189-0.028,0.539-0.056,1.033-0.056c1.238,0,2.119,0.372,2.119,1.063c0,0.727-0.939,1.156-2.279,1.156
		c-0.363,0-0.639-0.01-0.873-0.058V11.575z"/>
	<path fill-rule="evenodd" clip-rule="evenodd" fill="#C8C8C8" d="M54.434,16.354c-0.381,0.159-0.871,0.301-1.539,0.301
		c-1.33,0-2.361-0.903-2.361-2.489c-0.016-1.41,0.873-2.504,2.361-2.504c0.699,0,1.158,0.143,1.475,0.301l0.35-1.474
		c-0.445-0.19-1.174-0.35-1.887-0.35c-2.711,0-4.295,1.792-4.295,4.106c0,2.394,1.568,3.946,3.979,3.946
		c0.967,0,1.775-0.206,2.188-0.396L54.434,16.354z"/>
	<path fill-rule="evenodd" clip-rule="evenodd" fill="#C8C8C8" d="M55.773,17.653c0.572,0.317,1.412,0.539,2.348,0.539
		c2.045,0,3.139-1.014,3.139-2.425c-0.018-1.142-0.65-1.854-2.061-2.347c-0.984-0.363-1.348-0.586-1.348-1.077
		c0-0.476,0.379-0.824,1.078-0.824c0.682,0,1.314,0.254,1.633,0.443l0.395-1.362c-0.459-0.254-1.203-0.461-2.061-0.461
		c-1.791,0-2.916,1.047-2.916,2.41c0,0.919,0.619,1.744,2.123,2.251c0.951,0.349,1.27,0.603,1.27,1.125
		c0,0.508-0.381,0.872-1.236,0.872c-0.697,0-1.537-0.302-1.967-0.57L55.773,17.653z"/>
	<rect x="45.334" y="10.325" fill-rule="evenodd" clip-rule="evenodd" fill="#C8C8C8" width="1.775" height="7.71"/>
</g>
</svg>
