<?xml version="1.0" encoding="UTF-8" standalone="no"?>
<!-- Created with Inkscape (http://www.inkscape.org/) -->

<svg
   xmlns:dc="http://purl.org/dc/elements/1.1/"
   xmlns:cc="http://creativecommons.org/ns#"
   xmlns:rdf="http://www.w3.org/1999/02/22-rdf-syntax-ns#"
   xmlns:svg="http://www.w3.org/2000/svg"
   xmlns="http://www.w3.org/2000/svg"
   xmlns:sodipodi="http://sodipodi.sourceforge.net/DTD/sodipodi-0.dtd"
   xmlns:inkscape="http://www.inkscape.org/namespaces/inkscape"
   version="1.1"
   width="124"
   height="35"
   viewBox="0 0 124 35"
   id="Ebene_1"
   xml:space="preserve"
   inkscape:version="0.48.4 r9939"
   sodipodi:docname="logo_reconos.svg"><sodipodi:namedview
     pagecolor="#ffffff"
     bordercolor="#666666"
     borderopacity="1"
     objecttolerance="10"
     gridtolerance="10"
     guidetolerance="10"
     inkscape:pageopacity="0"
     inkscape:pageshadow="2"
     inkscape:window-width="640"
     inkscape:window-height="480"
     id="namedview55"
     showgrid="false"
     inkscape:zoom="3.2580645"
     inkscape:cx="62"
     inkscape:cy="17.5"
     inkscape:window-x="0"
     inkscape:window-y="25"
     inkscape:window-maximized="0"
     inkscape:current-layer="Ebene_1" /><metadata
     id="metadata107"><rdf:RDF><cc:Work
         rdf:about=""><dc:format>image/svg+xml</dc:format><dc:type
           rdf:resource="http://purl.org/dc/dcmitype/StillImage" /><dc:title></dc:title></cc:Work></rdf:RDF></metadata><defs
     id="defs105" /><g
     transform="matrix(0.52169428,0,0,0.52169428,0.45270929,0.66956399)"
     id="g3"><path
       d="M 3.327,61.756 V 28.818 c 0,-3.005 0.443,-5.526 1.33,-7.568 0.884,-2.04 2.097,-3.677 3.639,-4.91 1.462,-1.155 3.177,-2.001 5.141,-2.541 1.964,-0.539 3.986,-0.809 6.065,-0.809 0.154,0 0.347,0 0.578,0 0.231,0 0.423,0 0.578,0 v 8.203 H 18 c -2.234,0 -3.89,0.54 -4.967,1.618 -1.079,1.079 -1.617,2.772 -1.617,5.082 V 61.756 H 3.327 z"
       id="path5"
       style="fill:#141414" /><path
       d="m 44.908,34.248 h 5.776 c -0.849,3.234 -2.466,5.699 -4.852,7.393 -2.389,1.773 -5.393,2.657 -9.012,2.657 -4.39,0 -7.818,-1.425 -10.282,-4.274 -2.466,-2.772 -3.697,-6.738 -3.697,-11.899 0,-4.927 1.194,-8.779 3.582,-11.553 2.464,-2.848 5.891,-4.274 10.282,-4.274 4.621,0 8.203,1.387 10.744,4.159 2.464,2.85 3.697,6.816 3.697,11.899 0,0.309 0,0.578 0,0.809 0,0.231 0,0.386 0,0.462 0,0.387 -0.04,0.655 -0.115,0.809 H 31.045 c 0.076,2.388 0.653,4.159 1.733,5.315 1,1.232 2.501,1.848 4.505,1.848 1.31,0 2.426,-0.27 3.351,-0.809 0.231,-0.076 0.442,-0.212 0.634,-0.404 0.191,-0.191 0.405,-0.404 0.636,-0.635 0.076,-0.232 0.365,-0.539 0.867,-0.925 0.499,-0.386 1.213,-0.578 2.137,-0.578 z M 31.045,25.236 h 11.783 c -0.155,-2.08 -0.693,-3.619 -1.618,-4.621 -1.001,-1.078 -2.425,-1.617 -4.274,-1.617 -1.694,0 -3.082,0.54 -4.158,1.617 -1.08,1.08 -1.657,2.619 -1.733,4.621 z"
       id="path7"
       style="fill:#141414" /><path
       d="m 75.859,34.248 h 5.777 c -0.849,3.234 -2.466,5.699 -4.852,7.393 -2.388,1.773 -5.392,2.657 -9.012,2.657 -4.389,0 -7.817,-1.425 -10.282,-4.274 -2.465,-2.772 -3.697,-6.738 -3.697,-11.899 0,-4.927 1.193,-8.779 3.583,-11.553 2.463,-2.848 5.891,-4.274 10.281,-4.274 4.622,0 8.202,1.387 10.744,4.159 1.387,1.695 2.386,3.659 3.003,5.891 h -8.087 c -0.386,-0.768 -0.771,-1.346 -1.155,-1.732 -1.001,-1.078 -2.426,-1.617 -4.274,-1.617 -1.695,0 -3.081,0.54 -4.159,1.617 -1.386,1.542 -2.079,4.083 -2.079,7.625 0,3.544 0.693,6.047 2.079,7.51 1.001,1.232 2.503,1.848 4.506,1.848 1.309,0 2.425,-0.27 3.35,-0.809 0.232,-0.076 0.443,-0.212 0.635,-0.404 0.192,-0.191 0.405,-0.404 0.637,-0.635 0.153,-0.232 0.461,-0.539 0.924,-0.925 0.46,-0.386 1.154,-0.578 2.078,-0.578 z"
       id="path9"
       style="fill:#141414" /><path
       d="m 88.789,40.948 c -1.616,-1.388 -2.772,-3.253 -3.466,-5.604 -0.692,-2.348 -1.039,-4.793 -1.039,-7.334 0,-2.08 0.289,-4.16 0.867,-6.239 0.578,-2.08 1.481,-3.812 2.714,-5.199 2.001,-2.31 4.581,-3.676 7.74,-4.1 3.158,-0.423 6.007,-0.174 8.549,0.75 2.925,1.155 5.083,3.159 6.47,6.007 1.308,2.542 1.963,5.507 1.963,8.895 0,2.466 -0.271,4.583 -0.809,6.354 -0.54,1.774 -1.232,3.275 -2.079,4.506 -1.848,2.542 -4.198,4.122 -7.046,4.737 -2.542,0.693 -5.104,0.751 -7.682,0.172 -2.583,-0.578 -4.642,-1.559 -6.182,-2.945 z m 5.546,-20.333 c -1.619,1.773 -2.351,4.41 -2.196,7.914 0.153,3.505 0.809,5.949 1.964,7.335 0.461,0.617 1.27,1.138 2.426,1.56 1.154,0.424 2.328,0.463 3.523,0.115 1.193,-0.346 2.251,-1.213 3.177,-2.599 0.924,-1.386 1.424,-3.619 1.501,-6.701 0,-2.772 -0.443,-4.853 -1.328,-6.238 -0.886,-1.386 -1.906,-2.271 -3.062,-2.657 -1.154,-0.385 -2.311,-0.405 -3.466,-0.058 -1.153,0.347 -2.002,0.791 -2.539,1.329 z"
       id="path11"
       style="fill:#141414" /><path
       d="m 142.73,43.721 h -4.043 c -1.156,0 -2.099,-0.365 -2.83,-1.098 -0.733,-0.731 -1.098,-1.675 -1.098,-2.83 V 24.081 c 0,-1.848 -0.561,-3.195 -1.676,-4.043 -1.117,-0.847 -2.367,-1.271 -3.754,-1.271 -1.387,0 -2.62,0.424 -3.697,1.271 -1.08,0.848 -1.617,2.195 -1.617,4.043 v 19.64 h -8.087 V 25.698 c 0,-5.236 1.366,-8.74 4.101,-10.513 2.733,-1.771 5.758,-2.733 9.07,-2.888 3.387,0 6.507,0.886 9.357,2.658 2.848,1.772 4.273,5.354 4.273,10.744 v 18.022 z"
       id="path13"
       style="fill:#141414" /><path
       d="m 148.359,23.85 c 0,-6.469 1.693,-11.59 5.083,-15.365 3.619,-3.772 8.355,-5.661 14.21,-5.661 5.775,0 10.512,1.888 14.209,5.661 3.466,3.852 5.199,8.973 5.199,15.365 0,6.395 -1.733,11.478 -5.199,15.25 -3.543,3.697 -8.279,5.545 -14.209,5.545 -6.008,0 -10.744,-1.848 -14.21,-5.545 -3.389,-3.698 -5.083,-8.78 -5.083,-15.25 z m 8.203,0 c 0,4.468 0.962,7.856 2.888,10.167 1.925,2.388 4.659,3.581 8.203,3.581 3.465,0 6.197,-1.193 8.202,-3.581 2.002,-2.464 3.003,-5.853 3.003,-10.167 0,-4.312 -1.001,-7.74 -3.003,-10.282 -2.005,-2.386 -4.737,-3.581 -8.202,-3.581 -3.544,0 -6.278,1.195 -8.203,3.581 -1.927,2.389 -2.888,5.815 -2.888,10.282 z"
       id="path15"
       style="fill:#823c3c" /><path
       d="m 190.979,31.36 h 8.088 c 0.307,2.31 1.192,3.926 2.656,4.851 1.541,1.08 3.656,1.617 6.354,1.617 2.386,0 4.196,-0.422 5.431,-1.271 1.23,-0.847 1.847,-2.08 1.847,-3.697 0,-2.464 -3.466,-4.466 -10.397,-6.008 l -0.23,-0.116 -0.924,-0.23 c -3.928,-0.846 -6.547,-1.734 -7.855,-2.658 -1.541,-0.847 -2.62,-2.079 -3.234,-3.697 -0.771,-1.386 -1.155,-3.156 -1.155,-5.313 0,-3.773 1.308,-6.739 3.927,-8.897 2.618,-2.078 6.43,-3.118 11.438,-3.118 4.697,0 8.318,1.079 10.859,3.234 2.617,2.389 4.004,5.508 4.158,9.357 h -4.621 c -1.771,0 -3.043,-0.809 -3.811,-2.426 -0.388,-0.769 -0.926,-1.424 -1.619,-1.964 -1.386,-1 -3.273,-1.502 -5.66,-1.502 -2.311,0 -3.967,0.424 -4.968,1.271 -1.155,0.848 -1.732,2.041 -1.732,3.582 0,2.079 2.233,3.621 6.7,4.621 1.309,0.385 2.271,0.617 2.889,0.692 1.386,0.462 2.6,0.829 3.639,1.098 1.039,0.271 1.866,0.483 2.484,0.636 1.077,0.462 2.154,0.923 3.234,1.387 1.539,0.924 2.732,2.119 3.582,3.581 0.846,1.618 1.27,3.389 1.27,5.314 0,4.158 -1.387,7.394 -4.158,9.704 -2.772,2.157 -6.701,3.234 -11.784,3.234 -5.237,0 -9.167,-1.115 -11.783,-3.351 -2.854,-2.23 -4.394,-5.541 -4.625,-9.931 z"
       id="path17"
       style="fill:#823c3c" /><g
       id="g19"><path
         d="m 20.525,57.234 c 0,-1.123 0.294,-2.012 0.883,-2.668 0.628,-0.654 1.451,-0.982 2.468,-0.982 1.003,0 1.826,0.328 2.467,0.982 0.602,0.67 0.903,1.559 0.903,2.668 0,1.111 -0.301,1.994 -0.903,2.648 -0.615,0.643 -1.438,0.963 -2.467,0.963 -1.043,0 -1.866,-0.32 -2.468,-0.963 -0.589,-0.641 -0.883,-1.524 -0.883,-2.648 z m 1.425,0 c 0,0.776 0.167,1.365 0.501,1.766 0.334,0.415 0.809,0.622 1.424,0.622 0.602,0 1.076,-0.207 1.424,-0.622 0.348,-0.428 0.521,-1.016 0.521,-1.766 0,-0.748 -0.174,-1.344 -0.521,-1.785 -0.348,-0.414 -0.823,-0.621 -1.424,-0.621 -0.615,0 -1.09,0.207 -1.424,0.621 -0.334,0.415 -0.501,1.01 -0.501,1.785 z"
         id="path21"
         style="fill:#787878" /><path
         d="m 29.085,61.969 c 0,0.188 -0.067,0.348 -0.201,0.482 -0.134,0.133 -0.294,0.2 -0.481,0.2 h -0.682 v -4.995 c 0,-0.936 0.274,-1.574 0.823,-1.916 0.548,-0.341 1.143,-0.512 1.785,-0.512 0.334,0 0.672,0.064 1.013,0.191 0.341,0.127 0.612,0.311 0.813,0.551 0.401,0.521 0.602,1.191 0.602,2.006 0,0.844 -0.201,1.525 -0.602,2.047 -0.401,0.508 -0.916,0.762 -1.545,0.762 -0.334,0 -0.628,-0.06 -0.882,-0.18 -0.268,-0.134 -0.481,-0.342 -0.642,-0.622 v 1.986 z m 2.288,-3.932 c 0,-0.521 -0.101,-0.922 -0.301,-1.203 -0.2,-0.281 -0.488,-0.422 -0.862,-0.422 -0.361,0 -0.642,0.141 -0.843,0.422 -0.188,0.254 -0.281,0.655 -0.281,1.203 0,0.509 0.1,0.891 0.301,1.145 0.201,0.28 0.488,0.42 0.863,0.42 0.348,0 0.622,-0.14 0.822,-0.42 0.2,-0.282 0.301,-0.662 0.301,-1.145 z"
         id="path23"
         style="fill:#787878" /><path
         d="m 36.863,59.041 h 1.003 c -0.147,0.561 -0.428,0.989 -0.842,1.283 -0.415,0.309 -0.937,0.461 -1.565,0.461 -0.762,0 -1.357,-0.246 -1.786,-0.742 -0.428,-0.48 -0.642,-1.17 -0.642,-2.066 0,-0.855 0.208,-1.523 0.622,-2.006 0.428,-0.494 1.023,-0.742 1.786,-0.742 0.802,0 1.424,0.241 1.866,0.723 0.428,0.494 0.642,1.184 0.642,2.066 0,0.053 0,0.1 0,0.141 0,0.039 0,0.066 0,0.08 0,0.066 -0.007,0.113 -0.021,0.141 h -3.47 c 0.013,0.414 0.113,0.722 0.301,0.922 0.174,0.215 0.435,0.321 0.782,0.321 0.228,0 0.421,-0.046 0.582,-0.14 0.04,-0.014 0.077,-0.037 0.11,-0.07 0.033,-0.033 0.07,-0.07 0.11,-0.111 0.013,-0.039 0.063,-0.093 0.15,-0.16 0.088,-0.068 0.211,-0.101 0.372,-0.101 z m -2.407,-1.565 h 2.046 c -0.027,-0.36 -0.12,-0.628 -0.281,-0.802 -0.174,-0.188 -0.421,-0.281 -0.742,-0.281 -0.294,0 -0.535,0.094 -0.722,0.281 -0.188,0.187 -0.288,0.454 -0.301,0.802 z"
         id="path25"
         style="fill:#787878" /><path
         d="m 38.321,60.686 v -2.588 c 0,-0.521 0.077,-0.959 0.23,-1.314 0.154,-0.354 0.364,-0.639 0.632,-0.852 0.254,-0.201 0.552,-0.348 0.893,-0.441 0.341,-0.093 0.692,-0.141 1.053,-0.141 0.027,0 0.06,0 0.1,0 0.041,0 0.074,0 0.101,0 v 1.424 h -0.461 c -0.388,0 -0.676,0.094 -0.863,0.281 -0.188,0.188 -0.281,0.481 -0.281,0.883 v 2.748 h -1.404 z"
         id="path27"
         style="fill:#787878" /><path
         d="m 45.035,60.465 c -0.281,0.147 -0.579,0.237 -0.893,0.271 -0.314,0.033 -0.592,0.049 -0.833,0.049 -0.481,0 -0.903,-0.13 -1.264,-0.391 -0.361,-0.261 -0.542,-0.691 -0.542,-1.294 0,-0.562 0.164,-0.963 0.492,-1.204 0.328,-0.24 0.746,-0.4 1.254,-0.48 0.067,0 0.147,-0.011 0.241,-0.031 0.093,-0.02 0.201,-0.036 0.321,-0.049 0.588,-0.081 0.883,-0.254 0.883,-0.522 0,-0.2 -0.104,-0.331 -0.311,-0.392 -0.208,-0.06 -0.398,-0.09 -0.572,-0.09 -0.188,0 -0.354,0.027 -0.501,0.08 -0.147,0.054 -0.254,0.154 -0.321,0.301 h -1.344 c 0.053,-0.414 0.241,-0.755 0.562,-1.022 0.361,-0.308 0.876,-0.462 1.545,-0.462 0.749,0 1.311,0.127 1.685,0.381 0.388,0.269 0.582,0.643 0.582,1.124 v 1.825 c 0,0.535 -0.097,0.953 -0.291,1.254 -0.194,0.301 -0.426,0.519 -0.693,0.652 z m -0.322,-2.468 c -0.188,0.094 -0.448,0.181 -0.782,0.261 l -0.461,0.101 c -0.241,0.067 -0.415,0.153 -0.521,0.261 -0.094,0.147 -0.141,0.295 -0.141,0.441 0,0.201 0.06,0.361 0.181,0.481 0.12,0.107 0.294,0.161 0.521,0.161 0.375,0 0.668,-0.107 0.883,-0.322 0.214,-0.213 0.321,-0.508 0.321,-0.882 v -0.502 z"
         id="path29"
         style="fill:#787878" /><path
         d="m 48.74,60.686 c -0.441,0.027 -0.919,0.02 -1.435,-0.02 -0.515,-0.041 -0.772,-0.368 -0.772,-0.983 v -5.898 h 0.722 c 0.173,0 0.328,0.067 0.461,0.2 0.133,0.135 0.201,0.295 0.201,0.482 v 0.902 h 0.822 v 0.281 c 0,0.2 -0.067,0.364 -0.201,0.491 -0.134,0.128 -0.294,0.19 -0.481,0.19 h -0.14 V 59.3 c 0,0.229 0.133,0.342 0.401,0.342 h 0.421 v 1.044 z"
         id="path31"
         style="fill:#787878" /><path
         d="m 49.135,53.784 h 0.722 c 0.187,0 0.348,0.067 0.481,0.2 0.133,0.135 0.201,0.295 0.201,0.482 v 0.421 h -1.404 v -1.103 z m 0,1.566 h 0.722 c 0.187,0 0.348,0.066 0.481,0.2 0.133,0.134 0.201,0.294 0.201,0.481 v 4.654 H 49.135 V 55.35 z"
         id="path33"
         style="fill:#787878" /><path
         d="m 55.408,60.686 h -0.702 c -0.201,0 -0.365,-0.063 -0.492,-0.19 -0.127,-0.127 -0.19,-0.291 -0.19,-0.491 v -2.729 c 0,-0.321 -0.097,-0.555 -0.291,-0.703 -0.194,-0.146 -0.411,-0.221 -0.652,-0.221 -0.241,0 -0.455,0.074 -0.642,0.221 -0.188,0.148 -0.281,0.382 -0.281,0.703 v 3.41 h -1.404 v -3.129 c 0,-0.91 0.237,-1.519 0.712,-1.826 0.474,-0.308 1,-0.475 1.575,-0.502 0.588,0 1.13,0.154 1.625,0.462 0.495,0.308 0.742,0.93 0.742,1.866 v 3.129 z"
         id="path35"
         style="fill:#787878" /><path
         d="m 59.313,60.365 v -0.342 c -0.241,0.375 -0.565,0.609 -0.973,0.702 -0.408,0.093 -0.813,0.06 -1.213,-0.101 -0.401,-0.16 -0.746,-0.457 -1.033,-0.893 -0.288,-0.434 -0.432,-1.006 -0.432,-1.715 0,-0.829 0.191,-1.502 0.572,-2.017 0.381,-0.515 0.993,-0.772 1.836,-0.772 0.642,0 1.237,0.174 1.785,0.521 0.548,0.347 0.823,0.99 0.823,1.926 v 2.829 c 0,0.937 -0.274,1.575 -0.823,1.916 -0.549,0.341 -1.143,0.512 -1.785,0.512 -1.231,0 -1.993,-0.575 -2.287,-1.726 h 1.464 c 0.107,0.188 0.271,0.331 0.492,0.432 0.221,0.1 0.441,0.127 0.662,0.08 0.221,-0.047 0.421,-0.178 0.602,-0.391 0.18,-0.213 0.283,-0.533 0.31,-0.961 z m -2.287,-2.307 c 0,0.923 0.268,1.435 0.803,1.534 0.535,0.101 0.929,-0.023 1.184,-0.371 0.12,-0.146 0.207,-0.377 0.261,-0.691 0.053,-0.314 0.057,-0.625 0.01,-0.934 -0.047,-0.307 -0.157,-0.582 -0.331,-0.822 -0.174,-0.24 -0.428,-0.361 -0.763,-0.361 -0.455,0 -0.762,0.168 -0.923,0.502 -0.161,0.333 -0.241,0.714 -0.241,1.143 z"
         id="path37"
         style="fill:#787878" /><path
         d="m 63.533,58.539 h 1.404 c 0.053,0.401 0.207,0.682 0.461,0.842 0.268,0.188 0.635,0.281 1.104,0.281 0.414,0 0.729,-0.073 0.943,-0.221 0.214,-0.146 0.321,-0.361 0.321,-0.642 0,-0.428 -0.602,-0.775 -1.806,-1.044 l -0.04,-0.02 -0.16,-0.04 c -0.682,-0.147 -1.137,-0.301 -1.364,-0.462 -0.268,-0.146 -0.455,-0.36 -0.562,-0.642 -0.134,-0.241 -0.201,-0.548 -0.201,-0.923 0,-0.654 0.228,-1.17 0.682,-1.545 0.455,-0.361 1.117,-0.541 1.986,-0.541 0.815,0 1.444,0.188 1.886,0.562 0.455,0.415 0.695,0.956 0.722,1.625 h -0.802 c -0.308,0 -0.529,-0.141 -0.662,-0.421 -0.067,-0.134 -0.161,-0.248 -0.281,-0.342 -0.241,-0.174 -0.569,-0.26 -0.983,-0.26 -0.401,0 -0.689,0.072 -0.862,0.221 -0.201,0.146 -0.301,0.354 -0.301,0.621 0,0.361 0.388,0.629 1.164,0.803 0.228,0.066 0.395,0.107 0.501,0.12 0.241,0.08 0.452,0.144 0.632,0.19 0.18,0.047 0.324,0.084 0.431,0.11 0.187,0.081 0.375,0.161 0.562,0.241 0.268,0.16 0.475,0.367 0.622,0.621 0.147,0.281 0.221,0.59 0.221,0.924 0,0.722 -0.241,1.283 -0.722,1.685 -0.481,0.374 -1.164,0.562 -2.046,0.562 -0.91,0 -1.592,-0.193 -2.046,-0.582 -0.496,-0.385 -0.764,-0.961 -0.804,-1.723 z"
         id="path39"
         style="fill:#787878" /><path
         d="m 70.348,62.571 v -1.104 h 0.381 c 0.267,0 0.478,-0.063 0.632,-0.19 0.154,-0.127 0.184,-0.331 0.09,-0.611 L 69.585,55.35 h 1.545 l 1.083,3.771 0.943,-3.291 c 0.081,-0.32 0.294,-0.48 0.642,-0.48 h 0.963 l -2.046,6.078 c -0.16,0.441 -0.361,0.756 -0.602,0.943 -0.241,0.16 -0.635,0.24 -1.184,0.24 -0.04,0 -0.087,0 -0.141,0 -0.054,0 -0.1,0 -0.14,0 -0.041,-0.014 -0.09,-0.023 -0.151,-0.029 -0.059,-0.008 -0.109,-0.011 -0.149,-0.011 z"
         id="path41"
         style="fill:#787878" /><path
         d="m 75.035,58.92 h 1.364 c 0.013,0.268 0.114,0.469 0.301,0.602 0.2,0.135 0.468,0.201 0.802,0.201 0.241,0 0.448,-0.047 0.622,-0.141 0.16,-0.094 0.241,-0.221 0.241,-0.381 0,-0.24 -0.281,-0.422 -0.843,-0.542 -0.241,-0.04 -0.421,-0.08 -0.542,-0.12 -0.709,-0.174 -1.184,-0.381 -1.424,-0.622 -0.268,-0.241 -0.401,-0.562 -0.401,-0.963 0,-0.509 0.194,-0.929 0.582,-1.264 0.401,-0.308 0.923,-0.462 1.565,-0.462 0.695,0 1.25,0.154 1.665,0.462 0.388,0.335 0.595,0.769 0.622,1.304 h -0.863 c -0.254,0 -0.448,-0.113 -0.582,-0.341 -0.054,-0.054 -0.107,-0.106 -0.161,-0.161 -0.161,-0.119 -0.381,-0.18 -0.662,-0.18 -0.268,0 -0.468,0.039 -0.602,0.12 -0.121,0.08 -0.181,0.2 -0.181,0.36 0,0.215 0.348,0.396 1.043,0.543 0.081,0.026 0.151,0.047 0.211,0.06 0.06,0.014 0.117,0.021 0.17,0.021 0.682,0.174 1.157,0.374 1.424,0.602 0.254,0.24 0.381,0.562 0.381,0.963 0,0.588 -0.214,1.043 -0.642,1.364 -0.401,0.294 -1.003,0.44 -1.806,0.44 -0.762,0 -1.331,-0.152 -1.705,-0.461 -0.388,-0.307 -0.582,-0.756 -0.582,-1.344 v -0.06 z"
         id="path43"
         style="fill:#787878" /><path
         d="m 82.512,60.686 c -0.441,0.027 -0.919,0.02 -1.435,-0.02 -0.515,-0.041 -0.772,-0.368 -0.772,-0.983 v -5.898 h 0.722 c 0.173,0 0.328,0.067 0.461,0.2 0.133,0.135 0.201,0.295 0.201,0.482 v 0.902 h 0.822 v 0.281 c 0,0.2 -0.067,0.364 -0.201,0.491 -0.134,0.128 -0.294,0.19 -0.481,0.19 h -0.14 V 59.3 c 0,0.229 0.133,0.342 0.401,0.342 h 0.421 v 1.044 z"
         id="path45"
         style="fill:#787878" /><path
         d="m 86.498,59.041 h 1.003 c -0.147,0.561 -0.428,0.989 -0.842,1.283 -0.415,0.309 -0.937,0.461 -1.565,0.461 -0.762,0 -1.357,-0.246 -1.786,-0.742 -0.428,-0.48 -0.642,-1.17 -0.642,-2.066 0,-0.855 0.208,-1.523 0.622,-2.006 0.428,-0.494 1.023,-0.742 1.786,-0.742 0.802,0 1.424,0.241 1.866,0.723 0.428,0.494 0.642,1.184 0.642,2.066 0,0.053 0,0.1 0,0.141 0,0.039 0,0.066 0,0.08 0,0.066 -0.007,0.113 -0.021,0.141 h -3.47 c 0.013,0.414 0.113,0.722 0.301,0.922 0.174,0.215 0.435,0.321 0.782,0.321 0.228,0 0.421,-0.046 0.582,-0.14 0.04,-0.014 0.077,-0.037 0.11,-0.07 0.033,-0.033 0.07,-0.07 0.11,-0.111 0.013,-0.039 0.063,-0.093 0.15,-0.16 0.088,-0.068 0.211,-0.101 0.372,-0.101 z m -2.407,-1.565 h 2.046 c -0.027,-0.36 -0.12,-0.628 -0.281,-0.802 -0.174,-0.188 -0.421,-0.281 -0.742,-0.281 -0.294,0 -0.535,0.094 -0.722,0.281 -0.188,0.187 -0.288,0.454 -0.301,0.802 z"
         id="path47"
         style="fill:#787878" /><path
         d="m 92.61,60.686 h -1.384 v -3.129 -0.281 c 0,-0.321 -0.097,-0.555 -0.291,-0.703 -0.194,-0.146 -0.411,-0.221 -0.652,-0.221 -0.241,0 -0.455,0.074 -0.642,0.221 -0.188,0.148 -0.281,0.382 -0.281,0.703 v 3.41 h -1.404 v -3.129 c 0,-0.91 0.237,-1.519 0.712,-1.826 0.474,-0.308 1,-0.475 1.575,-0.502 0.308,0 0.608,0.033 0.903,0.101 0.294,0.067 0.562,0.2 0.802,0.401 0.201,-0.174 0.438,-0.297 0.712,-0.371 0.274,-0.074 0.558,-0.117 0.853,-0.131 0.588,0 1.13,0.154 1.625,0.462 0.495,0.308 0.742,0.93 0.742,1.866 v 3.129 h -0.702 c -0.201,0 -0.365,-0.063 -0.492,-0.19 -0.127,-0.127 -0.19,-0.291 -0.19,-0.491 v -2.729 c 0,-0.321 -0.097,-0.555 -0.291,-0.703 -0.194,-0.146 -0.411,-0.221 -0.652,-0.221 -0.241,0 -0.458,0.074 -0.652,0.221 -0.194,0.148 -0.291,0.382 -0.291,0.703 v 0.281 3.129 z"
         id="path49"
         style="fill:#787878" /><path
         d="m 98.877,60.686 v -5.497 c 0,-0.481 0.127,-0.843 0.381,-1.083 0.241,-0.228 0.635,-0.342 1.184,-0.342 0.133,0 0.241,0.008 0.321,0.021 0.147,0 0.261,0.007 0.341,0.021 v 1.104 h -0.361 c -0.188,0 -0.321,0.026 -0.401,0.08 -0.067,0.053 -0.1,0.16 -0.1,0.32 v 0.361 h 0.863 v 0.301 c 0,0.201 -0.067,0.365 -0.201,0.492 -0.134,0.127 -0.288,0.19 -0.461,0.19 h -0.201 v 4.032 h -1.365 z"
         id="path51"
         style="fill:#787878" /><path
         d="m 102.021,60.204 c -0.281,-0.241 -0.481,-0.565 -0.602,-0.974 -0.12,-0.407 -0.181,-0.832 -0.181,-1.273 0,-0.361 0.05,-0.723 0.151,-1.083 0.1,-0.361 0.257,-0.662 0.471,-0.903 0.348,-0.4 0.795,-0.639 1.344,-0.712 0.548,-0.073 1.043,-0.03 1.484,0.13 0.508,0.201 0.883,0.549 1.124,1.044 0.227,0.441 0.341,0.956 0.341,1.544 0,0.429 -0.047,0.797 -0.141,1.104 -0.094,0.309 -0.214,0.569 -0.361,0.783 -0.321,0.441 -0.729,0.715 -1.224,0.822 -0.441,0.121 -0.886,0.131 -1.334,0.03 -0.447,-0.101 -0.805,-0.271 -1.072,-0.512 z m 0.962,-3.53 c -0.281,0.307 -0.408,0.766 -0.381,1.373 0.027,0.609 0.141,1.033 0.341,1.274 0.08,0.107 0.221,0.198 0.421,0.271 0.2,0.074 0.404,0.08 0.612,0.021 0.207,-0.06 0.391,-0.21 0.552,-0.452 0.16,-0.24 0.247,-0.628 0.261,-1.163 0,-0.481 -0.077,-0.843 -0.231,-1.083 -0.154,-0.24 -0.331,-0.395 -0.532,-0.461 -0.2,-0.067 -0.401,-0.07 -0.602,-0.011 -0.2,0.06 -0.347,0.137 -0.441,0.231 z"
         id="path53"
         style="fill:#787878" /><path
         d="m 106.527,60.686 v -2.588 c 0,-0.521 0.077,-0.959 0.23,-1.314 0.154,-0.354 0.364,-0.639 0.632,-0.852 0.254,-0.201 0.552,-0.348 0.893,-0.441 0.341,-0.093 0.692,-0.141 1.053,-0.141 0.027,0 0.06,0 0.1,0 0.041,0 0.074,0 0.101,0 v 1.424 h -0.461 c -0.388,0 -0.676,0.094 -0.863,0.281 -0.188,0.188 -0.281,0.481 -0.281,0.883 v 2.748 h -1.404 z"
         id="path55"
         style="fill:#787878" /><path
         d="m 112.292,60.686 v -6.179 c 0,-0.2 0.07,-0.372 0.21,-0.512 0.141,-0.141 0.311,-0.211 0.512,-0.211 h 2.628 c 0.749,0 1.304,0.161 1.665,0.481 0.375,0.334 0.563,0.822 0.563,1.465 0,0.428 -0.094,0.782 -0.281,1.063 -0.16,0.269 -0.414,0.462 -0.762,0.582 0.307,0.107 0.521,0.268 0.642,0.482 0.12,0.2 0.194,0.541 0.221,1.022 l 0.04,0.823 c 0,0.08 0,0.167 0,0.26 0,0.094 0.007,0.182 0.02,0.262 0.041,0.24 0.121,0.395 0.241,0.461 h -1.564 c -0.067,-0.133 -0.107,-0.273 -0.12,-0.422 -0.027,-0.213 -0.041,-0.36 -0.041,-0.441 l -0.02,-0.742 c -0.027,-0.4 -0.107,-0.688 -0.24,-0.862 -0.148,-0.147 -0.409,-0.221 -0.783,-0.221 h -1.505 v 2.688 h -1.426 z m 1.424,-3.893 h 1.665 c 0.361,0 0.628,-0.072 0.802,-0.221 0.174,-0.146 0.262,-0.373 0.262,-0.682 0,-0.307 -0.088,-0.535 -0.262,-0.682 -0.16,-0.16 -0.401,-0.24 -0.722,-0.24 h -1.746 v 1.825 z"
         id="path57"
         style="fill:#787878" /><path
         d="m 122.137,59.041 h 1.002 c -0.146,0.561 -0.428,0.989 -0.842,1.283 -0.415,0.309 -0.937,0.461 -1.564,0.461 -0.763,0 -1.357,-0.246 -1.786,-0.742 -0.429,-0.48 -0.642,-1.17 -0.642,-2.066 0,-0.855 0.207,-1.523 0.621,-2.006 0.428,-0.494 1.023,-0.742 1.786,-0.742 0.802,0 1.425,0.241 1.866,0.723 0.428,0.494 0.642,1.184 0.642,2.066 0,0.053 0,0.1 0,0.141 0,0.039 0,0.066 0,0.08 0,0.066 -0.007,0.113 -0.021,0.141 h -3.471 c 0.014,0.414 0.113,0.722 0.301,0.922 0.174,0.215 0.436,0.321 0.783,0.321 0.227,0 0.421,-0.046 0.582,-0.14 0.039,-0.014 0.076,-0.037 0.109,-0.07 0.033,-0.033 0.07,-0.07 0.111,-0.111 0.013,-0.039 0.063,-0.093 0.15,-0.16 0.088,-0.068 0.212,-0.101 0.373,-0.101 z m -2.408,-1.565 h 2.047 c -0.027,-0.36 -0.121,-0.628 -0.281,-0.802 -0.174,-0.188 -0.422,-0.281 -0.742,-0.281 -0.295,0 -0.535,0.094 -0.723,0.281 -0.188,0.187 -0.288,0.454 -0.301,0.802 z"
         id="path59"
         style="fill:#787878" /><path
         d="m 127.305,59.041 h 1.004 c -0.148,0.561 -0.429,0.989 -0.843,1.283 -0.415,0.309 -0.937,0.461 -1.565,0.461 -0.762,0 -1.357,-0.246 -1.785,-0.742 -0.428,-0.48 -0.643,-1.17 -0.643,-2.066 0,-0.855 0.208,-1.523 0.623,-2.006 0.428,-0.494 1.023,-0.742 1.785,-0.742 0.803,0 1.424,0.241 1.865,0.723 0.241,0.295 0.414,0.635 0.521,1.023 h -1.404 c -0.066,-0.134 -0.133,-0.234 -0.2,-0.301 -0.174,-0.188 -0.421,-0.281 -0.742,-0.281 -0.294,0 -0.535,0.094 -0.722,0.281 -0.241,0.268 -0.361,0.709 -0.361,1.323 0,0.616 0.12,1.05 0.361,1.304 0.174,0.215 0.434,0.321 0.781,0.321 0.229,0 0.422,-0.046 0.582,-0.14 0.041,-0.014 0.077,-0.037 0.111,-0.07 0.033,-0.033 0.069,-0.07 0.109,-0.111 0.027,-0.039 0.08,-0.093 0.16,-0.16 0.082,-0.067 0.203,-0.1 0.363,-0.1 z"
         id="path61"
         style="fill:#787878" /><path
         d="m 129.346,60.204 c -0.281,-0.241 -0.482,-0.565 -0.603,-0.974 -0.12,-0.407 -0.181,-0.832 -0.181,-1.273 0,-0.361 0.051,-0.723 0.15,-1.083 0.101,-0.361 0.258,-0.662 0.472,-0.903 0.348,-0.4 0.796,-0.639 1.345,-0.712 0.548,-0.073 1.043,-0.03 1.484,0.13 0.508,0.201 0.883,0.549 1.123,1.044 0.227,0.441 0.342,0.956 0.342,1.544 0,0.429 -0.048,0.797 -0.141,1.104 -0.094,0.309 -0.215,0.569 -0.361,0.783 -0.321,0.441 -0.729,0.715 -1.225,0.822 -0.441,0.121 -0.886,0.131 -1.334,0.03 -0.446,-0.101 -0.805,-0.271 -1.071,-0.512 z m 0.963,-3.53 c -0.281,0.307 -0.408,0.766 -0.382,1.373 0.026,0.609 0.141,1.033 0.341,1.274 0.08,0.107 0.221,0.198 0.422,0.271 0.2,0.074 0.404,0.08 0.611,0.021 0.207,-0.059 0.392,-0.21 0.553,-0.452 0.16,-0.24 0.246,-0.628 0.26,-1.163 0,-0.481 -0.076,-0.843 -0.23,-1.083 -0.154,-0.24 -0.331,-0.395 -0.531,-0.461 -0.201,-0.067 -0.401,-0.07 -0.602,-0.011 -0.202,0.06 -0.35,0.137 -0.442,0.231 z"
         id="path63"
         style="fill:#787878" /><path
         d="m 138.506,60.686 h -0.701 c -0.201,0 -0.365,-0.063 -0.492,-0.19 -0.127,-0.127 -0.19,-0.291 -0.19,-0.491 v -2.729 c 0,-0.321 -0.097,-0.555 -0.291,-0.703 -0.194,-0.146 -0.411,-0.221 -0.651,-0.221 -0.241,0 -0.455,0.074 -0.643,0.221 -0.188,0.148 -0.281,0.382 -0.281,0.703 v 3.41 h -1.404 v -3.129 c 0,-0.91 0.238,-1.519 0.713,-1.826 0.475,-0.307 1,-0.475 1.574,-0.502 0.589,0 1.131,0.154 1.625,0.462 0.495,0.308 0.742,0.93 0.742,1.866 v 3.129 z"
         id="path65"
         style="fill:#787878" /><path
         d="m 138.881,60.686 v -5.497 c 0,-0.481 0.127,-0.843 0.382,-1.083 0.241,-0.228 0.635,-0.342 1.184,-0.342 0.134,0 0.241,0.008 0.321,0.021 0.146,0 0.26,0.007 0.341,0.021 v 1.104 h -0.361 c -0.188,0 -0.321,0.026 -0.401,0.08 -0.066,0.053 -0.1,0.16 -0.1,0.32 v 0.361 h 0.862 v 0.301 c 0,0.201 -0.067,0.365 -0.2,0.492 -0.135,0.127 -0.289,0.19 -0.462,0.19 h -0.2 v 4.032 h -1.366 z"
         id="path67"
         style="fill:#787878" /><path
         d="m 141.482,53.784 h 0.723 c 0.188,0 0.348,0.067 0.481,0.2 0.134,0.135 0.2,0.295 0.2,0.482 v 0.421 h -1.404 v -1.103 z m 0,1.566 h 0.723 c 0.188,0 0.348,0.066 0.481,0.2 0.133,0.134 0.2,0.294 0.2,0.481 v 4.654 h -1.404 V 55.35 z"
         id="path69"
         style="fill:#787878" /><path
         d="m 146.633,60.365 v -0.342 c -0.241,0.375 -0.565,0.609 -0.974,0.702 -0.407,0.093 -0.813,0.06 -1.214,-0.101 -0.4,-0.16 -0.745,-0.457 -1.033,-0.893 -0.287,-0.434 -0.432,-1.006 -0.432,-1.715 0,-0.829 0.191,-1.502 0.572,-2.017 0.381,-0.515 0.993,-0.772 1.836,-0.772 0.643,0 1.236,0.174 1.785,0.521 0.549,0.347 0.822,0.99 0.822,1.926 v 2.829 c 0,0.937 -0.273,1.575 -0.822,1.916 -0.549,0.341 -1.143,0.512 -1.785,0.512 -1.23,0 -1.993,-0.575 -2.287,-1.726 h 1.465 c 0.106,0.188 0.271,0.331 0.491,0.432 0.221,0.1 0.441,0.127 0.662,0.08 0.221,-0.047 0.421,-0.178 0.602,-0.391 0.181,-0.213 0.284,-0.533 0.312,-0.961 z m -2.287,-2.307 c 0,0.923 0.268,1.435 0.803,1.534 0.534,0.101 0.929,-0.023 1.184,-0.371 0.119,-0.146 0.207,-0.377 0.26,-0.691 0.054,-0.314 0.057,-0.625 0.01,-0.934 -0.047,-0.307 -0.156,-0.582 -0.33,-0.822 -0.174,-0.24 -0.428,-0.361 -0.763,-0.361 -0.454,0 -0.763,0.168 -0.923,0.502 -0.16,0.334 -0.241,0.714 -0.241,1.143 z"
         id="path71"
         style="fill:#787878" /><path
         d="m 153.046,55.35 v 3.129 c 0,0.95 -0.247,1.572 -0.742,1.866 -0.495,0.294 -1.036,0.44 -1.625,0.44 -0.575,-0.026 -1.101,-0.187 -1.575,-0.48 -0.475,-0.295 -0.712,-0.902 -0.712,-1.826 V 55.35 h 1.404 v 3.41 c 0,0.32 0.093,0.555 0.28,0.702 0.187,0.147 0.402,0.221 0.643,0.221 0.241,0 0.458,-0.073 0.652,-0.221 0.193,-0.147 0.291,-0.382 0.291,-0.702 v -2.729 c 0,-0.188 0.063,-0.348 0.189,-0.481 0.126,-0.133 0.291,-0.2 0.492,-0.2 h 0.703 z"
         id="path73"
         style="fill:#787878" /><path
         d="m 153.42,60.686 v -2.588 c 0,-0.521 0.077,-0.959 0.23,-1.314 0.154,-0.354 0.365,-0.639 0.633,-0.852 0.254,-0.201 0.552,-0.348 0.893,-0.441 0.341,-0.093 0.691,-0.141 1.053,-0.141 0.027,0 0.061,0 0.101,0 0.04,0 0.073,0 0.101,0 v 1.424 h -0.461 c -0.389,0 -0.676,0.094 -0.863,0.281 -0.187,0.187 -0.281,0.481 -0.281,0.883 v 2.748 h -1.406 z"
         id="path75"
         style="fill:#787878" /><path
         d="m 160.135,60.465 c -0.281,0.147 -0.578,0.237 -0.893,0.271 -0.314,0.033 -0.592,0.049 -0.833,0.049 -0.481,0 -0.903,-0.13 -1.264,-0.391 -0.361,-0.261 -0.542,-0.691 -0.542,-1.294 0,-0.562 0.164,-0.963 0.492,-1.204 0.327,-0.24 0.745,-0.4 1.254,-0.48 0.066,0 0.146,-0.011 0.24,-0.031 0.094,-0.02 0.201,-0.036 0.32,-0.049 0.589,-0.081 0.883,-0.254 0.883,-0.522 0,-0.2 -0.104,-0.331 -0.311,-0.392 -0.207,-0.06 -0.398,-0.09 -0.572,-0.09 -0.188,0 -0.354,0.027 -0.501,0.08 -0.147,0.054 -0.254,0.154 -0.321,0.301 h -1.344 c 0.053,-0.414 0.24,-0.755 0.562,-1.022 0.361,-0.308 0.876,-0.462 1.545,-0.462 0.749,0 1.311,0.127 1.685,0.381 0.389,0.269 0.582,0.643 0.582,1.124 v 1.825 c 0,0.535 -0.097,0.953 -0.291,1.254 -0.193,0.3 -0.424,0.519 -0.691,0.652 z m -0.322,-2.468 c -0.188,0.094 -0.448,0.181 -0.782,0.261 l -0.461,0.101 c -0.241,0.067 -0.415,0.153 -0.521,0.261 -0.094,0.147 -0.141,0.295 -0.141,0.441 0,0.201 0.06,0.361 0.18,0.481 0.121,0.107 0.295,0.161 0.521,0.161 0.375,0 0.669,-0.107 0.883,-0.322 0.215,-0.213 0.321,-0.508 0.321,-0.882 v -0.502 z"
         id="path77"
         style="fill:#787878" /><path
         d="m 162.836,54.446 v 1.604 c 0.147,-0.254 0.361,-0.461 0.643,-0.621 0.24,-0.134 0.535,-0.201 0.883,-0.201 0.629,0 1.143,0.262 1.545,0.783 0.4,0.521 0.602,1.197 0.602,2.025 0,0.83 -0.201,1.505 -0.602,2.026 -0.201,0.255 -0.473,0.438 -0.813,0.552 -0.342,0.113 -0.68,0.17 -1.014,0.17 -0.643,0 -1.237,-0.166 -1.785,-0.501 -0.549,-0.334 -0.822,-0.976 -0.822,-1.926 v -4.595 h 0.682 c 0.188,0 0.348,0.068 0.481,0.201 0.134,0.136 0.2,0.297 0.2,0.483 z m 2.287,3.531 c 0,-0.48 -0.1,-0.855 -0.301,-1.123 -0.201,-0.281 -0.475,-0.421 -0.822,-0.421 -0.375,0 -0.662,0.134 -0.863,0.401 -0.2,0.281 -0.301,0.662 -0.301,1.143 0,0.563 0.094,0.971 0.281,1.225 0.201,0.281 0.481,0.421 0.843,0.421 0.374,0 0.661,-0.14 0.862,-0.421 0.201,-0.281 0.301,-0.69 0.301,-1.225 z"
         id="path79"
         style="fill:#787878" /><path
         d="m 166.963,53.784 h 0.723 c 0.188,0 0.348,0.063 0.48,0.19 0.135,0.127 0.201,0.285 0.201,0.472 v 6.239 h -1.404 v -6.901 z"
         id="path81"
         style="fill:#787878" /><path
         d="m 172.473,59.041 h 1.004 c -0.148,0.561 -0.429,0.989 -0.843,1.283 -0.415,0.309 -0.937,0.461 -1.565,0.461 -0.762,0 -1.357,-0.246 -1.785,-0.742 -0.428,-0.48 -0.643,-1.17 -0.643,-2.066 0,-0.855 0.208,-1.523 0.623,-2.006 0.428,-0.494 1.023,-0.742 1.785,-0.742 0.803,0 1.424,0.241 1.865,0.723 0.428,0.494 0.643,1.184 0.643,2.066 0,0.053 0,0.1 0,0.141 0,0.039 0,0.066 0,0.08 0,0.066 -0.008,0.113 -0.021,0.141 h -3.47 c 0.013,0.414 0.113,0.722 0.301,0.922 0.174,0.215 0.434,0.321 0.781,0.321 0.229,0 0.422,-0.046 0.582,-0.14 0.041,-0.014 0.077,-0.037 0.111,-0.07 0.033,-0.033 0.069,-0.07 0.109,-0.111 0.014,-0.039 0.063,-0.093 0.15,-0.16 0.089,-0.068 0.213,-0.101 0.373,-0.101 z m -2.407,-1.565 h 2.045 c -0.026,-0.36 -0.119,-0.628 -0.28,-0.802 -0.174,-0.188 -0.421,-0.281 -0.742,-0.281 -0.294,0 -0.535,0.094 -0.722,0.281 -0.187,0.187 -0.288,0.454 -0.301,0.802 z"
         id="path83"
         style="fill:#787878" /><path
         d="m 182.551,58.299 c -0.066,0.802 -0.367,1.431 -0.902,1.885 -0.549,0.441 -1.271,0.662 -2.167,0.662 -1.043,0 -1.839,-0.314 -2.388,-0.942 -0.548,-0.603 -0.822,-1.491 -0.822,-2.669 0,-1.203 0.281,-2.105 0.843,-2.707 0.575,-0.629 1.404,-0.943 2.487,-0.943 0.883,0 1.586,0.221 2.107,0.662 0.494,0.428 0.775,1.029 0.842,1.805 h -0.862 c -0.321,0 -0.549,-0.14 -0.683,-0.421 -0.094,-0.173 -0.207,-0.327 -0.341,-0.462 -0.268,-0.199 -0.622,-0.301 -1.063,-0.301 -0.615,0 -1.09,0.201 -1.424,0.603 -0.321,0.401 -0.481,0.989 -0.481,1.765 0,0.75 0.16,1.324 0.481,1.727 0.307,0.414 0.769,0.621 1.385,0.621 0.428,0 0.781,-0.107 1.063,-0.32 0.254,-0.201 0.435,-0.521 0.541,-0.963 h 1.384 z"
         id="path85"
         style="fill:#787878" /><path
         d="m 183.668,60.204 c -0.28,-0.241 -0.48,-0.565 -0.602,-0.974 -0.12,-0.407 -0.181,-0.832 -0.181,-1.273 0,-0.361 0.05,-0.723 0.151,-1.083 0.1,-0.361 0.257,-0.662 0.471,-0.903 0.348,-0.4 0.795,-0.639 1.344,-0.712 0.549,-0.073 1.043,-0.03 1.484,0.13 0.509,0.201 0.883,0.549 1.124,1.044 0.228,0.441 0.341,0.956 0.341,1.544 0,0.429 -0.047,0.797 -0.141,1.104 -0.094,0.309 -0.214,0.569 -0.361,0.783 -0.32,0.441 -0.729,0.715 -1.223,0.822 -0.441,0.121 -0.887,0.131 -1.334,0.03 -0.448,-0.101 -0.805,-0.271 -1.073,-0.512 z m 0.963,-3.53 c -0.28,0.307 -0.408,0.766 -0.381,1.373 0.027,0.609 0.141,1.033 0.342,1.274 0.08,0.107 0.221,0.198 0.421,0.271 0.2,0.074 0.404,0.08 0.612,0.021 0.207,-0.06 0.391,-0.21 0.551,-0.452 0.16,-0.24 0.248,-0.628 0.262,-1.163 0,-0.481 -0.078,-0.843 -0.231,-1.083 -0.153,-0.24 -0.331,-0.395 -0.532,-0.461 -0.199,-0.067 -0.4,-0.07 -0.602,-0.011 -0.201,0.06 -0.348,0.137 -0.442,0.231 z"
         id="path87"
         style="fill:#787878" /><path
         d="m 192.83,60.686 h -1.385 v -3.129 -0.281 c 0,-0.321 -0.098,-0.555 -0.291,-0.703 -0.193,-0.146 -0.411,-0.221 -0.652,-0.221 -0.24,0 -0.455,0.074 -0.642,0.221 -0.188,0.148 -0.28,0.382 -0.28,0.703 v 3.41 h -1.404 v -3.129 c 0,-0.91 0.236,-1.519 0.712,-1.826 0.474,-0.308 0.999,-0.475 1.575,-0.502 0.307,0 0.607,0.033 0.902,0.101 0.294,0.067 0.562,0.2 0.803,0.401 0.2,-0.174 0.438,-0.297 0.712,-0.371 0.274,-0.074 0.558,-0.117 0.853,-0.131 0.588,0 1.13,0.154 1.625,0.462 0.494,0.308 0.742,0.93 0.742,1.866 v 3.129 h -0.702 c -0.2,0 -0.364,-0.063 -0.491,-0.19 -0.127,-0.127 -0.191,-0.291 -0.191,-0.491 v -2.729 c 0,-0.321 -0.097,-0.555 -0.291,-0.703 -0.193,-0.146 -0.41,-0.221 -0.651,-0.221 -0.241,0 -0.458,0.074 -0.651,0.221 -0.195,0.148 -0.291,0.382 -0.291,0.703 v 0.281 3.129 z"
         id="path89"
         style="fill:#787878" /><path
         d="m 198,61.969 c 0,0.188 -0.068,0.348 -0.201,0.482 -0.134,0.133 -0.295,0.2 -0.481,0.2 h -0.683 v -4.995 c 0,-0.936 0.274,-1.574 0.823,-1.916 0.548,-0.341 1.144,-0.512 1.785,-0.512 0.335,0 0.673,0.064 1.013,0.191 0.342,0.127 0.612,0.311 0.813,0.551 0.402,0.521 0.603,1.191 0.603,2.006 0,0.844 -0.2,1.525 -0.603,2.047 -0.4,0.508 -0.916,0.762 -1.545,0.762 -0.334,0 -0.628,-0.06 -0.882,-0.18 -0.269,-0.134 -0.481,-0.342 -0.642,-0.622 v 1.986 z m 2.287,-3.932 c 0,-0.521 -0.102,-0.922 -0.302,-1.203 -0.2,-0.281 -0.488,-0.422 -0.862,-0.422 -0.361,0 -0.643,0.141 -0.843,0.422 -0.188,0.254 -0.28,0.655 -0.28,1.203 0,0.509 0.1,0.891 0.301,1.145 0.2,0.28 0.488,0.42 0.862,0.42 0.348,0 0.622,-0.14 0.822,-0.42 0.201,-0.282 0.302,-0.662 0.302,-1.145 z"
         id="path91"
         style="fill:#787878" /><path
         d="m 206.72,55.35 v 3.129 c 0,0.95 -0.247,1.572 -0.742,1.866 -0.495,0.294 -1.036,0.44 -1.625,0.44 -0.575,-0.026 -1.101,-0.187 -1.575,-0.48 -0.475,-0.295 -0.712,-0.902 -0.712,-1.826 V 55.35 h 1.404 v 3.41 c 0,0.32 0.093,0.555 0.28,0.702 0.187,0.147 0.402,0.221 0.643,0.221 0.241,0 0.458,-0.073 0.652,-0.221 0.193,-0.147 0.291,-0.382 0.291,-0.702 v -2.729 c 0,-0.188 0.063,-0.348 0.189,-0.481 0.126,-0.133 0.291,-0.2 0.492,-0.2 h 0.703 z"
         id="path93"
         style="fill:#787878" /><path
         d="m 209.462,60.686 c -0.441,0.027 -0.919,0.02 -1.435,-0.02 -0.515,-0.041 -0.771,-0.368 -0.771,-0.983 v -5.898 h 0.722 c 0.173,0 0.327,0.067 0.462,0.2 0.133,0.135 0.2,0.295 0.2,0.482 v 0.902 h 0.822 v 0.281 c 0,0.2 -0.067,0.364 -0.2,0.491 -0.135,0.128 -0.295,0.19 -0.482,0.19 h -0.14 V 59.3 c 0,0.229 0.134,0.342 0.401,0.342 h 0.421 v 1.044 z"
         id="path95"
         style="fill:#787878" /><path
         d="m 209.857,53.784 h 0.722 c 0.187,0 0.348,0.067 0.481,0.2 0.133,0.135 0.201,0.295 0.201,0.482 v 0.421 h -1.404 v -1.103 z m 0,1.566 h 0.722 c 0.187,0 0.348,0.066 0.481,0.2 0.133,0.134 0.201,0.294 0.201,0.481 v 4.654 h -1.404 V 55.35 z"
         id="path97"
         style="fill:#787878" /><path
         d="m 216.13,60.686 h -0.702 c -0.201,0 -0.365,-0.063 -0.492,-0.19 -0.127,-0.127 -0.189,-0.291 -0.189,-0.491 v -2.729 c 0,-0.321 -0.098,-0.555 -0.291,-0.703 -0.194,-0.146 -0.412,-0.221 -0.652,-0.221 -0.24,0 -0.455,0.074 -0.643,0.221 -0.188,0.148 -0.28,0.382 -0.28,0.703 v 3.41 h -1.404 v -3.129 c 0,-0.91 0.237,-1.519 0.712,-1.826 0.475,-0.307 1,-0.475 1.575,-0.502 0.589,0 1.13,0.154 1.625,0.462 0.495,0.308 0.742,0.93 0.742,1.866 v 3.129 z"
         id="path99"
         style="fill:#787878" /><path
         d="m 220.035,60.365 v -0.342 c -0.24,0.375 -0.564,0.609 -0.973,0.702 -0.409,0.093 -0.813,0.06 -1.213,-0.101 -0.402,-0.16 -0.746,-0.457 -1.033,-0.893 -0.288,-0.434 -0.432,-1.006 -0.432,-1.715 0,-0.829 0.19,-1.502 0.571,-2.017 0.382,-0.515 0.993,-0.772 1.836,-0.772 0.642,0 1.237,0.174 1.785,0.521 0.548,0.347 0.823,0.99 0.823,1.926 v 2.829 c 0,0.937 -0.275,1.575 -0.823,1.916 -0.548,0.341 -1.144,0.512 -1.785,0.512 -1.231,0 -1.993,-0.575 -2.287,-1.726 h 1.464 c 0.107,0.188 0.271,0.331 0.492,0.432 0.221,0.1 0.441,0.127 0.662,0.08 0.221,-0.047 0.422,-0.178 0.602,-0.391 0.181,-0.213 0.285,-0.533 0.311,-0.961 z m -2.287,-2.307 c 0,0.923 0.268,1.435 0.803,1.534 0.535,0.101 0.93,-0.023 1.184,-0.371 0.121,-0.146 0.207,-0.377 0.262,-0.691 0.053,-0.314 0.057,-0.625 0.01,-0.934 -0.047,-0.307 -0.158,-0.582 -0.331,-0.822 -0.175,-0.24 -0.429,-0.361 -0.763,-0.361 -0.455,0 -0.762,0.168 -0.923,0.502 -0.161,0.333 -0.242,0.714 -0.242,1.143 z"
         id="path101"
         style="fill:#787878" /></g></g></svg>