<?xml version="1.0" encoding="utf-8"?>
<!-- Generator: Adobe Illustrator 16.0.3, SVG Export Plug-In . SVG Version: 6.00 Build 0)  -->
<!DOCTYPE svg PUBLIC "-//W3C//DTD SVG 1.1//EN" "http://www.w3.org/Graphics/SVG/1.1/DTD/svg11.dtd">
<svg version="1.1" id="Ebene_1" xmlns="http://www.w3.org/2000/svg" xmlns:xlink="http://www.w3.org/1999/xlink" x="0px" y="0px"
	 width="230px" height="65px" viewBox="0 0 230 65" enable-background="new 0 0 230 65" xml:space="preserve">
<g>
	<path fill="#141414" d="M3.327,61.756V28.818c0-3.005,0.443-5.526,1.33-7.568c0.884-2.04,2.097-3.677,3.639-4.91
		c1.462-1.155,3.177-2.001,5.141-2.541c1.964-0.539,3.986-0.809,6.065-0.809c0.154,0,0.347,0,0.578,0c0.231,0,0.423,0,0.578,0v8.203
		h-2.658c-2.234,0-3.89,0.54-4.967,1.618c-1.079,1.079-1.617,2.772-1.617,5.082v33.863H3.327z"/>
	<path fill="#141414" d="M44.908,34.248h5.776c-0.849,3.234-2.466,5.699-4.852,7.393c-2.389,1.773-5.393,2.657-9.012,2.657
		c-4.39,0-7.818-1.425-10.282-4.274c-2.466-2.772-3.697-6.738-3.697-11.899c0-4.927,1.194-8.779,3.582-11.553
		c2.464-2.848,5.891-4.274,10.282-4.274c4.621,0,8.203,1.387,10.744,4.159c2.464,2.85,3.697,6.816,3.697,11.899
		c0,0.309,0,0.578,0,0.809c0,0.231,0,0.386,0,0.462c0,0.387-0.04,0.655-0.115,0.809H31.045c0.076,2.388,0.653,4.159,1.733,5.315
		c1,1.232,2.501,1.848,4.505,1.848c1.31,0,2.426-0.27,3.351-0.809c0.231-0.076,0.442-0.212,0.634-0.404
		c0.191-0.191,0.405-0.404,0.636-0.635c0.076-0.232,0.365-0.539,0.867-0.925C43.27,34.44,43.984,34.248,44.908,34.248z
		 M31.045,25.236h11.783c-0.155-2.08-0.693-3.619-1.618-4.621c-1.001-1.078-2.425-1.617-4.274-1.617
		c-1.694,0-3.082,0.54-4.158,1.617C31.698,21.695,31.121,23.234,31.045,25.236z"/>
	<path fill="#141414" d="M75.859,34.248h5.777c-0.849,3.234-2.466,5.699-4.852,7.393c-2.388,1.773-5.392,2.657-9.012,2.657
		c-4.389,0-7.817-1.425-10.282-4.274c-2.465-2.772-3.697-6.738-3.697-11.899c0-4.927,1.193-8.779,3.583-11.553
		c2.463-2.848,5.891-4.274,10.281-4.274c4.622,0,8.202,1.387,10.744,4.159c1.387,1.695,2.386,3.659,3.003,5.891h-8.087
		c-0.386-0.768-0.771-1.346-1.155-1.732c-1.001-1.078-2.426-1.617-4.274-1.617c-1.695,0-3.081,0.54-4.159,1.617
		c-1.386,1.542-2.079,4.083-2.079,7.625c0,3.544,0.693,6.047,2.079,7.51c1.001,1.232,2.503,1.848,4.506,1.848
		c1.309,0,2.425-0.27,3.35-0.809c0.232-0.076,0.443-0.212,0.635-0.404c0.192-0.191,0.405-0.404,0.637-0.635
		c0.153-0.232,0.461-0.539,0.924-0.925C74.241,34.44,74.935,34.248,75.859,34.248z"/>
	<path fill="#141414" d="M88.789,40.948c-1.616-1.388-2.772-3.253-3.466-5.604c-0.692-2.348-1.039-4.793-1.039-7.334
		c0-2.08,0.289-4.16,0.867-6.239c0.578-2.08,1.481-3.812,2.714-5.199c2.001-2.31,4.581-3.676,7.74-4.1
		c3.158-0.423,6.007-0.174,8.549,0.75c2.925,1.155,5.083,3.159,6.47,6.007c1.308,2.542,1.963,5.507,1.963,8.895
		c0,2.466-0.271,4.583-0.809,6.354c-0.54,1.774-1.232,3.275-2.079,4.506c-1.848,2.542-4.198,4.122-7.046,4.737
		c-2.542,0.693-5.104,0.751-7.682,0.172C92.388,43.315,90.329,42.334,88.789,40.948z M94.335,20.615
		c-1.619,1.773-2.351,4.41-2.196,7.914c0.153,3.505,0.809,5.949,1.964,7.335c0.461,0.617,1.27,1.138,2.426,1.56
		c1.154,0.424,2.328,0.463,3.523,0.115c1.193-0.346,2.251-1.213,3.177-2.599c0.924-1.386,1.424-3.619,1.501-6.701
		c0-2.772-0.443-4.853-1.328-6.238c-0.886-1.386-1.906-2.271-3.062-2.657c-1.154-0.385-2.311-0.405-3.466-0.058
		C95.721,19.633,94.872,20.077,94.335,20.615z"/>
	<path fill="#141414" d="M142.73,43.721h-4.043c-1.156,0-2.099-0.365-2.83-1.098c-0.733-0.731-1.098-1.675-1.098-2.83V24.081
		c0-1.848-0.561-3.195-1.676-4.043c-1.117-0.847-2.367-1.271-3.754-1.271s-2.62,0.424-3.697,1.271
		c-1.08,0.848-1.617,2.195-1.617,4.043v19.64h-8.087V25.698c0-5.236,1.366-8.74,4.101-10.513c2.733-1.771,5.758-2.733,9.07-2.888
		c3.387,0,6.507,0.886,9.357,2.658c2.848,1.772,4.273,5.354,4.273,10.744V43.721z"/>
	<path fill="#823C3C" d="M148.359,23.85c0-6.469,1.693-11.59,5.083-15.365c3.619-3.772,8.355-5.661,14.21-5.661
		c5.775,0,10.512,1.888,14.209,5.661c3.466,3.852,5.199,8.973,5.199,15.365c0,6.395-1.733,11.478-5.199,15.25
		c-3.543,3.697-8.279,5.545-14.209,5.545c-6.008,0-10.744-1.848-14.21-5.545C150.053,35.402,148.359,30.32,148.359,23.85z
		 M156.562,23.85c0,4.468,0.962,7.856,2.888,10.167c1.925,2.388,4.659,3.581,8.203,3.581c3.465,0,6.197-1.193,8.202-3.581
		c2.002-2.464,3.003-5.853,3.003-10.167c0-4.312-1.001-7.74-3.003-10.282c-2.005-2.386-4.737-3.581-8.202-3.581
		c-3.544,0-6.278,1.195-8.203,3.581C157.523,15.957,156.562,19.383,156.562,23.85z"/>
	<path fill="#823C3C" d="M190.979,31.36h8.088c0.307,2.31,1.192,3.926,2.656,4.851c1.541,1.08,3.656,1.617,6.354,1.617
		c2.386,0,4.196-0.422,5.431-1.271c1.23-0.847,1.847-2.08,1.847-3.697c0-2.464-3.466-4.466-10.397-6.008l-0.23-0.116l-0.924-0.23
		c-3.928-0.846-6.547-1.734-7.855-2.658c-1.541-0.847-2.62-2.079-3.234-3.697c-0.771-1.386-1.155-3.156-1.155-5.313
		c0-3.773,1.308-6.739,3.927-8.897c2.618-2.078,6.43-3.118,11.438-3.118c4.697,0,8.318,1.079,10.859,3.234
		c2.617,2.389,4.004,5.508,4.158,9.357h-4.621c-1.771,0-3.043-0.809-3.811-2.426c-0.388-0.769-0.926-1.424-1.619-1.964
		c-1.386-1-3.273-1.502-5.66-1.502c-2.311,0-3.967,0.424-4.968,1.271c-1.155,0.848-1.732,2.041-1.732,3.582
		c0,2.079,2.233,3.621,6.7,4.621c1.309,0.385,2.271,0.617,2.889,0.692c1.386,0.462,2.6,0.829,3.639,1.098
		c1.039,0.271,1.866,0.483,2.484,0.636c1.077,0.462,2.154,0.923,3.234,1.387c1.539,0.924,2.732,2.119,3.582,3.581
		c0.846,1.618,1.27,3.389,1.27,5.314c0,4.158-1.387,7.394-4.158,9.704c-2.772,2.157-6.701,3.234-11.784,3.234
		c-5.237,0-9.167-1.115-11.783-3.351C192.75,39.061,191.21,35.75,190.979,31.36z"/>
	<g>
		<path fill="#787878" d="M20.525,57.234c0-1.123,0.294-2.012,0.883-2.668c0.628-0.654,1.451-0.982,2.468-0.982
			c1.003,0,1.826,0.328,2.467,0.982c0.602,0.67,0.903,1.559,0.903,2.668c0,1.111-0.301,1.994-0.903,2.648
			c-0.615,0.643-1.438,0.963-2.467,0.963c-1.043,0-1.866-0.32-2.468-0.963C20.819,59.241,20.525,58.358,20.525,57.234z
			 M21.95,57.234c0,0.776,0.167,1.365,0.501,1.766c0.334,0.415,0.809,0.622,1.424,0.622c0.602,0,1.076-0.207,1.424-0.622
			c0.348-0.428,0.521-1.016,0.521-1.766c0-0.748-0.174-1.344-0.521-1.785c-0.348-0.414-0.823-0.621-1.424-0.621
			c-0.615,0-1.09,0.207-1.424,0.621C22.117,55.864,21.95,56.459,21.95,57.234z"/>
		<path fill="#787878" d="M29.085,61.969c0,0.188-0.067,0.348-0.201,0.482c-0.134,0.133-0.294,0.2-0.481,0.2h-0.682v-4.995
			c0-0.936,0.274-1.574,0.823-1.916c0.548-0.341,1.143-0.512,1.785-0.512c0.334,0,0.672,0.064,1.013,0.191s0.612,0.311,0.813,0.551
			c0.401,0.521,0.602,1.191,0.602,2.006c0,0.844-0.201,1.525-0.602,2.047c-0.401,0.508-0.916,0.762-1.545,0.762
			c-0.334,0-0.628-0.06-0.882-0.18c-0.268-0.134-0.481-0.342-0.642-0.622V61.969z M31.373,58.037c0-0.521-0.101-0.922-0.301-1.203
			s-0.488-0.422-0.862-0.422c-0.361,0-0.642,0.141-0.843,0.422c-0.188,0.254-0.281,0.655-0.281,1.203c0,0.509,0.1,0.891,0.301,1.145
			c0.201,0.28,0.488,0.42,0.863,0.42c0.348,0,0.622-0.14,0.822-0.42C31.272,58.9,31.373,58.52,31.373,58.037z"/>
		<path fill="#787878" d="M36.863,59.041h1.003c-0.147,0.561-0.428,0.989-0.842,1.283c-0.415,0.309-0.937,0.461-1.565,0.461
			c-0.762,0-1.357-0.246-1.786-0.742c-0.428-0.48-0.642-1.17-0.642-2.066c0-0.855,0.208-1.523,0.622-2.006
			c0.428-0.494,1.023-0.742,1.786-0.742c0.802,0,1.424,0.241,1.866,0.723c0.428,0.494,0.642,1.184,0.642,2.066
			c0,0.053,0,0.1,0,0.141c0,0.039,0,0.066,0,0.08c0,0.066-0.007,0.113-0.021,0.141h-3.47c0.013,0.414,0.113,0.722,0.301,0.922
			c0.174,0.215,0.435,0.321,0.782,0.321c0.228,0,0.421-0.046,0.582-0.14c0.04-0.014,0.077-0.037,0.11-0.07
			c0.033-0.033,0.07-0.07,0.11-0.111c0.013-0.039,0.063-0.093,0.15-0.16C36.579,59.074,36.702,59.041,36.863,59.041z M34.456,57.476
			h2.046c-0.027-0.36-0.12-0.628-0.281-0.802c-0.174-0.188-0.421-0.281-0.742-0.281c-0.294,0-0.535,0.094-0.722,0.281
			C34.569,56.861,34.469,57.128,34.456,57.476z"/>
		<path fill="#787878" d="M38.321,60.686v-2.588c0-0.521,0.077-0.959,0.23-1.314c0.154-0.354,0.364-0.639,0.632-0.852
			c0.254-0.201,0.552-0.348,0.893-0.441s0.692-0.141,1.053-0.141c0.027,0,0.06,0,0.1,0c0.041,0,0.074,0,0.101,0v1.424h-0.461
			c-0.388,0-0.676,0.094-0.863,0.281c-0.188,0.188-0.281,0.481-0.281,0.883v2.748H38.321z"/>
		<path fill="#787878" d="M45.035,60.465c-0.281,0.147-0.579,0.237-0.893,0.271c-0.314,0.033-0.592,0.049-0.833,0.049
			c-0.481,0-0.903-0.13-1.264-0.391c-0.361-0.261-0.542-0.691-0.542-1.294c0-0.562,0.164-0.963,0.492-1.204
			c0.328-0.24,0.746-0.4,1.254-0.48c0.067,0,0.147-0.011,0.241-0.031c0.093-0.02,0.201-0.036,0.321-0.049
			c0.588-0.081,0.883-0.254,0.883-0.522c0-0.2-0.104-0.331-0.311-0.392c-0.208-0.06-0.398-0.09-0.572-0.09
			c-0.188,0-0.354,0.027-0.501,0.08c-0.147,0.054-0.254,0.154-0.321,0.301h-1.344c0.053-0.414,0.241-0.755,0.562-1.022
			c0.361-0.308,0.876-0.462,1.545-0.462c0.749,0,1.311,0.127,1.685,0.381c0.388,0.269,0.582,0.643,0.582,1.124v1.825
			c0,0.535-0.097,0.953-0.291,1.254S45.302,60.332,45.035,60.465z M44.713,57.997c-0.188,0.094-0.448,0.181-0.782,0.261
			l-0.461,0.101c-0.241,0.067-0.415,0.153-0.521,0.261c-0.094,0.147-0.141,0.295-0.141,0.441c0,0.201,0.06,0.361,0.181,0.481
			c0.12,0.107,0.294,0.161,0.521,0.161c0.375,0,0.668-0.107,0.883-0.322c0.214-0.213,0.321-0.508,0.321-0.882V57.997z"/>
		<path fill="#787878" d="M48.74,60.686c-0.441,0.027-0.919,0.02-1.435-0.02c-0.515-0.041-0.772-0.368-0.772-0.983v-5.898h0.722
			c0.173,0,0.328,0.067,0.461,0.2c0.133,0.135,0.201,0.295,0.201,0.482v0.902h0.822v0.281c0,0.2-0.067,0.364-0.201,0.491
			c-0.134,0.128-0.294,0.19-0.481,0.19h-0.14v2.969c0,0.229,0.133,0.342,0.401,0.342h0.421V60.686z"/>
		<path fill="#787878" d="M49.135,53.784h0.722c0.187,0,0.348,0.067,0.481,0.2c0.133,0.135,0.201,0.295,0.201,0.482v0.421h-1.404
			V53.784z M49.135,55.35h0.722c0.187,0,0.348,0.066,0.481,0.2c0.133,0.134,0.201,0.294,0.201,0.481v4.654h-1.404V55.35z"/>
		<path fill="#787878" d="M55.408,60.686h-0.702c-0.201,0-0.365-0.063-0.492-0.19s-0.19-0.291-0.19-0.491v-2.729
			c0-0.321-0.097-0.555-0.291-0.703c-0.194-0.146-0.411-0.221-0.652-0.221s-0.455,0.074-0.642,0.221
			c-0.188,0.148-0.281,0.382-0.281,0.703v3.41h-1.404v-3.129c0-0.91,0.237-1.519,0.712-1.826c0.474-0.308,1-0.475,1.575-0.502
			c0.588,0,1.13,0.154,1.625,0.462c0.495,0.308,0.742,0.93,0.742,1.866V60.686z"/>
		<path fill="#787878" d="M59.313,60.365v-0.342c-0.241,0.375-0.565,0.609-0.973,0.702c-0.408,0.093-0.813,0.06-1.213-0.101
			c-0.401-0.16-0.746-0.457-1.033-0.893c-0.288-0.434-0.432-1.006-0.432-1.715c0-0.829,0.191-1.502,0.572-2.017
			c0.381-0.515,0.993-0.772,1.836-0.772c0.642,0,1.237,0.174,1.785,0.521s0.823,0.99,0.823,1.926v2.829
			c0,0.937-0.274,1.575-0.823,1.916s-1.143,0.512-1.785,0.512c-1.231,0-1.993-0.575-2.287-1.726h1.464
			c0.107,0.188,0.271,0.331,0.492,0.432c0.221,0.1,0.441,0.127,0.662,0.08s0.421-0.178,0.602-0.391
			C59.183,61.113,59.286,60.793,59.313,60.365z M57.026,58.058c0,0.923,0.268,1.435,0.803,1.534
			c0.535,0.101,0.929-0.023,1.184-0.371c0.12-0.146,0.207-0.377,0.261-0.691c0.053-0.314,0.057-0.625,0.01-0.934
			c-0.047-0.307-0.157-0.582-0.331-0.822c-0.174-0.24-0.428-0.361-0.763-0.361c-0.455,0-0.762,0.168-0.923,0.502
			C57.106,57.248,57.026,57.629,57.026,58.058z"/>
		<path fill="#787878" d="M63.533,58.539h1.404c0.053,0.401,0.207,0.682,0.461,0.842c0.268,0.188,0.635,0.281,1.104,0.281
			c0.414,0,0.729-0.073,0.943-0.221c0.214-0.146,0.321-0.361,0.321-0.642c0-0.428-0.602-0.775-1.806-1.044l-0.04-0.02l-0.16-0.04
			c-0.682-0.147-1.137-0.301-1.364-0.462c-0.268-0.146-0.455-0.36-0.562-0.642c-0.134-0.241-0.201-0.548-0.201-0.923
			c0-0.654,0.228-1.17,0.682-1.545c0.455-0.361,1.117-0.541,1.986-0.541c0.815,0,1.444,0.188,1.886,0.562
			c0.455,0.415,0.695,0.956,0.722,1.625h-0.802c-0.308,0-0.529-0.141-0.662-0.421c-0.067-0.134-0.161-0.248-0.281-0.342
			c-0.241-0.174-0.569-0.26-0.983-0.26c-0.401,0-0.689,0.072-0.862,0.221c-0.201,0.146-0.301,0.354-0.301,0.621
			c0,0.361,0.388,0.629,1.164,0.803c0.228,0.066,0.395,0.107,0.501,0.12c0.241,0.08,0.452,0.144,0.632,0.19
			c0.18,0.047,0.324,0.084,0.431,0.11c0.187,0.081,0.375,0.161,0.562,0.241c0.268,0.16,0.475,0.367,0.622,0.621
			c0.147,0.281,0.221,0.59,0.221,0.924c0,0.722-0.241,1.283-0.722,1.685c-0.481,0.374-1.164,0.562-2.046,0.562
			c-0.91,0-1.592-0.193-2.046-0.582C63.841,59.877,63.573,59.301,63.533,58.539z"/>
		<path fill="#787878" d="M70.348,62.571v-1.104h0.381c0.267,0,0.478-0.063,0.632-0.19s0.184-0.331,0.09-0.611l-1.866-5.316h1.545
			l1.083,3.771l0.943-3.291c0.081-0.32,0.294-0.48,0.642-0.48h0.963l-2.046,6.078c-0.16,0.441-0.361,0.756-0.602,0.943
			c-0.241,0.16-0.635,0.24-1.184,0.24c-0.04,0-0.087,0-0.141,0c-0.054,0-0.1,0-0.14,0c-0.041-0.014-0.09-0.023-0.151-0.029
			C70.438,62.574,70.388,62.571,70.348,62.571z"/>
		<path fill="#787878" d="M75.035,58.92h1.364c0.013,0.268,0.114,0.469,0.301,0.602c0.2,0.135,0.468,0.201,0.802,0.201
			c0.241,0,0.448-0.047,0.622-0.141c0.16-0.094,0.241-0.221,0.241-0.381c0-0.24-0.281-0.422-0.843-0.542
			c-0.241-0.04-0.421-0.08-0.542-0.12c-0.709-0.174-1.184-0.381-1.424-0.622c-0.268-0.241-0.401-0.562-0.401-0.963
			c0-0.509,0.194-0.929,0.582-1.264c0.401-0.308,0.923-0.462,1.565-0.462c0.695,0,1.25,0.154,1.665,0.462
			c0.388,0.335,0.595,0.769,0.622,1.304h-0.863c-0.254,0-0.448-0.113-0.582-0.341c-0.054-0.054-0.107-0.106-0.161-0.161
			c-0.161-0.119-0.381-0.18-0.662-0.18c-0.268,0-0.468,0.039-0.602,0.12c-0.121,0.08-0.181,0.2-0.181,0.36
			c0,0.215,0.348,0.396,1.043,0.543c0.081,0.026,0.151,0.047,0.211,0.06c0.06,0.014,0.117,0.021,0.17,0.021
			c0.682,0.174,1.157,0.374,1.424,0.602c0.254,0.24,0.381,0.562,0.381,0.963c0,0.588-0.214,1.043-0.642,1.364
			c-0.401,0.294-1.003,0.44-1.806,0.44c-0.762,0-1.331-0.152-1.705-0.461c-0.388-0.307-0.582-0.756-0.582-1.344V58.92z"/>
		<path fill="#787878" d="M82.512,60.686c-0.441,0.027-0.919,0.02-1.435-0.02c-0.515-0.041-0.772-0.368-0.772-0.983v-5.898h0.722
			c0.173,0,0.328,0.067,0.461,0.2c0.133,0.135,0.201,0.295,0.201,0.482v0.902h0.822v0.281c0,0.2-0.067,0.364-0.201,0.491
			c-0.134,0.128-0.294,0.19-0.481,0.19h-0.14v2.969c0,0.229,0.133,0.342,0.401,0.342h0.421V60.686z"/>
		<path fill="#787878" d="M86.498,59.041h1.003c-0.147,0.561-0.428,0.989-0.842,1.283c-0.415,0.309-0.937,0.461-1.565,0.461
			c-0.762,0-1.357-0.246-1.786-0.742c-0.428-0.48-0.642-1.17-0.642-2.066c0-0.855,0.208-1.523,0.622-2.006
			c0.428-0.494,1.023-0.742,1.786-0.742c0.802,0,1.424,0.241,1.866,0.723c0.428,0.494,0.642,1.184,0.642,2.066
			c0,0.053,0,0.1,0,0.141c0,0.039,0,0.066,0,0.08c0,0.066-0.007,0.113-0.021,0.141h-3.47c0.013,0.414,0.113,0.722,0.301,0.922
			c0.174,0.215,0.435,0.321,0.782,0.321c0.228,0,0.421-0.046,0.582-0.14c0.04-0.014,0.077-0.037,0.11-0.07
			c0.033-0.033,0.07-0.07,0.11-0.111c0.013-0.039,0.063-0.093,0.15-0.16C86.214,59.074,86.337,59.041,86.498,59.041z M84.091,57.476
			h2.046c-0.027-0.36-0.12-0.628-0.281-0.802c-0.174-0.188-0.421-0.281-0.742-0.281c-0.294,0-0.535,0.094-0.722,0.281
			C84.204,56.861,84.104,57.128,84.091,57.476z"/>
		<path fill="#787878" d="M92.61,60.686h-1.384v-3.129v-0.281c0-0.321-0.097-0.555-0.291-0.703
			c-0.194-0.146-0.411-0.221-0.652-0.221s-0.455,0.074-0.642,0.221c-0.188,0.148-0.281,0.382-0.281,0.703v3.41h-1.404v-3.129
			c0-0.91,0.237-1.519,0.712-1.826c0.474-0.308,1-0.475,1.575-0.502c0.308,0,0.608,0.033,0.903,0.101
			c0.294,0.067,0.562,0.2,0.802,0.401c0.201-0.174,0.438-0.297,0.712-0.371c0.274-0.074,0.558-0.117,0.853-0.131
			c0.588,0,1.13,0.154,1.625,0.462c0.495,0.308,0.742,0.93,0.742,1.866v3.129h-0.702c-0.201,0-0.365-0.063-0.492-0.19
			s-0.19-0.291-0.19-0.491v-2.729c0-0.321-0.097-0.555-0.291-0.703c-0.194-0.146-0.411-0.221-0.652-0.221s-0.458,0.074-0.652,0.221
			c-0.194,0.148-0.291,0.382-0.291,0.703v0.281V60.686z"/>
		<path fill="#787878" d="M98.877,60.686v-5.497c0-0.481,0.127-0.843,0.381-1.083c0.241-0.228,0.635-0.342,1.184-0.342
			c0.133,0,0.241,0.008,0.321,0.021c0.147,0,0.261,0.007,0.341,0.021v1.104h-0.361c-0.188,0-0.321,0.026-0.401,0.08
			c-0.067,0.053-0.1,0.16-0.1,0.32v0.361h0.863v0.301c0,0.201-0.067,0.365-0.201,0.492c-0.134,0.127-0.288,0.19-0.461,0.19h-0.201
			v4.032H98.877z"/>
		<path fill="#787878" d="M102.021,60.204c-0.281-0.241-0.481-0.565-0.602-0.974c-0.12-0.407-0.181-0.832-0.181-1.273
			c0-0.361,0.05-0.723,0.151-1.083c0.1-0.361,0.257-0.662,0.471-0.903c0.348-0.4,0.795-0.639,1.344-0.712
			c0.548-0.073,1.043-0.03,1.484,0.13c0.508,0.201,0.883,0.549,1.124,1.044c0.227,0.441,0.341,0.956,0.341,1.544
			c0,0.429-0.047,0.797-0.141,1.104c-0.094,0.309-0.214,0.569-0.361,0.783c-0.321,0.441-0.729,0.715-1.224,0.822
			c-0.441,0.121-0.886,0.131-1.334,0.03C102.646,60.615,102.288,60.445,102.021,60.204z M102.983,56.674
			c-0.281,0.307-0.408,0.766-0.381,1.373c0.027,0.609,0.141,1.033,0.341,1.274c0.08,0.107,0.221,0.198,0.421,0.271
			c0.2,0.074,0.404,0.08,0.612,0.021c0.207-0.06,0.391-0.21,0.552-0.452c0.16-0.24,0.247-0.628,0.261-1.163
			c0-0.481-0.077-0.843-0.231-1.083s-0.331-0.395-0.532-0.461c-0.2-0.067-0.401-0.07-0.602-0.011
			C103.224,56.503,103.077,56.58,102.983,56.674z"/>
		<path fill="#787878" d="M106.527,60.686v-2.588c0-0.521,0.077-0.959,0.23-1.314c0.154-0.354,0.364-0.639,0.632-0.852
			c0.254-0.201,0.552-0.348,0.893-0.441s0.692-0.141,1.053-0.141c0.027,0,0.06,0,0.1,0c0.041,0,0.074,0,0.101,0v1.424h-0.461
			c-0.388,0-0.676,0.094-0.863,0.281c-0.188,0.188-0.281,0.481-0.281,0.883v2.748H106.527z"/>
		<path fill="#787878" d="M112.292,60.686v-6.179c0-0.2,0.07-0.372,0.21-0.512c0.141-0.141,0.311-0.211,0.512-0.211h2.628
			c0.749,0,1.304,0.161,1.665,0.481c0.375,0.334,0.563,0.822,0.563,1.465c0,0.428-0.094,0.782-0.281,1.063
			c-0.16,0.269-0.414,0.462-0.762,0.582c0.307,0.107,0.521,0.268,0.642,0.482c0.12,0.2,0.194,0.541,0.221,1.022l0.04,0.823
			c0,0.08,0,0.167,0,0.26c0,0.094,0.007,0.182,0.02,0.262c0.041,0.24,0.121,0.395,0.241,0.461h-1.564
			c-0.067-0.133-0.107-0.273-0.12-0.422c-0.027-0.213-0.041-0.36-0.041-0.441l-0.02-0.742c-0.027-0.4-0.107-0.688-0.24-0.862
			c-0.148-0.147-0.409-0.221-0.783-0.221h-1.505v2.688H112.292z M113.716,56.793h1.665c0.361,0,0.628-0.072,0.802-0.221
			c0.174-0.146,0.262-0.373,0.262-0.682c0-0.307-0.088-0.535-0.262-0.682c-0.16-0.16-0.401-0.24-0.722-0.24h-1.746V56.793z"/>
		<path fill="#787878" d="M122.137,59.041h1.002c-0.146,0.561-0.428,0.989-0.842,1.283c-0.415,0.309-0.937,0.461-1.564,0.461
			c-0.763,0-1.357-0.246-1.786-0.742c-0.429-0.48-0.642-1.17-0.642-2.066c0-0.855,0.207-1.523,0.621-2.006
			c0.428-0.494,1.023-0.742,1.786-0.742c0.802,0,1.425,0.241,1.866,0.723c0.428,0.494,0.642,1.184,0.642,2.066
			c0,0.053,0,0.1,0,0.141c0,0.039,0,0.066,0,0.08c0,0.066-0.007,0.113-0.021,0.141h-3.471c0.014,0.414,0.113,0.722,0.301,0.922
			c0.174,0.215,0.436,0.321,0.783,0.321c0.227,0,0.421-0.046,0.582-0.14c0.039-0.014,0.076-0.037,0.109-0.07s0.07-0.07,0.111-0.111
			c0.013-0.039,0.063-0.093,0.15-0.16C121.852,59.074,121.976,59.041,122.137,59.041z M119.729,57.476h2.047
			c-0.027-0.36-0.121-0.628-0.281-0.802c-0.174-0.188-0.422-0.281-0.742-0.281c-0.295,0-0.535,0.094-0.723,0.281
			S119.742,57.128,119.729,57.476z"/>
		<path fill="#787878" d="M127.305,59.041h1.004c-0.148,0.561-0.429,0.989-0.843,1.283c-0.415,0.309-0.937,0.461-1.565,0.461
			c-0.762,0-1.357-0.246-1.785-0.742c-0.428-0.48-0.643-1.17-0.643-2.066c0-0.855,0.208-1.523,0.623-2.006
			c0.428-0.494,1.023-0.742,1.785-0.742c0.803,0,1.424,0.241,1.865,0.723c0.241,0.295,0.414,0.635,0.521,1.023h-1.404
			c-0.066-0.134-0.133-0.234-0.2-0.301c-0.174-0.188-0.421-0.281-0.742-0.281c-0.294,0-0.535,0.094-0.722,0.281
			c-0.241,0.268-0.361,0.709-0.361,1.323c0,0.616,0.12,1.05,0.361,1.304c0.174,0.215,0.434,0.321,0.781,0.321
			c0.229,0,0.422-0.046,0.582-0.14c0.041-0.014,0.077-0.037,0.111-0.07c0.033-0.033,0.069-0.07,0.109-0.111
			c0.027-0.039,0.08-0.093,0.16-0.16C127.024,59.074,127.145,59.041,127.305,59.041z"/>
		<path fill="#787878" d="M129.346,60.204c-0.281-0.241-0.482-0.565-0.603-0.974c-0.12-0.407-0.181-0.832-0.181-1.273
			c0-0.361,0.051-0.723,0.15-1.083c0.101-0.361,0.258-0.662,0.472-0.903c0.348-0.4,0.796-0.639,1.345-0.712
			c0.548-0.073,1.043-0.03,1.484,0.13c0.508,0.201,0.883,0.549,1.123,1.044c0.227,0.441,0.342,0.956,0.342,1.544
			c0,0.429-0.048,0.797-0.141,1.104c-0.094,0.309-0.215,0.569-0.361,0.783c-0.321,0.441-0.729,0.715-1.225,0.822
			c-0.441,0.121-0.886,0.131-1.334,0.03C129.971,60.615,129.612,60.445,129.346,60.204z M130.309,56.674
			c-0.281,0.307-0.408,0.766-0.382,1.373c0.026,0.609,0.141,1.033,0.341,1.274c0.08,0.107,0.221,0.198,0.422,0.271
			c0.2,0.074,0.404,0.08,0.611,0.021s0.392-0.21,0.553-0.452c0.16-0.24,0.246-0.628,0.26-1.163c0-0.481-0.076-0.843-0.23-1.083
			s-0.331-0.395-0.531-0.461c-0.201-0.067-0.401-0.07-0.602-0.011C130.549,56.503,130.401,56.58,130.309,56.674z"/>
		<path fill="#787878" d="M138.506,60.686h-0.701c-0.201,0-0.365-0.063-0.492-0.19s-0.19-0.291-0.19-0.491v-2.729
			c0-0.321-0.097-0.555-0.291-0.703c-0.194-0.146-0.411-0.221-0.651-0.221c-0.241,0-0.455,0.074-0.643,0.221
			c-0.188,0.148-0.281,0.382-0.281,0.703v3.41h-1.404v-3.129c0-0.91,0.238-1.519,0.713-1.826s1-0.475,1.574-0.502
			c0.589,0,1.131,0.154,1.625,0.462c0.495,0.308,0.742,0.93,0.742,1.866V60.686z"/>
		<path fill="#787878" d="M138.881,60.686v-5.497c0-0.481,0.127-0.843,0.382-1.083c0.241-0.228,0.635-0.342,1.184-0.342
			c0.134,0,0.241,0.008,0.321,0.021c0.146,0,0.26,0.007,0.341,0.021v1.104h-0.361c-0.188,0-0.321,0.026-0.401,0.08
			c-0.066,0.053-0.1,0.16-0.1,0.32v0.361h0.862v0.301c0,0.201-0.067,0.365-0.2,0.492c-0.135,0.127-0.289,0.19-0.462,0.19h-0.2v4.032
			H138.881z"/>
		<path fill="#787878" d="M141.482,53.784h0.723c0.188,0,0.348,0.067,0.481,0.2c0.134,0.135,0.2,0.295,0.2,0.482v0.421h-1.404
			V53.784z M141.482,55.35h0.723c0.188,0,0.348,0.066,0.481,0.2s0.2,0.294,0.2,0.481v4.654h-1.404V55.35z"/>
		<path fill="#787878" d="M146.633,60.365v-0.342c-0.241,0.375-0.565,0.609-0.974,0.702c-0.407,0.093-0.813,0.06-1.214-0.101
			c-0.4-0.16-0.745-0.457-1.033-0.893c-0.287-0.434-0.432-1.006-0.432-1.715c0-0.829,0.191-1.502,0.572-2.017
			s0.993-0.772,1.836-0.772c0.643,0,1.236,0.174,1.785,0.521s0.822,0.99,0.822,1.926v2.829c0,0.937-0.273,1.575-0.822,1.916
			s-1.143,0.512-1.785,0.512c-1.23,0-1.993-0.575-2.287-1.726h1.465c0.106,0.188,0.271,0.331,0.491,0.432
			c0.221,0.1,0.441,0.127,0.662,0.08s0.421-0.178,0.602-0.391C146.502,61.113,146.605,60.793,146.633,60.365z M144.346,58.058
			c0,0.923,0.268,1.435,0.803,1.534c0.534,0.101,0.929-0.023,1.184-0.371c0.119-0.146,0.207-0.377,0.26-0.691
			c0.054-0.314,0.057-0.625,0.01-0.934c-0.047-0.307-0.156-0.582-0.33-0.822s-0.428-0.361-0.763-0.361
			c-0.454,0-0.763,0.168-0.923,0.502S144.346,57.629,144.346,58.058z"/>
		<path fill="#787878" d="M153.046,55.35v3.129c0,0.95-0.247,1.572-0.742,1.866s-1.036,0.44-1.625,0.44
			c-0.575-0.026-1.101-0.187-1.575-0.48c-0.475-0.295-0.712-0.902-0.712-1.826V55.35h1.404v3.41c0,0.32,0.093,0.555,0.28,0.702
			s0.402,0.221,0.643,0.221s0.458-0.073,0.652-0.221c0.193-0.147,0.291-0.382,0.291-0.702v-2.729c0-0.188,0.063-0.348,0.189-0.481
			s0.291-0.2,0.492-0.2H153.046z"/>
		<path fill="#787878" d="M153.42,60.686v-2.588c0-0.521,0.077-0.959,0.23-1.314c0.154-0.354,0.365-0.639,0.633-0.852
			c0.254-0.201,0.552-0.348,0.893-0.441s0.691-0.141,1.053-0.141c0.027,0,0.061,0,0.101,0s0.073,0,0.101,0v1.424h-0.461
			c-0.389,0-0.676,0.094-0.863,0.281s-0.281,0.481-0.281,0.883v2.748H153.42z"/>
		<path fill="#787878" d="M160.135,60.465c-0.281,0.147-0.578,0.237-0.893,0.271c-0.314,0.033-0.592,0.049-0.833,0.049
			c-0.481,0-0.903-0.13-1.264-0.391c-0.361-0.261-0.542-0.691-0.542-1.294c0-0.562,0.164-0.963,0.492-1.204
			c0.327-0.24,0.745-0.4,1.254-0.48c0.066,0,0.146-0.011,0.24-0.031c0.094-0.02,0.201-0.036,0.32-0.049
			c0.589-0.081,0.883-0.254,0.883-0.522c0-0.2-0.104-0.331-0.311-0.392c-0.207-0.06-0.398-0.09-0.572-0.09
			c-0.188,0-0.354,0.027-0.501,0.08c-0.147,0.054-0.254,0.154-0.321,0.301h-1.344c0.053-0.414,0.24-0.755,0.562-1.022
			c0.361-0.308,0.876-0.462,1.545-0.462c0.749,0,1.311,0.127,1.685,0.381c0.389,0.269,0.582,0.643,0.582,1.124v1.825
			c0,0.535-0.097,0.953-0.291,1.254C160.633,60.113,160.402,60.332,160.135,60.465z M159.813,57.997
			c-0.188,0.094-0.448,0.181-0.782,0.261l-0.461,0.101c-0.241,0.067-0.415,0.153-0.521,0.261c-0.094,0.147-0.141,0.295-0.141,0.441
			c0,0.201,0.06,0.361,0.18,0.481c0.121,0.107,0.295,0.161,0.521,0.161c0.375,0,0.669-0.107,0.883-0.322
			c0.215-0.213,0.321-0.508,0.321-0.882V57.997z"/>
		<path fill="#787878" d="M162.836,54.446v1.604c0.147-0.254,0.361-0.461,0.643-0.621c0.24-0.134,0.535-0.201,0.883-0.201
			c0.629,0,1.143,0.262,1.545,0.783c0.4,0.521,0.602,1.197,0.602,2.025c0,0.83-0.201,1.505-0.602,2.026
			c-0.201,0.255-0.473,0.438-0.813,0.552c-0.342,0.113-0.68,0.17-1.014,0.17c-0.643,0-1.237-0.166-1.785-0.501
			c-0.549-0.334-0.822-0.976-0.822-1.926v-4.595h0.682c0.188,0,0.348,0.068,0.481,0.201C162.77,54.099,162.836,54.26,162.836,54.446
			z M165.123,57.977c0-0.48-0.1-0.855-0.301-1.123c-0.201-0.281-0.475-0.421-0.822-0.421c-0.375,0-0.662,0.134-0.863,0.401
			c-0.2,0.281-0.301,0.662-0.301,1.143c0,0.563,0.094,0.971,0.281,1.225c0.201,0.281,0.481,0.421,0.843,0.421
			c0.374,0,0.661-0.14,0.862-0.421S165.123,58.512,165.123,57.977z"/>
		<path fill="#787878" d="M166.963,53.784h0.723c0.188,0,0.348,0.063,0.48,0.19c0.135,0.127,0.201,0.285,0.201,0.472v6.239h-1.404
			V53.784z"/>
		<path fill="#787878" d="M172.473,59.041h1.004c-0.148,0.561-0.429,0.989-0.843,1.283c-0.415,0.309-0.937,0.461-1.565,0.461
			c-0.762,0-1.357-0.246-1.785-0.742c-0.428-0.48-0.643-1.17-0.643-2.066c0-0.855,0.208-1.523,0.623-2.006
			c0.428-0.494,1.023-0.742,1.785-0.742c0.803,0,1.424,0.241,1.865,0.723c0.428,0.494,0.643,1.184,0.643,2.066
			c0,0.053,0,0.1,0,0.141c0,0.039,0,0.066,0,0.08c0,0.066-0.008,0.113-0.021,0.141h-3.47c0.013,0.414,0.113,0.722,0.301,0.922
			c0.174,0.215,0.434,0.321,0.781,0.321c0.229,0,0.422-0.046,0.582-0.14c0.041-0.014,0.077-0.037,0.111-0.07
			c0.033-0.033,0.069-0.07,0.109-0.111c0.014-0.039,0.063-0.093,0.15-0.16C172.189,59.074,172.313,59.041,172.473,59.041z
			 M170.066,57.476h2.045c-0.026-0.36-0.119-0.628-0.28-0.802c-0.174-0.188-0.421-0.281-0.742-0.281
			c-0.294,0-0.535,0.094-0.722,0.281C170.18,56.861,170.079,57.128,170.066,57.476z"/>
		<path fill="#787878" d="M182.551,58.299c-0.066,0.802-0.367,1.431-0.902,1.885c-0.549,0.441-1.271,0.662-2.167,0.662
			c-1.043,0-1.839-0.314-2.388-0.942c-0.548-0.603-0.822-1.491-0.822-2.669c0-1.203,0.281-2.105,0.843-2.707
			c0.575-0.629,1.404-0.943,2.487-0.943c0.883,0,1.586,0.221,2.107,0.662c0.494,0.428,0.775,1.029,0.842,1.805h-0.862
			c-0.321,0-0.549-0.14-0.683-0.421c-0.094-0.173-0.207-0.327-0.341-0.462c-0.268-0.199-0.622-0.301-1.063-0.301
			c-0.615,0-1.09,0.201-1.424,0.603c-0.321,0.401-0.481,0.989-0.481,1.765c0,0.75,0.16,1.324,0.481,1.727
			c0.307,0.414,0.769,0.621,1.385,0.621c0.428,0,0.781-0.107,1.063-0.32c0.254-0.201,0.435-0.521,0.541-0.963H182.551z"/>
		<path fill="#787878" d="M183.668,60.204c-0.28-0.241-0.48-0.565-0.602-0.974c-0.12-0.407-0.181-0.832-0.181-1.273
			c0-0.361,0.05-0.723,0.151-1.083c0.1-0.361,0.257-0.662,0.471-0.903c0.348-0.4,0.795-0.639,1.344-0.712s1.043-0.03,1.484,0.13
			c0.509,0.201,0.883,0.549,1.124,1.044c0.228,0.441,0.341,0.956,0.341,1.544c0,0.429-0.047,0.797-0.141,1.104
			c-0.094,0.309-0.214,0.569-0.361,0.783c-0.32,0.441-0.729,0.715-1.223,0.822c-0.441,0.121-0.887,0.131-1.334,0.03
			C184.293,60.615,183.936,60.445,183.668,60.204z M184.631,56.674c-0.28,0.307-0.408,0.766-0.381,1.373
			c0.027,0.609,0.141,1.033,0.342,1.274c0.08,0.107,0.221,0.198,0.421,0.271c0.2,0.074,0.404,0.08,0.612,0.021
			c0.207-0.06,0.391-0.21,0.551-0.452c0.16-0.24,0.248-0.628,0.262-1.163c0-0.481-0.078-0.843-0.231-1.083s-0.331-0.395-0.532-0.461
			c-0.199-0.067-0.4-0.07-0.602-0.011C184.872,56.503,184.725,56.58,184.631,56.674z"/>
		<path fill="#787878" d="M192.83,60.686h-1.385v-3.129v-0.281c0-0.321-0.098-0.555-0.291-0.703
			c-0.193-0.146-0.411-0.221-0.652-0.221c-0.24,0-0.455,0.074-0.642,0.221c-0.188,0.148-0.28,0.382-0.28,0.703v3.41h-1.404v-3.129
			c0-0.91,0.236-1.519,0.712-1.826c0.474-0.308,0.999-0.475,1.575-0.502c0.307,0,0.607,0.033,0.902,0.101
			c0.294,0.067,0.562,0.2,0.803,0.401c0.2-0.174,0.438-0.297,0.712-0.371s0.558-0.117,0.853-0.131c0.588,0,1.13,0.154,1.625,0.462
			c0.494,0.308,0.742,0.93,0.742,1.866v3.129h-0.702c-0.2,0-0.364-0.063-0.491-0.19s-0.191-0.291-0.191-0.491v-2.729
			c0-0.321-0.097-0.555-0.291-0.703c-0.193-0.146-0.41-0.221-0.651-0.221s-0.458,0.074-0.651,0.221
			c-0.195,0.148-0.291,0.382-0.291,0.703v0.281V60.686z"/>
		<path fill="#787878" d="M198,61.969c0,0.188-0.068,0.348-0.201,0.482c-0.134,0.133-0.295,0.2-0.481,0.2h-0.683v-4.995
			c0-0.936,0.274-1.574,0.823-1.916c0.548-0.341,1.144-0.512,1.785-0.512c0.335,0,0.673,0.064,1.013,0.191
			c0.342,0.127,0.612,0.311,0.813,0.551c0.402,0.521,0.603,1.191,0.603,2.006c0,0.844-0.2,1.525-0.603,2.047
			c-0.4,0.508-0.916,0.762-1.545,0.762c-0.334,0-0.628-0.06-0.882-0.18c-0.269-0.134-0.481-0.342-0.642-0.622V61.969z
			 M200.287,58.037c0-0.521-0.102-0.922-0.302-1.203s-0.488-0.422-0.862-0.422c-0.361,0-0.643,0.141-0.843,0.422
			c-0.188,0.254-0.28,0.655-0.28,1.203c0,0.509,0.1,0.891,0.301,1.145c0.2,0.28,0.488,0.42,0.862,0.42
			c0.348,0,0.622-0.14,0.822-0.42C200.186,58.9,200.287,58.52,200.287,58.037z"/>
		<path fill="#787878" d="M206.72,55.35v3.129c0,0.95-0.247,1.572-0.742,1.866s-1.036,0.44-1.625,0.44
			c-0.575-0.026-1.101-0.187-1.575-0.48c-0.475-0.295-0.712-0.902-0.712-1.826V55.35h1.404v3.41c0,0.32,0.093,0.555,0.28,0.702
			s0.402,0.221,0.643,0.221s0.458-0.073,0.652-0.221c0.193-0.147,0.291-0.382,0.291-0.702v-2.729c0-0.188,0.063-0.348,0.189-0.481
			s0.291-0.2,0.492-0.2H206.72z"/>
		<path fill="#787878" d="M209.462,60.686c-0.441,0.027-0.919,0.02-1.435-0.02c-0.515-0.041-0.771-0.368-0.771-0.983v-5.898h0.722
			c0.173,0,0.327,0.067,0.462,0.2c0.133,0.135,0.2,0.295,0.2,0.482v0.902h0.822v0.281c0,0.2-0.067,0.364-0.2,0.491
			c-0.135,0.128-0.295,0.19-0.482,0.19h-0.14v2.969c0,0.229,0.134,0.342,0.401,0.342h0.421V60.686z"/>
		<path fill="#787878" d="M209.857,53.784h0.722c0.187,0,0.348,0.067,0.481,0.2c0.133,0.135,0.201,0.295,0.201,0.482v0.421h-1.404
			V53.784z M209.857,55.35h0.722c0.187,0,0.348,0.066,0.481,0.2c0.133,0.134,0.201,0.294,0.201,0.481v4.654h-1.404V55.35z"/>
		<path fill="#787878" d="M216.13,60.686h-0.702c-0.201,0-0.365-0.063-0.492-0.19s-0.189-0.291-0.189-0.491v-2.729
			c0-0.321-0.098-0.555-0.291-0.703c-0.194-0.146-0.412-0.221-0.652-0.221s-0.455,0.074-0.643,0.221
			c-0.188,0.148-0.28,0.382-0.28,0.703v3.41h-1.404v-3.129c0-0.91,0.237-1.519,0.712-1.826s1-0.475,1.575-0.502
			c0.589,0,1.13,0.154,1.625,0.462s0.742,0.93,0.742,1.866V60.686z"/>
		<path fill="#787878" d="M220.035,60.365v-0.342c-0.24,0.375-0.564,0.609-0.973,0.702s-0.813,0.06-1.213-0.101
			c-0.402-0.16-0.746-0.457-1.033-0.893c-0.288-0.434-0.432-1.006-0.432-1.715c0-0.829,0.19-1.502,0.571-2.017
			c0.382-0.515,0.993-0.772,1.836-0.772c0.642,0,1.237,0.174,1.785,0.521s0.823,0.99,0.823,1.926v2.829
			c0,0.937-0.275,1.575-0.823,1.916s-1.144,0.512-1.785,0.512c-1.231,0-1.993-0.575-2.287-1.726h1.464
			c0.107,0.188,0.271,0.331,0.492,0.432c0.221,0.1,0.441,0.127,0.662,0.08s0.422-0.178,0.602-0.391
			C219.905,61.113,220.009,60.793,220.035,60.365z M217.748,58.058c0,0.923,0.268,1.435,0.803,1.534
			c0.535,0.101,0.93-0.023,1.184-0.371c0.121-0.146,0.207-0.377,0.262-0.691c0.053-0.314,0.057-0.625,0.01-0.934
			c-0.047-0.307-0.158-0.582-0.331-0.822c-0.175-0.24-0.429-0.361-0.763-0.361c-0.455,0-0.762,0.168-0.923,0.502
			C217.829,57.248,217.748,57.629,217.748,58.058z"/>
	</g>
</g>
</svg>
