<?xml version="1.0" encoding="utf-8"?>
<!-- Generator: Adobe Illustrator 16.0.3, SVG Export Plug-In . SVG Version: 6.00 Build 0)  -->
<!DOCTYPE svg PUBLIC "-//W3C//DTD SVG 1.1//EN" "http://www.w3.org/Graphics/SVG/1.1/DTD/svg11.dtd">
<svg version="1.1" id="Ebene_1" xmlns="http://www.w3.org/2000/svg" xmlns:xlink="http://www.w3.org/1999/xlink" x="0px" y="0px"
	 width="128px" height="35px" viewBox="0 0 128 35" enable-background="new 0 0 128 35" xml:space="preserve">
<g>
	<path fill="#C8C8C8" d="M28.802,24.918v-4.447h-1.055v4.153c0,0.821-0.377,1.259-1.147,1.259c-0.78,0-1.129-0.312-1.129-1.259
		v-4.153h-1.064v4.457c0,0.991,0.523,1.83,2.193,1.83C27.994,26.758,28.802,26.053,28.802,24.918L28.802,24.918z"/>
	<path fill="#C8C8C8" d="M34.804,26.651v-6.181h-1.001l0.019,2.822c0,0.563,0.063,1.446,0.091,1.76l-0.028,0.027
		c-0.083-0.286-0.358-1.019-0.651-1.591l-1.542-3.019h-1.193v6.181h1.037l-0.037-2.992c-0.009-0.544-0.017-1.197-0.063-1.715
		l0.027-0.027c0.12,0.365,0.468,1.144,0.808,1.832l1.422,2.902H34.804L34.804,26.651z"/>
	<polygon fill="#C8C8C8" points="37.611,26.651 37.611,20.471 36.528,20.471 36.528,26.651 	"/>
	<path fill="#C8C8C8" d="M43.704,20.471h-1.102l-1.165,3.447c-0.312,0.921-0.386,1.295-0.386,1.295h-0.018
		c0,0-0.073-0.455-0.331-1.242l-1.147-3.5h-1.156l2.138,6.208h0.982L43.704,20.471L43.704,20.471z"/>
	<polygon fill="#C8C8C8" points="48.153,26.651 48.153,25.776 45.61,25.776 45.61,23.846 47.547,23.846 47.547,22.998 
		45.592,22.998 45.592,21.31 47.923,21.31 48.061,20.471 44.537,20.471 44.537,26.651 	"/>
	<path fill="#C8C8C8" d="M53.833,26.651l-0.937-1.483c-0.33-0.517-0.752-1.116-0.982-1.232c0.954,0,1.578-0.741,1.578-1.697
		c0-0.964-0.642-1.768-2.064-1.768h-1.937v6.181h1.038v-2.67c0.201,0.008,0.293,0.07,0.413,0.187
		c0.349,0.341,0.643,0.77,1.083,1.527l0.551,0.956H53.833L53.833,26.651z M52.391,22.249c0,0.32-0.11,0.58-0.284,0.749
		c-0.193,0.187-0.486,0.26-1.037,0.26h-0.542v-1.957h0.578C52.042,21.301,52.391,21.622,52.391,22.249L52.391,22.249z"/>
	<path fill="#C8C8C8" d="M58.933,24.785c0-0.93-0.643-1.501-1.561-1.761L56.62,22.81c-0.624-0.178-0.844-0.374-0.844-0.759
		c0-0.509,0.413-0.84,1.037-0.84c0.505,0,0.908,0.134,1.496,0.474l0.478-0.722c-0.56-0.385-1.285-0.591-2.01-0.591
		c-1.275,0-2.157,0.741-2.157,1.831c0,0.357,0.092,0.652,0.267,0.902c0.238,0.349,0.652,0.581,1.229,0.74l0.68,0.188
		c0.651,0.179,0.945,0.465,0.945,0.921c0,0.615-0.468,0.983-1.248,0.983c-0.643,0-1.147-0.188-1.716-0.511l-0.404,0.786
		c0.624,0.367,1.358,0.555,2.083,0.555C58.079,26.768,58.933,25.812,58.933,24.785L58.933,24.785z"/>
	<polygon fill="#C8C8C8" points="61.336,26.651 61.336,20.471 60.253,20.471 60.253,26.651 	"/>
	<polygon fill="#C8C8C8" points="66.704,20.471 62.308,20.471 62.308,21.328 63.914,21.328 63.914,26.651 64.969,26.651 
		64.969,21.328 66.567,21.328 	"/>
	<path fill="#C8C8C8" d="M70.933,19.595c0-0.348-0.284-0.624-0.615-0.624c-0.348,0-0.624,0.276-0.624,0.624
		c0,0.34,0.275,0.625,0.615,0.625C70.649,20.22,70.933,19.935,70.933,19.595L70.933,19.595z M69.006,19.595
		c0-0.348-0.275-0.624-0.615-0.624c-0.339,0-0.615,0.276-0.615,0.624c0,0.34,0.275,0.625,0.615,0.625
		C68.731,20.22,69.006,19.935,69.006,19.595L69.006,19.595z M72.09,26.651l-2.028-6.189h-1.22l-2.084,6.189h1.092l0.514-1.626h2.056
		l0.514,1.626H72.09L72.09,26.651z M70.181,24.168H68.62c0.147-0.41,0.799-2.634,0.799-2.634h0.01
		C69.474,21.774,70.117,24.034,70.181,24.168L70.181,24.168z"/>
	<polygon fill="#C8C8C8" points="76.649,20.471 72.253,20.471 72.253,21.328 73.859,21.328 73.859,26.651 74.915,26.651 
		74.915,21.328 76.511,21.328 	"/>
	<path fill="#C8C8C8" d="M83.547,22.32c0-0.681-0.312-1.234-0.872-1.555c-0.349-0.207-0.688-0.295-1.615-0.295h-1.688v6.181h1.045
		v-2.358h1.075C82.639,24.293,83.547,23.534,83.547,22.32L83.547,22.32z M82.382,22.381c0,0.734-0.358,1.091-1.138,1.091h-0.826
		v-2.171h0.826c0.414,0,0.689,0.107,0.881,0.305C82.3,21.782,82.382,22.042,82.382,22.381L82.382,22.381z"/>
	<path fill="#C8C8C8" d="M88.678,26.651l-2.028-6.189h-1.221l-2.083,6.189h1.092l0.514-1.626h2.055l0.515,1.626H88.678
		L88.678,26.651z M86.769,24.168h-1.56c0.147-0.41,0.799-2.634,0.799-2.634h0.008C86.062,21.774,86.705,24.034,86.769,24.168
		L86.769,24.168z"/>
	<path fill="#C8C8C8" d="M93.972,23.579c0-0.964-0.221-1.707-0.689-2.234c-0.596-0.66-1.303-0.874-2.496-0.874h-1.322v6.181h1.569
		c1.184,0,1.734-0.205,2.267-0.866C93.733,25.249,93.972,24.517,93.972,23.579L93.972,23.579z M92.796,23.687
		c0,1.401-0.45,2.125-1.569,2.125H90.53v-4.529h0.669c0.57,0,0.899,0.145,1.193,0.538C92.723,22.257,92.796,22.89,92.796,23.687
		L92.796,23.687z"/>
	<polygon fill="#C8C8C8" points="98.897,26.651 98.897,25.776 96.355,25.776 96.355,23.846 98.291,23.846 98.291,22.998 
		96.336,22.998 96.336,21.31 98.668,21.31 98.805,20.471 95.281,20.471 95.281,26.651 	"/>
	<path fill="#C8C8C8" d="M104.577,26.651l-0.937-1.483c-0.33-0.517-0.752-1.116-0.982-1.232c0.955,0,1.579-0.741,1.579-1.697
		c0-0.964-0.642-1.768-2.065-1.768h-1.936v6.181h1.037v-2.67c0.202,0.008,0.294,0.07,0.414,0.187
		c0.349,0.341,0.642,0.77,1.082,1.527l0.551,0.956H104.577L104.577,26.651z M103.136,22.249c0,0.32-0.11,0.58-0.285,0.749
		c-0.193,0.187-0.486,0.26-1.037,0.26h-0.542v-1.957h0.579C102.788,21.301,103.136,21.622,103.136,22.249L103.136,22.249z"/>
	<path fill="#C8C8C8" d="M110.035,24.9c0-0.616-0.293-1.313-1.349-1.563c0.707-0.194,1.092-0.688,1.092-1.348
		c0-0.519-0.238-0.921-0.715-1.216c-0.396-0.24-0.726-0.303-1.671-0.303h-1.68v6.181h1.845
		C109.163,26.651,110.035,26.124,110.035,24.9L110.035,24.9z M108.668,22.149c0,0.16-0.056,0.42-0.248,0.616
		c-0.203,0.205-0.395,0.232-0.78,0.232h-0.899V21.31h0.816c0.303,0,0.468,0.027,0.597,0.071
		C108.456,21.489,108.668,21.793,108.668,22.149L108.668,22.149z M108.869,24.802c0,0.554-0.349,1-1.157,1h-0.954v-1.956h0.927
		c0.302,0,0.432,0.01,0.587,0.055C108.622,23.999,108.869,24.364,108.869,24.802L108.869,24.802z"/>
	<path fill="#C8C8C8" d="M116.202,23.571c0-1.806-0.862-3.19-2.652-3.19c-1.587,0-2.652,1.143-2.652,3.18
		c0,1.831,0.89,3.189,2.697,3.189C115.247,26.75,116.202,25.498,116.202,23.571L116.202,23.571z M115,23.633
		c0,1.661-0.486,2.34-1.432,2.34c-1.083,0-1.496-0.885-1.496-2.475c0-1.483,0.404-2.321,1.468-2.321
		C114.678,21.177,115,22.122,115,23.633L115,23.633z"/>
	<path fill="#C8C8C8" d="M121.81,26.651l-0.937-1.483c-0.331-0.517-0.752-1.116-0.982-1.232c0.955,0,1.579-0.741,1.579-1.697
		c0-0.964-0.642-1.768-2.065-1.768h-1.937v6.181h1.037v-2.67c0.202,0.008,0.294,0.07,0.413,0.187
		c0.349,0.341,0.643,0.77,1.083,1.527l0.551,0.956H121.81L121.81,26.651z M120.368,22.249c0,0.32-0.11,0.58-0.284,0.749
		c-0.193,0.187-0.487,0.26-1.038,0.26h-0.542v-1.957h0.578C120.02,21.301,120.368,21.622,120.368,22.249L120.368,22.249z"/>
	<path fill="#C8C8C8" d="M127.285,26.651v-6.181h-1l0.019,2.822c0,0.563,0.064,1.446,0.093,1.76l-0.028,0.027
		c-0.083-0.286-0.358-1.019-0.651-1.591l-1.543-3.019h-1.192v6.181h1.037l-0.037-2.992c-0.009-0.544-0.019-1.197-0.063-1.715
		l0.026-0.027c0.12,0.365,0.468,1.144,0.808,1.832l1.424,2.902H127.285L127.285,26.651z"/>
	<path fill="#C8C8C8" d="M27.568,30.365c0-0.498-0.115-0.805-0.323-1.037c-0.251-0.281-0.591-0.344-1.188-0.344h-0.842l-0.809,3.912
		h0.952c0.716,0,1.094-0.148,1.477-0.538C27.283,31.9,27.568,31.023,27.568,30.365L27.568,30.365z M26.889,30.382
		c0,0.307-0.12,1.06-0.476,1.575c-0.175,0.248-0.465,0.407-0.87,0.407h-0.388l0.585-2.865h0.394c0.318,0,0.503,0.073,0.635,0.283
		C26.862,29.935,26.889,30.134,26.889,30.382L26.889,30.382z"/>
	<path fill="#C8C8C8" d="M29.268,29.2c0-0.228-0.175-0.415-0.394-0.415c-0.225,0-0.405,0.188-0.405,0.419
		c0,0.227,0.18,0.414,0.399,0.414C29.093,29.618,29.268,29.431,29.268,29.2L29.268,29.2z M29.011,29.969l-0.629,0.096l-0.58,2.832
		h0.612L29.011,29.969L29.011,29.969z"/>
	<path fill="#C8C8C8" d="M31.745,30.728c0-0.51-0.339-0.764-0.875-0.764c-0.355,0-0.662,0.118-0.936,0.39
		c-0.377,0.38-0.618,0.997-0.618,1.568c0,0.681,0.394,1.047,0.984,1.047c0.465,0,0.793-0.128,1.127-0.406l-0.187-0.386
		c-0.257,0.21-0.492,0.312-0.783,0.312c-0.3,0-0.503-0.17-0.503-0.527c0-0.09,0.022-0.243,0.034-0.299
		c0.049,0,0.181,0.022,0.333,0.022c0.568,0,0.946-0.131,1.176-0.362C31.657,31.164,31.745,30.96,31.745,30.728L31.745,30.728z
		 M31.138,30.768c0,0.118-0.044,0.209-0.115,0.282c-0.131,0.137-0.361,0.188-0.695,0.188c-0.093,0-0.207-0.018-0.24-0.018
		c0.12-0.538,0.394-0.793,0.705-0.793C31.044,30.427,31.138,30.575,31.138,30.768L31.138,30.768z"/>
	<path fill="#C8C8C8" d="M36.748,28.984h-0.629l-0.531,2.575c-0.055,0.277-0.087,0.368-0.158,0.487
		c-0.126,0.209-0.367,0.362-0.7,0.362c-0.323,0-0.521-0.13-0.553-0.357c-0.016-0.095,0-0.261,0.055-0.525l0.525-2.542h-0.635
		l-0.553,2.678c-0.034,0.164-0.049,0.345-0.049,0.463c0,0.544,0.437,0.844,1.117,0.844c0.59,0,0.88-0.174,1.083-0.327
		c0.29-0.216,0.372-0.46,0.482-0.985L36.748,28.984L36.748,28.984z"/>
	<path fill="#C8C8C8" d="M39.345,30.535c0-0.346-0.208-0.566-0.552-0.566c-0.383,0-0.733,0.181-0.996,0.509
		c0.038-0.197,0.005-0.407-0.049-0.537l-0.559,0.238c0.061,0.21,0.055,0.401-0.011,0.735l-0.404,1.981h0.591l0.383-1.868
		c0.29-0.39,0.563-0.531,0.76-0.531c0.148,0,0.219,0.062,0.219,0.226c0,0.063-0.011,0.153-0.038,0.278L38.3,32.896h0.596
		l0.422-2.049C39.339,30.751,39.345,30.631,39.345,30.535L39.345,30.535z"/>
	<path fill="#C8C8C8" d="M41.202,29.2c0-0.228-0.175-0.415-0.394-0.415c-0.224,0-0.405,0.188-0.405,0.419
		c0,0.227,0.181,0.414,0.399,0.414C41.027,29.618,41.202,29.431,41.202,29.2L41.202,29.2z M40.945,29.969l-0.63,0.096l-0.579,2.832
		h0.613L40.945,29.969L40.945,29.969z"/>
	<path fill="#C8C8C8" d="M43.887,30.038l-0.651-0.007l-0.793,1.507c-0.126,0.237-0.213,0.441-0.279,0.61
		c0,0-0.005,0.005-0.005,0.012c0-0.164-0.012-0.419-0.033-0.606l-0.181-1.585l-0.613,0.096l0.416,2.844h0.525L43.887,30.038
		L43.887,30.038z"/>
	<path fill="#C8C8C8" d="M46.21,30.728c0-0.51-0.339-0.764-0.875-0.764c-0.356,0-0.662,0.118-0.936,0.39
		c-0.377,0.38-0.617,0.997-0.617,1.568c0,0.681,0.394,1.047,0.984,1.047c0.465,0,0.793-0.128,1.127-0.406l-0.187-0.386
		c-0.257,0.21-0.493,0.312-0.782,0.312c-0.3,0-0.503-0.17-0.503-0.527c0-0.09,0.022-0.243,0.033-0.299
		c0.05,0,0.181,0.022,0.334,0.022c0.569,0,0.946-0.131,1.176-0.362C46.123,31.164,46.21,30.96,46.21,30.728L46.21,30.728z
		 M45.603,30.768c0,0.118-0.044,0.209-0.115,0.282c-0.131,0.137-0.361,0.188-0.695,0.188c-0.093,0-0.208-0.018-0.24-0.018
		c0.12-0.538,0.394-0.793,0.705-0.793C45.51,30.427,45.603,30.575,45.603,30.768L45.603,30.768z"/>
	<path fill="#C8C8C8" d="M48.572,30.009c-0.082-0.035-0.131-0.045-0.23-0.045c-0.268,0-0.574,0.209-0.825,0.537
		c0.038-0.197,0.017-0.413-0.044-0.56l-0.559,0.237c0.055,0.198,0.061,0.413-0.021,0.805L46.5,32.896h0.596l0.377-1.841
		c0.241-0.35,0.454-0.504,0.646-0.504c0.082,0,0.137,0.012,0.192,0.046L48.572,30.009L48.572,30.009z"/>
	<path fill="#C8C8C8" d="M50.693,30.179c-0.22-0.141-0.537-0.244-0.865-0.244c-0.81,0-1.209,0.476-1.209,0.975
		c0,0.355,0.191,0.555,0.52,0.686l0.317,0.123c0.252,0.102,0.35,0.192,0.35,0.375c0,0.237-0.23,0.414-0.53,0.414
		c-0.312,0-0.635-0.12-0.865-0.285l-0.24,0.459c0.285,0.188,0.64,0.302,1.023,0.302c0.815,0,1.28-0.482,1.28-1.072
		c0-0.339-0.224-0.543-0.563-0.678l-0.327-0.131c-0.22-0.085-0.296-0.181-0.296-0.334c0-0.237,0.214-0.351,0.503-0.351
		c0.219,0,0.433,0.061,0.662,0.198L50.693,30.179L50.693,30.179z"/>
	<path fill="#C8C8C8" d="M52.366,29.2c0-0.228-0.175-0.415-0.394-0.415c-0.224,0-0.405,0.188-0.405,0.419
		c0,0.227,0.181,0.414,0.399,0.414C52.191,29.618,52.366,29.431,52.366,29.2L52.366,29.2z M52.109,29.969l-0.63,0.096L50.9,32.896
		h0.613L52.109,29.969L52.109,29.969z"/>
	<path fill="#C8C8C8" d="M54.191,30.031H53.53c0.055-0.271,0.148-0.605,0.224-0.85l-0.639,0.153
		c-0.071,0.216-0.126,0.437-0.181,0.696h-0.312l-0.088,0.441h0.312l-0.334,1.63c-0.027,0.142-0.039,0.29-0.039,0.391
		c0,0.29,0.208,0.482,0.58,0.482c0.191,0,0.383-0.039,0.574-0.119v-0.385c-0.087,0.039-0.191,0.057-0.279,0.057
		c-0.174,0-0.256-0.057-0.256-0.237c0-0.074,0.01-0.17,0.032-0.278l0.312-1.54h0.53L54.191,30.031L54.191,30.031z"/>
	<path fill="#C8C8C8" d="M56.832,29.335c0-0.209-0.164-0.379-0.366-0.379c-0.208,0-0.372,0.17-0.372,0.379
		c0,0.216,0.164,0.386,0.372,0.386C56.668,29.72,56.832,29.551,56.832,29.335L56.832,29.335z M55.69,29.335
		c0-0.209-0.165-0.379-0.367-0.379s-0.372,0.17-0.372,0.379c0,0.216,0.165,0.386,0.367,0.386
		C55.525,29.72,55.69,29.551,55.69,29.335L55.69,29.335z M56.712,30.179c-0.218-0.147-0.541-0.215-0.858-0.215
		c-0.444,0-0.804,0.151-1.1,0.463c-0.355,0.381-0.585,0.991-0.585,1.625c0,0.612,0.29,0.912,0.722,0.912
		c0.355,0,0.634-0.164,0.831-0.441c0,0.187,0.06,0.346,0.208,0.47l0.492-0.379c-0.136-0.153-0.169-0.3-0.098-0.646l0.224-1.133
		C56.586,30.631,56.663,30.336,56.712,30.179L56.712,30.179z M56.04,30.513l-0.296,1.403c-0.125,0.289-0.405,0.549-0.656,0.549
		c-0.203,0-0.301-0.118-0.301-0.43c0-0.401,0.115-0.957,0.36-1.263c0.214-0.261,0.389-0.316,0.635-0.316
		C55.875,30.456,55.984,30.478,56.04,30.513L56.04,30.513z"/>
	<path fill="#C8C8C8" d="M58.812,30.031H58.15c0.055-0.271,0.148-0.605,0.225-0.85l-0.64,0.153
		c-0.071,0.216-0.125,0.437-0.181,0.696h-0.312l-0.088,0.441h0.312l-0.333,1.63c-0.027,0.142-0.039,0.29-0.039,0.391
		c0,0.29,0.208,0.482,0.58,0.482c0.191,0,0.383-0.039,0.575-0.119v-0.385c-0.087,0.039-0.191,0.057-0.279,0.057
		c-0.175,0-0.256-0.057-0.256-0.237c0-0.074,0.01-0.17,0.032-0.278l0.312-1.54h0.53L58.812,30.031L58.812,30.031z"/>
	<path fill="#C8C8C8" d="M63,28.831l-0.575-0.103l-0.196,0.962c-0.022,0.098-0.071,0.357-0.071,0.386
		c-0.093-0.052-0.284-0.091-0.531-0.091c-0.317,0-0.662,0.136-0.925,0.403c-0.388,0.396-0.606,1.006-0.606,1.579
		c0,0.646,0.263,0.984,0.815,0.984c0.317,0,0.602-0.146,0.815-0.42c-0.011,0.184,0.032,0.324,0.104,0.415l0.514-0.125
		c-0.076-0.135-0.097-0.315,0.028-0.922L63,28.831L63,28.831z M62.037,30.603l-0.279,1.342c-0.169,0.3-0.471,0.511-0.7,0.511
		c-0.225,0-0.333-0.164-0.333-0.476c0-0.391,0.153-0.945,0.377-1.229c0.131-0.171,0.329-0.26,0.503-0.26
		C61.807,30.491,61.922,30.523,62.037,30.603L62.037,30.603z"/>
	<path fill="#C8C8C8" d="M65.549,30.728c0-0.51-0.339-0.764-0.876-0.764c-0.355,0-0.662,0.118-0.935,0.39
		c-0.378,0.38-0.618,0.997-0.618,1.568c0,0.681,0.394,1.047,0.984,1.047c0.465,0,0.793-0.128,1.127-0.406l-0.186-0.386
		c-0.257,0.21-0.491,0.312-0.782,0.312c-0.301,0-0.503-0.17-0.503-0.527c0-0.09,0.022-0.243,0.033-0.299
		c0.049,0,0.181,0.022,0.333,0.022c0.569,0,0.946-0.131,1.176-0.362C65.461,31.164,65.549,30.96,65.549,30.728L65.549,30.728z
		 M64.941,30.768c0,0.118-0.044,0.209-0.114,0.282c-0.132,0.137-0.362,0.188-0.695,0.188c-0.093,0-0.208-0.018-0.241-0.018
		c0.12-0.538,0.394-0.793,0.705-0.793C64.848,30.427,64.941,30.575,64.941,30.768L64.941,30.768z"/>
	<path fill="#C8C8C8" d="M67.911,30.009c-0.083-0.035-0.132-0.045-0.23-0.045c-0.268,0-0.574,0.209-0.826,0.537
		c0.037-0.197,0.016-0.413-0.044-0.56l-0.558,0.237c0.055,0.198,0.061,0.413-0.021,0.805l-0.394,1.913h0.597l0.377-1.841
		c0.24-0.35,0.454-0.504,0.645-0.504c0.083,0,0.137,0.012,0.192,0.046L67.911,30.009L67.911,30.009z"/>
	<polygon fill="#C8C8C8" points="70.457,28.984 69.822,28.984 69.012,32.896 69.652,32.896 	"/>
	<path fill="#C8C8C8" d="M73.142,30.535c0-0.346-0.208-0.566-0.553-0.566c-0.383,0-0.733,0.181-0.996,0.509
		c0.039-0.197,0.006-0.407-0.049-0.537l-0.558,0.238c0.06,0.21,0.054,0.401-0.011,0.735l-0.405,1.981h0.591l0.383-1.868
		c0.29-0.39,0.563-0.531,0.76-0.531c0.147,0,0.218,0.062,0.218,0.226c0,0.063-0.011,0.153-0.038,0.278l-0.389,1.896h0.596
		l0.422-2.049C73.135,30.751,73.142,30.631,73.142,30.535L73.142,30.535z"/>
	<path fill="#C8C8C8" d="M75.847,28.905c-0.142-0.098-0.351-0.165-0.585-0.165c-0.214,0-0.399,0.04-0.553,0.136
		c-0.235,0.147-0.411,0.385-0.476,0.764l-0.065,0.392h-0.263l-0.087,0.441h0.273l-0.465,2.44c-0.072,0.367-0.235,0.691-0.395,0.89
		l0.405,0.322c0.252-0.267,0.482-0.662,0.58-1.195l0.465-2.457h0.552l0.252-0.441h-0.728l0.076-0.425
		c0.044-0.255,0.208-0.402,0.421-0.402c0.115,0,0.23,0.04,0.339,0.107L75.847,28.905L75.847,28.905z"/>
	<path fill="#C8C8C8" d="M77.787,30.972c0-0.629-0.345-1.008-0.979-1.008c-0.92,0-1.57,0.871-1.57,1.976
		c0,0.657,0.351,1.024,0.963,1.024C77.218,32.964,77.787,32.019,77.787,30.972L77.787,30.972z M77.135,30.949
		c0,0.696-0.29,1.544-0.826,1.544c-0.268,0-0.426-0.152-0.426-0.497c0-0.651,0.284-1.558,0.831-1.558
		C76.96,30.438,77.135,30.563,77.135,30.949L77.135,30.949z"/>
	<path fill="#C8C8C8" d="M80.208,30.009c-0.082-0.035-0.131-0.045-0.229-0.045c-0.269,0-0.574,0.209-0.826,0.537
		c0.038-0.197,0.017-0.413-0.043-0.56l-0.559,0.237c0.055,0.198,0.061,0.413-0.021,0.805l-0.394,1.913h0.596l0.377-1.841
		c0.24-0.35,0.454-0.504,0.646-0.504c0.081,0,0.136,0.012,0.191,0.046L80.208,30.009L80.208,30.009z"/>
	<path fill="#C8C8C8" d="M83.964,30.542c0-0.363-0.219-0.578-0.537-0.578c-0.29,0-0.623,0.142-0.957,0.509
		c-0.016-0.335-0.186-0.504-0.492-0.504c-0.295,0-0.624,0.146-0.946,0.504c0.033-0.181,0.011-0.402-0.043-0.532l-0.559,0.238
		c0.049,0.18,0.055,0.419-0.004,0.719l-0.411,1.999h0.581l0.382-1.869c0.252-0.339,0.531-0.531,0.728-0.531
		c0.148,0,0.197,0.067,0.197,0.192c0,0.063-0.021,0.182-0.049,0.307l-0.388,1.901h0.579l0.389-1.873
		c0.219-0.312,0.498-0.527,0.701-0.527c0.152,0,0.218,0.063,0.218,0.204c0,0.067-0.011,0.157-0.033,0.26l-0.399,1.937h0.591
		l0.411-1.999C83.942,30.779,83.964,30.642,83.964,30.542L83.964,30.542z"/>
	<path fill="#C8C8C8" d="M86.889,30.179c-0.219-0.147-0.542-0.215-0.858-0.215c-0.443,0-0.805,0.151-1.1,0.463
		c-0.355,0.381-0.585,0.991-0.585,1.625c0,0.612,0.29,0.912,0.721,0.912c0.355,0,0.635-0.164,0.832-0.441
		c0,0.187,0.061,0.346,0.208,0.47l0.492-0.379c-0.137-0.153-0.169-0.3-0.099-0.646l0.225-1.133
		C86.763,30.631,86.84,30.336,86.889,30.179L86.889,30.179z M86.216,30.513l-0.295,1.403c-0.126,0.289-0.404,0.549-0.656,0.549
		c-0.203,0-0.301-0.118-0.301-0.43c0-0.401,0.114-0.957,0.36-1.263c0.214-0.261,0.389-0.316,0.635-0.316
		C86.053,30.456,86.162,30.478,86.216,30.513L86.216,30.513z"/>
	<path fill="#C8C8C8" d="M88.989,30.031h-0.662c0.054-0.271,0.147-0.605,0.224-0.85l-0.64,0.153
		c-0.071,0.216-0.126,0.437-0.181,0.696H87.42l-0.088,0.441h0.312l-0.334,1.63c-0.027,0.142-0.038,0.29-0.038,0.391
		c0,0.29,0.208,0.482,0.58,0.482c0.192,0,0.383-0.039,0.574-0.119v-0.385c-0.087,0.039-0.191,0.057-0.279,0.057
		c-0.175,0-0.257-0.057-0.257-0.237c0-0.074,0.011-0.17,0.033-0.278l0.312-1.54h0.53L88.989,30.031L88.989,30.031z"/>
	<path fill="#C8C8C8" d="M90.421,29.2c0-0.228-0.175-0.415-0.394-0.415c-0.225,0-0.405,0.188-0.405,0.419
		c0,0.227,0.181,0.414,0.398,0.414C90.247,29.618,90.421,29.431,90.421,29.2L90.421,29.2z M90.164,29.969l-0.629,0.096l-0.58,2.832
		h0.612L90.164,29.969L90.164,29.969z"/>
	<path fill="#C8C8C8" d="M93.007,30.972c0-0.629-0.344-1.008-0.979-1.008c-0.919,0-1.57,0.871-1.57,1.976
		c0,0.657,0.351,1.024,0.963,1.024C92.438,32.964,93.007,32.019,93.007,30.972L93.007,30.972z M92.356,30.949
		c0,0.696-0.29,1.544-0.826,1.544c-0.268,0-0.426-0.152-0.426-0.497c0-0.651,0.284-1.558,0.832-1.558
		C92.181,30.438,92.356,30.563,92.356,30.949L92.356,30.949z"/>
	<path fill="#C8C8C8" d="M95.926,30.535c0-0.346-0.208-0.566-0.552-0.566c-0.383,0-0.733,0.181-0.996,0.509
		c0.039-0.197,0.005-0.407-0.049-0.537l-0.559,0.238c0.061,0.21,0.055,0.401-0.011,0.735l-0.404,1.981h0.591l0.383-1.868
		c0.29-0.39,0.563-0.531,0.76-0.531c0.148,0,0.219,0.062,0.219,0.226c0,0.063-0.011,0.153-0.039,0.278l-0.388,1.896h0.596
		l0.421-2.049C95.92,30.751,95.926,30.631,95.926,30.535L95.926,30.535z"/>
	<path fill="#C8C8C8" d="M98.643,30.179c-0.219-0.141-0.537-0.244-0.864-0.244c-0.811,0-1.209,0.476-1.209,0.975
		c0,0.355,0.191,0.555,0.52,0.686l0.317,0.123c0.251,0.102,0.35,0.192,0.35,0.375c0,0.237-0.229,0.414-0.53,0.414
		c-0.312,0-0.635-0.12-0.864-0.285l-0.241,0.459c0.285,0.188,0.641,0.302,1.023,0.302c0.815,0,1.28-0.482,1.28-1.072
		c0-0.339-0.224-0.543-0.564-0.678l-0.329-0.131c-0.218-0.085-0.295-0.181-0.295-0.334c0-0.237,0.214-0.351,0.503-0.351
		c0.219,0,0.433,0.061,0.662,0.198L98.643,30.179L98.643,30.179z"/>
	<path fill="#C8C8C8" d="M101.591,30.179c-0.301-0.159-0.574-0.222-1.023-0.222c-0.41,0-0.755,0.158-1.034,0.42
		c-0.382,0.356-0.618,1.018-0.618,1.607c0,0.645,0.269,0.975,0.815,0.975c0.295,0,0.547-0.103,0.76-0.346
		c-0.017,0.051-0.082,0.355-0.098,0.419c-0.104,0.401-0.34,0.582-0.804,0.582c-0.318,0-0.575-0.067-0.81-0.214l-0.208,0.441
		c0.289,0.17,0.613,0.255,0.968,0.255c0.717,0,1.28-0.262,1.455-1.064c0.049-0.215,0.088-0.539,0.181-0.975l0.291-1.398
		C101.503,30.478,101.574,30.229,101.591,30.179L101.591,30.179z M100.89,30.546l-0.295,1.411c-0.17,0.306-0.438,0.51-0.684,0.51
		c-0.23,0-0.361-0.165-0.361-0.499c0-0.386,0.169-0.963,0.399-1.234c0.142-0.17,0.376-0.266,0.569-0.266
		C100.677,30.468,100.803,30.491,100.89,30.546L100.89,30.546z"/>
	<path fill="#C8C8C8" d="M104.38,30.728c0-0.51-0.34-0.764-0.875-0.764c-0.355,0-0.662,0.118-0.936,0.39
		c-0.378,0.38-0.619,0.997-0.619,1.568c0,0.681,0.395,1.047,0.985,1.047c0.465,0,0.793-0.128,1.127-0.406l-0.186-0.386
		c-0.257,0.21-0.492,0.312-0.782,0.312c-0.301,0-0.503-0.17-0.503-0.527c0-0.09,0.022-0.243,0.033-0.299
		c0.049,0,0.18,0.022,0.333,0.022c0.569,0,0.946-0.131,1.176-0.362C104.292,31.164,104.38,30.96,104.38,30.728L104.38,30.728z
		 M103.772,30.768c0,0.118-0.043,0.209-0.115,0.282c-0.131,0.137-0.361,0.188-0.695,0.188c-0.093,0-0.208-0.018-0.241-0.018
		c0.12-0.538,0.395-0.793,0.706-0.793C103.68,30.427,103.772,30.575,103.772,30.768L103.772,30.768z"/>
	<path fill="#C8C8C8" d="M106.988,30.179c-0.219-0.141-0.536-0.244-0.864-0.244c-0.81,0-1.209,0.476-1.209,0.975
		c0,0.355,0.191,0.555,0.52,0.686l0.317,0.123c0.251,0.102,0.35,0.192,0.35,0.375c0,0.237-0.23,0.414-0.531,0.414
		c-0.311,0-0.634-0.12-0.864-0.285l-0.241,0.459c0.285,0.188,0.64,0.302,1.023,0.302c0.815,0,1.28-0.482,1.28-1.072
		c0-0.339-0.224-0.543-0.563-0.678l-0.328-0.131c-0.219-0.085-0.295-0.181-0.295-0.334c0-0.237,0.213-0.351,0.502-0.351
		c0.22,0,0.433,0.061,0.663,0.198L106.988,30.179L106.988,30.179z"/>
	<path fill="#C8C8C8" d="M109.689,30.728c0-0.51-0.338-0.764-0.875-0.764c-0.355,0-0.662,0.118-0.935,0.39
		c-0.378,0.38-0.618,0.997-0.618,1.568c0,0.681,0.394,1.047,0.984,1.047c0.465,0,0.794-0.128,1.127-0.406l-0.186-0.386
		c-0.257,0.21-0.493,0.312-0.782,0.312c-0.301,0-0.503-0.17-0.503-0.527c0-0.09,0.021-0.243,0.033-0.299
		c0.049,0,0.181,0.022,0.334,0.022c0.569,0,0.947-0.131,1.176-0.362C109.603,31.164,109.689,30.96,109.689,30.728L109.689,30.728z
		 M109.083,30.768c0,0.118-0.043,0.209-0.115,0.282c-0.131,0.137-0.361,0.188-0.695,0.188c-0.093,0-0.208-0.018-0.24-0.018
		c0.12-0.538,0.394-0.793,0.705-0.793C108.99,30.427,109.083,30.575,109.083,30.768L109.083,30.768z"/>
	<path fill="#C8C8C8" d="M111.281,28.696l-0.635,0.214c0.054,0.188,0.033,0.464-0.044,0.843l-0.486,2.361
		c-0.033,0.158-0.055,0.318-0.055,0.402c0,0.267,0.164,0.443,0.481,0.443c0.142,0,0.279-0.023,0.405-0.074l-0.033-0.379
		c-0.027,0.01-0.06,0.01-0.093,0.01c-0.087,0-0.131-0.05-0.131-0.152c0-0.068,0.017-0.176,0.065-0.403l0.478-2.31
		C111.309,29.296,111.325,28.87,111.281,28.696L111.281,28.696z"/>
	<path fill="#C8C8C8" d="M112.821,28.696l-0.634,0.214c0.055,0.188,0.033,0.464-0.043,0.843l-0.487,2.361
		c-0.032,0.158-0.054,0.318-0.054,0.402c0,0.267,0.164,0.443,0.482,0.443c0.142,0,0.278-0.023,0.404-0.074l-0.033-0.379
		c-0.027,0.01-0.06,0.01-0.093,0.01c-0.086,0-0.131-0.05-0.131-0.152c0-0.068,0.017-0.176,0.066-0.403l0.476-2.31
		C112.85,29.296,112.866,28.87,112.821,28.696L112.821,28.696z"/>
	<path fill="#C8C8C8" d="M115.379,30.179c-0.217-0.141-0.535-0.244-0.864-0.244c-0.809,0-1.208,0.476-1.208,0.975
		c0,0.355,0.191,0.555,0.521,0.686l0.316,0.123c0.252,0.102,0.351,0.192,0.351,0.375c0,0.237-0.23,0.414-0.53,0.414
		c-0.312,0-0.635-0.12-0.864-0.285l-0.24,0.459c0.284,0.188,0.64,0.302,1.022,0.302c0.815,0,1.281-0.482,1.281-1.072
		c0-0.339-0.225-0.543-0.563-0.678l-0.329-0.131c-0.219-0.085-0.296-0.181-0.296-0.334c0-0.237,0.213-0.351,0.503-0.351
		c0.218,0,0.432,0.061,0.662,0.198L115.379,30.179L115.379,30.179z"/>
	<path fill="#C8C8C8" d="M117.928,30.253c-0.191-0.205-0.443-0.301-0.706-0.301c-0.35,0-0.623,0.112-0.875,0.334
		c-0.377,0.328-0.706,1.014-0.706,1.698c0,0.622,0.312,0.979,0.93,0.979c0.377,0,0.673-0.123,0.979-0.379l-0.219-0.39
		c-0.203,0.186-0.422,0.298-0.629,0.298c-0.263,0-0.41-0.17-0.41-0.509c0-0.441,0.186-1.042,0.382-1.291
		c0.12-0.147,0.284-0.232,0.449-0.232c0.164,0,0.333,0.063,0.476,0.209L117.928,30.253L117.928,30.253z"/>
	<path fill="#C8C8C8" d="M120.65,30.519c0-0.334-0.212-0.561-0.617-0.561c-0.334,0-0.717,0.176-0.979,0.498
		c0.033-0.103,0.087-0.329,0.108-0.43l0.083-0.396c0.076-0.362,0.098-0.76,0.043-0.934l-0.613,0.214
		c0.043,0.181,0.039,0.425-0.049,0.839l-0.646,3.147h0.596l0.383-1.869c0.236-0.312,0.585-0.543,0.81-0.543
		c0.164,0,0.251,0.079,0.257,0.243c0,0.057-0.016,0.147-0.033,0.237l-0.394,1.932h0.591l0.416-2.027
		C120.64,30.716,120.65,30.609,120.65,30.519L120.65,30.519z"/>
	<path fill="#C8C8C8" d="M123.548,30.179c-0.218-0.147-0.541-0.215-0.858-0.215c-0.443,0-0.805,0.151-1.1,0.463
		c-0.355,0.381-0.586,0.991-0.586,1.625c0,0.612,0.291,0.912,0.723,0.912c0.355,0,0.635-0.164,0.831-0.441
		c0,0.187,0.06,0.346,0.208,0.47l0.492-0.379c-0.137-0.153-0.169-0.3-0.098-0.646l0.223-1.133
		C123.422,30.631,123.498,30.336,123.548,30.179L123.548,30.179z M122.875,30.513l-0.295,1.403
		c-0.126,0.289-0.405,0.549-0.656,0.549c-0.202,0-0.301-0.118-0.301-0.43c0-0.401,0.115-0.957,0.36-1.263
		c0.214-0.261,0.39-0.316,0.636-0.316C122.711,30.456,122.82,30.478,122.875,30.513L122.875,30.513z"/>
	<path fill="#C8C8C8" d="M126.119,28.905c-0.143-0.098-0.351-0.165-0.586-0.165c-0.214,0-0.399,0.04-0.553,0.136
		c-0.235,0.147-0.41,0.385-0.477,0.764l-0.064,0.392h-0.262l-0.089,0.441h0.273l-0.466,2.44c-0.07,0.367-0.234,0.691-0.393,0.89
		l0.404,0.322c0.252-0.267,0.482-0.662,0.58-1.195l0.465-2.457h0.552l0.252-0.441h-0.728l0.076-0.425
		c0.045-0.255,0.209-0.402,0.422-0.402c0.115,0,0.229,0.04,0.34,0.107L126.119,28.905L126.119,28.905z"/>
	<path fill="#C8C8C8" d="M127.299,30.031h-0.662c0.055-0.271,0.146-0.605,0.225-0.85l-0.641,0.153
		c-0.071,0.216-0.125,0.437-0.181,0.696h-0.312l-0.087,0.441h0.312l-0.334,1.63c-0.027,0.142-0.038,0.29-0.038,0.391
		c0,0.29,0.207,0.482,0.579,0.482c0.191,0,0.383-0.039,0.574-0.119v-0.385c-0.087,0.039-0.191,0.057-0.278,0.057
		c-0.176,0-0.257-0.057-0.257-0.237c0-0.074,0.011-0.17,0.031-0.278l0.313-1.54h0.531L127.299,30.031L127.299,30.031z"/>
	<polygon fill="#C8C8C8" points="15.197,0.875 11.317,3.916 11.317,18.026 19.78,25.878 15.197,15.296 	"/>
	<polygon fill="#C8C8C8" points="20.279,11.495 16.695,8.615 16.695,14.226 20.279,25.709 	"/>
	<polygon fill="#C8C8C8" points="9.821,8.466 6.078,11.495 6.078,22.266 19.438,26.225 9.821,19.236 	"/>
	<polygon fill="#C8C8C8" points="19.342,26.666 0.702,26.666 0.702,19.086 4.592,16.046 4.592,23.636 	"/>
</g>
</svg>
